<svg width="972" height="392" viewBox="0 0 972 392" fill="none" xmlns="http://www.w3.org/2000/svg">
<path d="M970.541 353.061L901.12 354.894L915.481 364.795L912.568 382.524L929.906 375.809L949.201 384.13L970.541 353.061Z" fill="#2E8B5A"/>
<path d="M970.541 353.061L901.12 354.894L915.481 364.795M970.541 353.061L949.201 384.13L929.906 375.809M970.541 353.061L923.28 371.226M970.541 353.061L915.481 364.795M915.481 364.795L912.568 382.524M912.568 382.524L929.906 375.809M912.568 382.524L923.28 371.226M929.906 375.809L923.28 371.226" stroke="black" stroke-width="0.5"/>
<path d="M320 1L399 16.283L380.726 24.9858V46L362.171 34.9623L338.555 40.9057L320 1Z" fill="#2E8B5A"/>
<path d="M320 1L399 16.283L380.726 24.9858M320 1L338.555 40.9057L362.171 34.9623M320 1L370.605 30.9292M320 1L380.726 24.9858M380.726 24.9858V46M380.726 46L362.171 34.9623M380.726 46L370.605 30.9292M362.171 34.9623L370.605 30.9292" stroke="black"/>
<path d="M330 4L380.649 24L395 16.5L330 4Z" fill="#73DE38" fill-opacity="0.5"/>
<path d="M399.664 62C438.414 99.8974 473.226 156.181 412.001 177.5" stroke="#716B6B" stroke-width="2" stroke-dasharray="2 2"/>
<path d="M380 41.5V26L332.5 7L372 30L380 41.5Z" fill="white" fill-opacity="0.5"/>
<rect x="78" y="72" width="66" height="66" rx="12" fill="#570B0B"/>
<rect x="153" y="72" width="66" height="66" rx="12" fill="#160548"/>
<rect x="228" y="72" width="66" height="66" rx="12" fill="#1A1822"/>
<rect x="261" y="272" width="69" height="69" rx="12" fill="#755E5E"/>
<rect x="185" y="273" width="69" height="68" rx="12" fill="#FF9900" fill-opacity="0.8"/>
<rect x="111" y="273" width="69" height="69" rx="12" fill="#8B5708" fill-opacity="0.8"/>
<rect x="36" y="271" width="70" height="70" rx="12" fill="#4CDC6E"/>
<rect x="6" y="172" width="66" height="66" rx="12" fill="#2B6D7B"/>
<rect x="81" y="172" width="66" height="66" rx="12" fill="#0B723A"/>
<rect x="156" y="172" width="66" height="66" rx="12" fill="#260625"/>
<rect x="230" y="172" width="66" height="66" rx="12" fill="#7E0029"/>
<rect x="305" y="172" width="66" height="66" rx="12" fill="#2F0815"/>
<rect x="33" y="269" width="66" height="66" rx="12" fill="#2E8B5A"/>
<rect x="108" y="269" width="66" height="66" rx="12" fill="#FFC737"/>
<rect x="183" y="269" width="66" height="66" rx="12" fill="#F4F839"/>
<rect x="258" y="269" width="66" height="66" rx="12" fill="#F38282"/>
<rect y="168" width="66" height="66" rx="12" fill="#2EC0E0"/>
<rect x="75" y="168" width="66" height="66" rx="12" fill="#73DE38"/>
<rect x="150" y="168" width="66" height="66" rx="12" fill="#642562"/>
<rect x="225" y="168" width="66" height="66" rx="12" fill="#ED0D56"/>
<rect x="300" y="168" width="66" height="66" rx="12" fill="#B534A8"/>
<path d="M64.8 318.25C63.9667 318.25 63.2333 318 62.6 317.5C61.9667 317 61.65 316.217 61.65 315.15L61.7 314.6C62.0667 311.167 62.5 307.6 63 303.9C63.5333 300.167 63.9833 297.3 64.35 295.3L60.45 296.4L59.85 296.5C59.2167 296.5 58.7167 296.25 58.35 295.75C57.9833 295.25 57.8 294.683 57.8 294.05L57.85 293.6C57.9167 292.967 58.1167 292.45 58.45 292.05C58.7833 291.65 59.4167 291.25 60.35 290.85C61.3167 290.45 62.75 290.017 64.65 289.55L66.75 289.05C67.5167 288.883 68.15 288.8 68.65 288.8C69.6167 288.8 70.3333 289.05 70.8 289.55C71.3 290.05 71.55 290.75 71.55 291.65C71.55 292.05 71.5 292.483 71.4 292.95C70.8667 295.55 69.85 302.95 68.35 315.15C68.0833 317.217 66.9 318.25 64.8 318.25Z" fill="white"/>
<path d="M34.2 194.15C33.2333 194.15 32.5333 194.167 32.1 194.2C31.6667 195.667 31.1833 197.667 30.65 200.2C34.95 200.433 38.2167 201.317 40.45 202.85C42.6833 204.383 43.8 206.467 43.8 209.1C43.8 210.833 43.35 212.4 42.45 213.8C41.5833 215.167 40.3 216.25 38.6 217.05C36.9 217.85 34.9 218.25 32.6 218.25C29.5 218.25 27 217.65 25.1 216.45C23.2333 215.25 22.3 213.633 22.3 211.6C22.3 210.5 22.55 209.65 23.05 209.05C23.5833 208.417 24.3167 208.1 25.25 208.1C25.9833 208.1 26.55 208.3 26.95 208.7C27.35 209.067 27.6833 209.717 27.95 210.65C28.5167 212.683 30.2333 213.7 33.1 213.7C34.3333 213.7 35.35 213.333 36.15 212.6C36.95 211.833 37.35 210.9 37.35 209.8C37.35 206.867 34.2333 205.3 28 205.1C26.6667 205.067 25.7 204.85 25.1 204.45C24.5333 204.05 24.25 203.433 24.25 202.6C24.25 202.2 24.3 201.783 24.4 201.35L24.95 198.95C25.15 197.983 25.4833 196.5 25.95 194.5H25.85C25.1833 194.5 24.65 194.35 24.25 194.05C23.85 193.717 23.65 193.267 23.65 192.7C23.65 191.067 24.45 190 26.05 189.5C27.55 189.033 30.25 188.8 34.15 188.8C36.95 188.8 38.9833 188.85 40.25 188.95C41.5167 189.017 42.5 189.133 43.2 189.3C43.8667 189.467 44.3333 189.7 44.6 190C44.8667 190.267 45 190.683 45 191.25C45 192.383 44.7667 193.2 44.3 193.7C43.8667 194.167 43.1167 194.4 42.05 194.4C41.5167 194.4 40.4833 194.367 38.95 194.3C36.15 194.2 34.5667 194.15 34.2 194.15Z" fill="black"/>
<path d="M110 193.75C108.067 193.75 106.483 194.517 105.25 196.05C104.05 197.55 103.3 199.8 103 202.8C103.867 201.8 104.85 201.1 105.95 200.7C107.05 200.267 108.267 200.05 109.6 200.05C111.267 200.05 112.75 200.4 114.05 201.1C115.383 201.8 116.417 202.783 117.15 204.05C117.883 205.283 118.25 206.667 118.25 208.2C118.25 210.1 117.8 211.817 116.9 213.35C116.033 214.85 114.75 216.05 113.05 216.95C111.383 217.817 109.4 218.25 107.1 218.25C103.667 218.25 101.033 217.183 99.2 215.05C97.4 212.883 96.5 209.9 96.5 206.1C96.5 202.7 97.0667 199.7 98.2 197.1C99.3667 194.467 101 192.433 103.1 191C105.233 189.533 107.717 188.8 110.55 188.8C113.117 188.8 115.217 189.4 116.85 190.6C118.517 191.767 119.467 193.317 119.7 195.25L119.75 195.8C119.75 196.667 119.467 197.35 118.9 197.85C118.367 198.317 117.6 198.55 116.6 198.55C115.867 198.55 115.267 198.367 114.8 198C114.367 197.6 113.983 196.933 113.65 196C113.383 195.3 112.933 194.75 112.3 194.35C111.7 193.95 110.933 193.75 110 193.75ZM108.1 205.05C106.667 205.05 105.55 205.45 104.75 206.25C103.95 207.05 103.55 208.117 103.55 209.45C103.55 210.65 103.883 211.6 104.55 212.3C105.217 213 106.15 213.35 107.35 213.35C108.683 213.35 109.75 212.933 110.55 212.1C111.383 211.233 111.8 210.117 111.8 208.75C111.8 207.617 111.467 206.717 110.8 206.05C110.133 205.383 109.233 205.05 108.1 205.05Z" fill="black"/>
<path d="M333.65 187.8C337.083 187.8 339.7 188.883 341.5 191.05C343.333 193.183 344.25 196.15 344.25 199.95C344.25 203.35 343.667 206.367 342.5 209C341.367 211.6 339.733 213.633 337.6 215.1C335.5 216.533 333.033 217.25 330.2 217.25C327.633 217.25 325.517 216.667 323.85 215.5C322.217 214.3 321.283 212.733 321.05 210.8L321 210.25C321 209.383 321.267 208.717 321.8 208.25C322.367 207.75 323.15 207.5 324.15 207.5C324.883 207.5 325.467 207.7 325.9 208.1C326.367 208.467 326.767 209.117 327.1 210.05C327.367 210.75 327.8 211.3 328.4 211.7C329.033 212.1 329.817 212.3 330.75 212.3C332.683 212.3 334.25 211.55 335.45 210.05C336.683 208.517 337.45 206.25 337.75 203.25C336.883 204.25 335.9 204.967 334.8 205.4C333.7 205.8 332.483 206 331.15 206C329.483 206 327.983 205.65 326.65 204.95C325.35 204.25 324.333 203.283 323.6 202.05C322.867 200.783 322.5 199.383 322.5 197.85C322.5 195.95 322.933 194.25 323.8 192.75C324.7 191.217 325.983 190.017 327.65 189.15C329.35 188.25 331.35 187.8 333.65 187.8ZM332.65 201C334.083 201 335.2 200.6 336 199.8C336.8 199 337.2 197.933 337.2 196.6C337.2 195.4 336.867 194.45 336.2 193.75C335.533 193.05 334.6 192.7 333.4 192.7C332.067 192.7 330.983 193.133 330.15 194C329.35 194.833 328.95 195.933 328.95 197.3C328.95 198.433 329.283 199.333 329.95 200C330.617 200.667 331.517 201 332.65 201Z" fill="white"/>
<path d="M262.9 203.15C266.167 204.817 267.8 207.05 267.8 209.85C267.8 211.517 267.317 212.983 266.35 214.25C265.417 215.517 264.083 216.5 262.35 217.2C260.617 217.9 258.6 218.25 256.3 218.25C253.067 218.25 250.533 217.617 248.7 216.35C246.9 215.083 246 213.317 246 211.05C246 209.617 246.433 208.3 247.3 207.1C248.167 205.9 249.567 204.783 251.5 203.75C250.3 202.95 249.383 202 248.75 200.9C248.15 199.767 247.85 198.583 247.85 197.35C247.85 194.683 248.85 192.6 250.85 191.1C252.85 189.567 255.567 188.8 259 188.8C261.833 188.8 264.1 189.417 265.8 190.65C267.533 191.883 268.4 193.55 268.4 195.65C268.4 197.183 267.967 198.567 267.1 199.8C266.233 201 264.833 202.117 262.9 203.15ZM258.6 193.65C257.2 193.65 256.083 193.95 255.25 194.55C254.417 195.117 254 195.95 254 197.05C254 198.55 255.267 199.883 257.8 201.05C259.5 200.217 260.683 199.433 261.35 198.7C262.05 197.967 262.4 197.2 262.4 196.4C262.4 194.567 261.133 193.65 258.6 193.65ZM256.55 213.4C258.117 213.4 259.35 213.133 260.25 212.6C261.15 212.067 261.6 211.333 261.6 210.4C261.6 209.667 261.2 208.967 260.4 208.3C259.633 207.633 258.2 206.833 256.1 205.9C254.567 206.6 253.5 207.317 252.9 208.05C252.3 208.783 252 209.583 252 210.45C252 211.383 252.4 212.117 253.2 212.65C254.033 213.15 255.15 213.4 256.55 213.4Z" fill="white"/>
<path d="M194.05 188.9C194.583 188.9 195.017 189.15 195.35 189.65C195.717 190.117 195.9 190.833 195.9 191.8C195.9 192.7 195.717 193.383 195.35 193.85C194.983 194.283 194.517 194.683 193.95 195.05C193.417 195.417 193.033 195.683 192.8 195.85C189.267 198.283 186.8 201.067 185.4 204.2C184.033 207.333 183.2 210.683 182.9 214.25C182.767 215.65 182.383 216.667 181.75 217.3C181.15 217.933 180.383 218.25 179.45 218.25C178.517 218.25 177.733 217.933 177.1 217.3C176.467 216.633 176.15 215.483 176.15 213.85C176.15 211.95 176.5 209.867 177.2 207.6C177.933 205.3 179.083 203.017 180.65 200.75C182.25 198.483 184.267 196.467 186.7 194.7L174.4 194.9C173.7 194.9 173.167 194.667 172.8 194.2C172.433 193.733 172.25 193.15 172.25 192.45C172.25 191.583 172.517 190.817 173.05 190.15C173.617 189.45 174.367 189.1 175.3 189.1C176.933 189.1 179.317 189.217 182.45 189.45C183.083 189.483 184.25 189.55 185.95 189.65C187.65 189.75 188.983 189.8 189.95 189.8C190.383 189.8 191.017 189.65 191.85 189.35C192.017 189.317 192.333 189.233 192.8 189.1C193.3 188.967 193.717 188.9 194.05 188.9Z" fill="white"/>
<path d="M299.95 306.75C301.717 306.75 302.6 307.5 302.6 309C302.6 310.2 302.267 311.033 301.6 311.5C300.933 311.967 299.883 312.2 298.45 312.2H297.4L297.2 314.85C297.1 316.383 296.767 317.417 296.2 317.95C295.667 318.483 294.783 318.75 293.55 318.75C291.783 318.75 290.9 317.667 290.9 315.5C290.9 315.133 290.917 314.85 290.95 314.65L291.2 312.2C286.367 312.2 282.7 312.183 280.2 312.15C279.467 312.15 278.817 311.817 278.25 311.15C277.683 310.483 277.4 309.617 277.4 308.55C277.4 307.917 277.517 307.25 277.75 306.55C279.217 302.283 281.417 297.433 284.35 292C284.983 290.833 285.617 290.017 286.25 289.55C286.917 289.05 287.933 288.8 289.3 288.8C290.033 288.8 290.583 288.967 290.95 289.3C291.35 289.633 291.55 290.067 291.55 290.6C291.55 291.167 291.383 291.733 291.05 292.3C287.783 298.267 285.483 303.083 284.15 306.75H291.85C292.25 303.65 292.8 300.7 293.5 297.9C293.767 296.867 294.2 296.083 294.8 295.55C295.4 294.983 296.233 294.7 297.3 294.7C299 294.7 299.85 295.433 299.85 296.9C299.85 297.333 299.817 297.667 299.75 297.9C299.15 300.733 298.617 303.683 298.15 306.75H299.95Z" fill="black"/>
<path d="M220.75 303.75C222.45 303.983 223.867 304.683 225 305.85C226.167 307.017 226.75 308.483 226.75 310.25C226.75 311.95 226.233 313.4 225.2 314.6C224.167 315.8 222.767 316.717 221 317.35C219.267 317.95 217.367 318.25 215.3 318.25C211.667 318.25 208.933 317.617 207.1 316.35C205.3 315.083 204.4 313.5 204.4 311.6C204.4 310.5 204.667 309.65 205.2 309.05C205.733 308.417 206.45 308.1 207.35 308.1C208.117 308.1 208.683 308.3 209.05 308.7C209.45 309.067 209.783 309.717 210.05 310.65C210.283 311.55 210.767 312.233 211.5 312.7C212.233 313.167 213.367 313.4 214.9 313.4C216.367 313.4 217.567 313.133 218.5 312.6C219.467 312.033 219.95 311.183 219.95 310.05C219.95 308.883 219.5 308.033 218.6 307.5C217.7 306.933 216.3 306.617 214.4 306.55C213.7 306.517 213.167 306.283 212.8 305.85C212.467 305.383 212.3 304.833 212.3 304.2C212.3 303.4 212.433 302.833 212.7 302.5C213 302.133 213.5 301.883 214.2 301.75C216.4 301.417 217.983 300.783 218.95 299.85C219.95 298.883 220.45 297.733 220.45 296.4C220.45 294.567 219.183 293.65 216.65 293.65C213.85 293.65 212.2 294.75 211.7 296.95C211.467 297.85 211.117 298.5 210.65 298.9C210.217 299.267 209.6 299.45 208.8 299.45C207.9 299.45 207.2 299.2 206.7 298.7C206.233 298.167 206 297.467 206 296.6C206 295.267 206.467 294 207.4 292.8C208.333 291.6 209.65 290.633 211.35 289.9C213.083 289.167 215.1 288.8 217.4 288.8C220.6 288.8 223.05 289.417 224.75 290.65C226.45 291.883 227.3 293.717 227.3 296.15C227.3 297.75 226.683 299.25 225.45 300.65C224.25 302.017 222.683 303.05 220.75 303.75Z" fill="black"/>
<path d="M149.8 312.4C150.5 312.4 151.033 312.633 151.4 313.1C151.767 313.567 151.95 314.15 151.95 314.85C151.95 315.717 151.667 316.5 151.1 317.2C150.567 317.867 149.833 318.2 148.9 318.2C147.3 318.2 144.917 318.083 141.75 317.85C141.117 317.817 139.95 317.75 138.25 317.65C136.55 317.55 135.217 317.5 134.25 317.5C133.817 317.5 133.183 317.65 132.35 317.95C132.183 317.983 131.85 318.067 131.35 318.2C130.883 318.333 130.483 318.4 130.15 318.4C129.617 318.4 129.167 318.167 128.8 317.7C128.467 317.2 128.3 316.467 128.3 315.5C128.3 314.433 128.55 313.617 129.05 313.05C129.55 312.45 130.333 311.917 131.4 311.45C133.667 310.45 135.8 309.183 137.8 307.65C139.833 306.083 141.45 304.4 142.65 302.6C143.883 300.8 144.5 299.083 144.5 297.45C144.5 296.15 144.2 295.2 143.6 294.6C143.033 293.967 142.117 293.65 140.85 293.65C139.383 293.65 138.2 294.05 137.3 294.85C136.433 295.65 136 296.767 136 298.2C136 300.167 135.017 301.15 133.05 301.15C132.117 301.15 131.383 300.883 130.85 300.35C130.35 299.817 130.1 299.05 130.1 298.05C130.1 296.383 130.533 294.85 131.4 293.45C132.267 292.05 133.567 290.933 135.3 290.1C137.033 289.233 139.15 288.8 141.65 288.8C144.65 288.8 147 289.55 148.7 291.05C150.4 292.55 151.25 294.633 151.25 297.3C151.25 299.833 150.133 302.483 147.9 305.25C145.7 308.017 142.517 310.467 138.35 312.6L149.8 312.4Z" fill="black"/>
<rect x="73" y="67" width="66" height="66" rx="12" fill="#D85D5D"/>
<rect x="148" y="67" width="66" height="66" rx="12" fill="#3B51A2"/>
<rect x="223" y="67" width="66" height="66" rx="12" fill="#C4C4C4"/>
<path d="M170.8 115.25C169.967 115.25 169.233 115 168.6 114.5C167.967 114 167.65 113.217 167.65 112.15L167.7 111.6C168.067 108.167 168.5 104.6 169 100.9C169.533 97.1667 169.983 94.3 170.35 92.3L166.45 93.4L165.85 93.5C165.217 93.5 164.717 93.25 164.35 92.75C163.983 92.25 163.8 91.6833 163.8 91.05L163.85 90.6C163.917 89.9667 164.117 89.45 164.45 89.05C164.783 88.65 165.417 88.25 166.35 87.85C167.317 87.45 168.75 87.0167 170.65 86.55L172.75 86.05C173.517 85.8833 174.15 85.8 174.65 85.8C175.617 85.8 176.333 86.05 176.8 86.55C177.3 87.05 177.55 87.75 177.55 88.65C177.55 89.05 177.5 89.4833 177.4 89.95C176.867 92.55 175.85 99.95 174.35 112.15C174.083 114.217 172.9 115.25 170.8 115.25ZM189.599 115.25C188.765 115.25 188.032 115 187.399 114.5C186.765 114 186.449 113.217 186.449 112.15L186.499 111.6C186.865 108.167 187.299 104.6 187.799 100.9C188.332 97.1667 188.782 94.3 189.149 92.3L185.249 93.4L184.649 93.5C184.015 93.5 183.515 93.25 183.149 92.75C182.782 92.25 182.599 91.6833 182.599 91.05L182.649 90.6C182.715 89.9667 182.915 89.45 183.249 89.05C183.582 88.65 184.215 88.25 185.149 87.85C186.115 87.45 187.549 87.0167 189.449 86.55L191.549 86.05C192.315 85.8833 192.949 85.8 193.449 85.8C194.415 85.8 195.132 86.05 195.599 86.55C196.099 87.05 196.349 87.75 196.349 88.65C196.349 89.05 196.299 89.4833 196.199 89.95C195.665 92.55 194.649 99.95 193.149 112.15C192.882 114.217 191.699 115.25 189.599 115.25Z" fill="white"/>
<path d="M238.8 115.25C237.967 115.25 237.233 115 236.6 114.5C235.967 114 235.65 113.217 235.65 112.15L235.7 111.6C236.067 108.167 236.5 104.6 237 100.9C237.533 97.1667 237.983 94.3 238.35 92.3L234.45 93.4L233.85 93.5C233.217 93.5 232.717 93.25 232.35 92.75C231.983 92.25 231.8 91.6833 231.8 91.05L231.85 90.6C231.917 89.9667 232.117 89.45 232.45 89.05C232.783 88.65 233.417 88.25 234.35 87.85C235.317 87.45 236.75 87.0167 238.65 86.55L240.75 86.05C241.517 85.8833 242.15 85.8 242.65 85.8C243.617 85.8 244.333 86.05 244.8 86.55C245.3 87.05 245.55 87.75 245.55 88.65C245.55 89.05 245.5 89.4833 245.4 89.95C244.867 92.55 243.85 99.95 242.35 112.15C242.083 114.217 240.9 115.25 238.8 115.25ZM271.599 109.4C272.299 109.4 272.832 109.633 273.199 110.1C273.565 110.567 273.749 111.15 273.749 111.85C273.749 112.717 273.465 113.5 272.899 114.2C272.365 114.867 271.632 115.2 270.699 115.2C269.099 115.2 266.715 115.083 263.549 114.85C262.915 114.817 261.749 114.75 260.049 114.65C258.349 114.55 257.015 114.5 256.049 114.5C255.615 114.5 254.982 114.65 254.149 114.95C253.982 114.983 253.649 115.067 253.149 115.2C252.682 115.333 252.282 115.4 251.949 115.4C251.415 115.4 250.965 115.167 250.599 114.7C250.265 114.2 250.099 113.467 250.099 112.5C250.099 111.433 250.349 110.617 250.849 110.05C251.349 109.45 252.132 108.917 253.199 108.45C255.465 107.45 257.599 106.183 259.599 104.65C261.632 103.083 263.249 101.4 264.449 99.6C265.682 97.8 266.299 96.0833 266.299 94.45C266.299 93.15 265.999 92.2 265.399 91.6C264.832 90.9667 263.915 90.65 262.649 90.65C261.182 90.65 259.999 91.05 259.099 91.85C258.232 92.65 257.799 93.7667 257.799 95.2C257.799 97.1667 256.815 98.15 254.849 98.15C253.915 98.15 253.182 97.8833 252.649 97.35C252.149 96.8167 251.899 96.05 251.899 95.05C251.899 93.3833 252.332 91.85 253.199 90.45C254.065 89.05 255.365 87.9333 257.099 87.1C258.832 86.2333 260.949 85.8 263.449 85.8C266.449 85.8 268.799 86.55 270.499 88.05C272.199 89.55 273.049 91.6333 273.049 94.3C273.049 96.8333 271.932 99.4833 269.699 102.25C267.499 105.017 264.315 107.467 260.149 109.6L271.599 109.4Z" fill="black"/>
<path d="M92.8 115.25C91.9667 115.25 91.2333 115 90.6 114.5C89.9667 114 89.65 113.217 89.65 112.15L89.7 111.6C90.0667 108.167 90.5 104.6 91 100.9C91.5333 97.1667 91.9833 94.3 92.35 92.3L88.45 93.4L87.85 93.5C87.2167 93.5 86.7167 93.25 86.35 92.75C85.9833 92.25 85.8 91.6833 85.8 91.05L85.85 90.6C85.9167 89.9667 86.1167 89.45 86.45 89.05C86.7833 88.65 87.4167 88.25 88.35 87.85C89.3167 87.45 90.75 87.0167 92.65 86.55L94.75 86.05C95.5167 85.8833 96.15 85.8 96.65 85.8C97.6167 85.8 98.3333 86.05 98.8 86.55C99.3 87.05 99.55 87.75 99.55 88.65C99.55 89.05 99.5 89.4833 99.4 89.95C98.8667 92.55 97.85 99.95 96.35 112.15C96.0833 114.217 94.9 115.25 92.8 115.25ZM114.599 115.25C111.332 115.25 108.799 114.183 106.999 112.05C105.232 109.917 104.349 106.867 104.349 102.9C104.349 99.5333 104.865 96.5667 105.899 94C106.965 91.4 108.432 89.3833 110.299 87.95C112.199 86.5167 114.399 85.8 116.899 85.8C120.165 85.8 122.682 86.8667 124.449 89C126.249 91.1333 127.149 94.1833 127.149 98.15C127.149 101.517 126.615 104.5 125.549 107.1C124.515 109.667 123.049 111.667 121.149 113.1C119.282 114.533 117.099 115.25 114.599 115.25ZM115.099 109.65C116.899 109.65 118.315 108.65 119.349 106.65C120.382 104.65 120.899 101.933 120.899 98.5C120.899 96.2 120.515 94.45 119.749 93.25C118.982 92.0167 117.865 91.4 116.399 91.4C114.599 91.4 113.182 92.4167 112.149 94.45C111.115 96.45 110.599 99.1667 110.599 102.6C110.599 104.9 110.965 106.65 111.699 107.85C112.465 109.05 113.599 109.65 115.099 109.65Z" fill="white"/>
</svg>
