<svg width="80" height="130" viewBox="0 0 80 130" fill="none" xmlns="http://www.w3.org/2000/svg">
<path fill-rule="evenodd" clip-rule="evenodd" d="M58.6929 112.956C67.8936 105.439 75.1724 96.0555 75.1724 86.6104C75.1724 65.4819 59.127 48.9087 40 48.9087C20.873 48.9087 4.82759 65.4819 4.82759 86.6104C4.82759 96.2295 11.4872 105.639 20.1228 113.025C24.3377 116.631 28.7805 119.538 32.5866 121.52C34.4898 122.512 36.1752 123.242 37.5436 123.713C38.7226 124.118 39.4618 124.26 39.8143 124.299C39.8416 124.292 39.8729 124.284 39.9082 124.274C40.2093 124.189 40.6591 124.037 41.2615 123.796C42.4612 123.316 44.0529 122.568 45.9178 121.557C49.6438 119.539 54.2408 116.593 58.6929 112.956ZM39.664 124.334C39.6641 124.334 39.6657 124.334 39.669 124.333C39.6656 124.334 39.664 124.334 39.664 124.334ZM40 129.11C44.6888 129.11 80 110.082 80 86.6104C80 63.1383 62.0914 44.1104 40 44.1104C17.9086 44.1104 0 63.1383 0 86.6104C0 110.082 31.9302 129.11 40 129.11Z" fill="black"/>
<path d="M66.5809 95.8184C65.045 94.8997 65.2357 92.3742 61.4729 95.034C57.71 97.6937 63.264 101.942 66.5809 95.8184Z" fill="black" fill-opacity="0.2"/>
<path d="M46.6532 58.0225C45.1173 57.1038 45.308 54.5783 41.5451 57.2381C37.7823 59.8978 43.3362 64.1459 46.6532 58.0225Z" fill="black" fill-opacity="0.2"/>
<path d="M38.4962 27.4024C38.8018 25.9944 40.7924 25.9457 41.1665 27.3371L45.9206 45.0191C46.1877 46.0125 45.3088 46.9365 44.3032 46.7193L36.0958 44.9468C35.3533 44.7865 34.8817 44.0542 35.0429 43.3119L38.4962 27.4024Z" fill="black"/>
<path d="M49.9291 38.0176C50.6654 36.8129 52.5219 37.3685 52.4753 38.7797L52.1911 47.395C52.1572 48.4228 51.048 49.0506 50.1493 48.5507L46.4317 46.4823C45.7491 46.1026 45.5199 45.231 45.9273 44.5645L49.9291 38.0176Z" fill="black"/>
<path d="M29.4065 77.0876C28.0805 83.5955 23.5387 88.1648 19.262 87.2935C14.9854 86.4221 12.5934 80.44 13.9194 73.9321C15.2454 67.4242 19.7872 62.8548 24.0638 63.7262C28.3405 64.5975 30.7325 70.5796 29.4065 77.0876Z" fill="black"/>
<path d="M48.4607 77.0876C49.7867 83.5955 54.3285 88.1648 58.6052 87.2935C62.8818 86.4221 65.2738 80.44 63.9478 73.9321C62.6218 67.4242 58.08 62.8548 53.8033 63.7262C49.5267 64.5975 47.1347 70.5796 48.4607 77.0876Z" fill="black"/>
<path d="M49.2149 102.385C48.1022 106.519 45.7138 109.47 43.8802 108.977C42.0467 108.483 41.4624 104.732 42.5751 100.598C43.6878 96.4644 46.0762 93.5134 47.9097 94.0069C49.7433 94.5005 50.3276 98.2516 49.2149 102.385Z" fill="black"/>
<path d="M37.2325 102.437C38.0934 105.689 37.1165 108.769 35.0503 109.316C32.9842 109.863 30.6113 107.67 29.7503 104.418C28.8894 101.166 29.8663 98.0868 31.9325 97.5398C33.9986 96.9927 36.3715 99.1854 37.2325 102.437Z" fill="black"/>
<path d="M20.5403 0.243751C22.0524 0.378485 23.1689 1.7135 23.0342 3.2256C22.8995 4.7377 21.5644 5.85428 20.0523 5.71954C18.5403 5.58481 17.4237 4.24979 17.5584 2.73769C17.6931 1.22559 19.0282 0.109018 20.5403 0.243751Z" fill="white"/>
<path d="M20.0535 0.243751C18.5414 0.378485 17.4248 1.7135 17.5595 3.2256C17.6943 4.7377 19.0293 5.85428 20.5414 5.71954C22.0535 5.58481 23.1701 4.24979 23.0353 2.73769C22.9006 1.22559 21.5656 0.109018 20.0535 0.243751Z" fill="white"/>
<path d="M19.91 71.9512C21.2741 72.0728 22.2814 73.2771 22.1598 74.6412C22.0383 76.0052 20.8339 77.0125 19.4699 76.891C18.1058 76.7694 17.0985 75.5651 17.2201 74.201C17.3416 72.837 18.5459 71.8297 19.91 71.9512Z" fill="white"/>
<path d="M57.5305 0.243751C59.0426 0.378485 60.1592 1.7135 60.0244 3.2256C59.8897 4.7377 58.5547 5.85428 57.0426 5.71954C55.5305 5.58481 54.4139 4.24979 54.5486 2.73769C54.6834 1.22559 56.0184 0.109018 57.5305 0.243751Z" fill="white"/>
<path d="M59.963 71.9512C58.599 72.0728 57.5917 73.2771 57.7132 74.6412C57.8348 76.0052 59.0391 77.0125 60.4032 76.891C61.7672 76.7694 62.7745 75.5651 62.653 74.201C62.5314 72.837 61.3271 71.8297 59.963 71.9512Z" fill="white"/>
<path fill-rule="evenodd" clip-rule="evenodd" d="M31.6431 117.587C31.6431 117.587 31.6704 117.597 31.7186 117.606L32.223 114.904C32.5122 114.958 32.7664 115.072 32.9447 115.162C33.1361 115.259 33.331 115.375 33.5133 115.489C33.6702 115.587 33.8402 115.697 34.0099 115.807C34.0385 115.825 34.0671 115.844 34.0956 115.862C34.2982 115.994 34.5082 116.129 34.7308 116.266C35.6258 116.818 36.6676 117.366 37.8493 117.627C39.005 117.883 40.3241 117.869 41.8118 117.247C43.319 116.616 45.0851 115.322 47.0465 112.87L49.1929 114.588C47.0311 117.29 44.9171 118.926 42.8733 119.782C40.81 120.646 38.9073 120.676 37.2566 120.311C35.6319 119.953 34.2826 119.219 33.2882 118.606C33.0384 118.452 32.8074 118.303 32.6017 118.17C32.571 118.15 32.541 118.13 32.5117 118.111C32.3405 118.001 32.1936 117.905 32.0585 117.821C31.8992 117.722 31.7866 117.657 31.7058 117.616C31.6627 117.594 31.6431 117.587 31.6431 117.587Z" fill="black"/>
</svg>
