<svg width="173" height="61" viewBox="0 0 173 61" fill="none" xmlns="http://www.w3.org/2000/svg">
<path d="M61.5488 43.5127C60.8848 43.5127 60.3232 43.4053 59.8643 43.1904C59.415 42.9756 59.0732 42.6777 58.8389 42.2969C58.6143 41.9258 58.502 41.5059 58.502 41.0371C58.502 40.5391 58.6094 40.041 58.8242 39.543C59.127 39.9336 59.4395 40.2119 59.7617 40.3779C60.0938 40.5439 60.4502 40.627 60.8311 40.627C61.3584 40.627 61.8125 40.4707 62.1934 40.1582C62.5742 39.8359 62.8916 39.4014 63.1455 38.8545C63.3701 38.3662 63.5361 37.8193 63.6436 37.2139C63.751 36.5986 63.8047 35.9883 63.8047 35.3828C63.8047 34.2305 63.6045 33.3564 63.2041 32.7607C62.7256 32.0479 61.9736 31.6914 60.9482 31.6914C60.3916 31.6914 59.9131 31.7891 59.5127 31.9844L57.1396 43H52.8184L57.1396 22.9609C56.5244 22.9805 55.9824 23.0977 55.5137 23.3125C55.0547 23.5176 54.6592 23.8447 54.3271 24.2939C53.6045 25.2803 53.2432 26.9062 53.2432 29.1719C53.2432 29.8164 53.3164 30.3145 53.4629 30.666C53.502 30.793 53.5508 30.9053 53.6094 31.0029C53.6484 31.0713 53.668 31.1396 53.668 31.208C52.5938 31.208 51.7979 30.9932 51.2803 30.5635C50.7334 30.1045 50.46 29.3477 50.46 28.293C50.46 27.2578 50.6504 26.2764 51.0312 25.3486C51.4219 24.4209 52.0127 23.6055 52.8037 22.9023C53.6533 22.1406 54.7324 21.5498 56.041 21.1299C57.3496 20.71 58.8975 20.5 60.6846 20.5C61.0361 20.5 61.4121 20.5195 61.8125 20.5586L62.5303 20.6172C63.917 20.7344 64.708 20.7979 64.9033 20.8076C65.4111 20.8467 65.9629 20.8662 66.5586 20.8662C67.6035 20.8662 68.5068 20.7441 69.2686 20.5C69.249 20.5879 69.21 20.7881 69.1514 21.1006C69.1025 21.4131 69.0342 21.7158 68.9463 22.0088C68.8682 22.292 68.7705 22.5459 68.6533 22.7705C68.2041 23.6592 67.457 24.1035 66.4121 24.1035C64.9277 24.1035 63.2383 23.9033 61.3438 23.5029L59.8496 30.4609C60.4551 30.2754 60.9922 30.1387 61.4609 30.0508C61.9297 29.9629 62.4082 29.9189 62.8965 29.9189C64.5762 29.9189 65.8604 30.4414 66.749 31.4863C67.1592 31.9844 67.4668 32.5703 67.6719 33.2441C67.877 33.918 67.9795 34.6602 67.9795 35.4707C67.9795 35.9883 67.9258 36.5449 67.8184 37.1406C67.7109 37.7266 67.5498 38.3076 67.335 38.8838C67.1104 39.499 66.8223 40.085 66.4707 40.6416C66.1191 41.1885 65.7139 41.6719 65.2549 42.0918C64.21 43.0391 62.9746 43.5127 61.5488 43.5127Z" fill="#0E4F2D"/>
<path d="M74.1025 50.5C73.6338 50.5 73.1943 50.4365 72.7842 50.3096C72.3838 50.1924 72.0371 50.0117 71.7441 49.7676C71.4316 49.5234 71.1875 49.2158 71.0117 48.8447C70.8359 48.4834 70.748 48.0635 70.748 47.585C70.748 46.4521 71.2803 45.4805 72.3447 44.6699C73.1455 44.0742 74.2441 43.5566 75.6406 43.1172L76.0068 41.5059C75.4209 42.1504 74.7861 42.6045 74.1025 42.8682C73.5752 43.0732 73.0088 43.1758 72.4033 43.1758C71.4463 43.1758 70.6895 42.8926 70.1328 42.3262C69.5078 41.7012 69.1953 40.7881 69.1953 39.5869C69.1953 39.0205 69.2734 38.3662 69.4297 37.624L71.4658 28H75.7871L73.6338 38.1953C73.5752 38.4395 73.5459 38.6934 73.5459 38.957C73.5459 39.3379 73.6094 39.6406 73.7363 39.8652C73.8828 40.1387 74.1172 40.2754 74.4395 40.2754C74.9668 40.2754 75.4404 40.041 75.8604 39.5723C76.2217 39.1719 76.5293 38.5859 76.7832 37.8145L78.8779 28H83.1992L80.2256 41.916C81.1729 41.6035 81.9297 41.1348 82.4961 40.5098C83.1113 39.8359 83.6143 38.874 84.0049 37.624H85.2646C84.7275 39.4014 83.9268 40.7734 82.8623 41.7402C82.0811 42.4434 81.1143 42.9414 79.9619 43.2344L79.5078 45.4023C79.127 47.3164 78.3652 48.7031 77.2227 49.5625C76.3926 50.1875 75.3525 50.5 74.1025 50.5ZM73.4141 48.1562C73.7168 48.1562 74.0391 47.9365 74.3809 47.4971C74.7129 47.0674 74.9717 46.3984 75.1572 45.4902L75.333 44.626C74.4248 44.9678 73.7461 45.3145 73.2969 45.666C72.7012 46.1152 72.4033 46.6182 72.4033 47.1748C72.4033 47.4385 72.4863 47.6582 72.6523 47.834C72.8379 48.0488 73.0918 48.1562 73.4141 48.1562Z" fill="#50AF1A"/>
<path d="M94.8447 43.1758C93.6533 43.1758 92.75 42.8828 92.1348 42.2969C91.5293 41.7109 91.2266 40.8955 91.2266 39.8506C91.2266 39.5088 91.2852 38.9961 91.4023 38.3125C91.4219 38.1562 91.4414 38.0488 91.4609 37.9902C91.4805 37.7949 91.5 37.6631 91.5195 37.5947C91.5586 37.3994 91.5781 37.1992 91.5781 36.9941C91.5781 36.0371 91.1973 35.5586 90.4355 35.5586C90.1816 35.5586 89.9082 35.6465 89.6152 35.8223L89.1318 36.1738L88.5166 36.6719L87.1982 43H82.877L86.085 28H90.4062L89.1172 33.9473C89.7617 33.3027 90.3867 32.6533 90.9922 31.999L91.2119 31.75C92.374 30.5 93.165 29.665 93.585 29.2451C94.2783 28.5518 94.9326 28.1025 95.5479 27.8975C95.8896 27.79 96.2461 27.7363 96.6172 27.7363C97.291 27.7363 97.8037 27.9219 98.1553 28.293C98.5068 28.6543 98.6826 29.1279 98.6826 29.7139C98.6826 30.3291 98.5166 30.8076 98.1846 31.1494C97.8623 31.4912 97.3984 31.6621 96.793 31.6621C96.2363 31.6621 95.8115 31.4912 95.5186 31.1494C95.2549 30.8564 95.1328 30.5146 95.1523 30.124C94.8398 30.3096 94.542 30.5293 94.2588 30.7832C93.9854 31.0273 93.6826 31.3203 93.3506 31.6621L93.0576 31.9844C92.9209 32.1211 92.7354 32.3262 92.501 32.5996C92.2568 32.8828 91.959 33.2002 91.6074 33.5518C91.9492 33.4736 92.3691 33.4346 92.8672 33.4346C93.9023 33.4346 94.6494 33.6738 95.1084 34.1523C95.5186 34.5723 95.7236 35.2607 95.7236 36.2178C95.7236 36.54 95.665 37.0137 95.5479 37.6387C95.499 37.8828 95.4551 38.1416 95.416 38.415C95.377 38.6787 95.3574 38.9277 95.3574 39.1621C95.3574 39.9043 95.7578 40.2754 96.5586 40.2754C96.8613 40.2754 97.1201 40.2266 97.335 40.1289C97.5596 40.0215 97.7646 39.8555 97.9502 39.6309C98.126 39.4258 98.2969 39.167 98.4629 38.8545C98.6289 38.542 98.8242 38.1318 99.0488 37.624H100.309C99.0488 41.3252 97.2275 43.1758 94.8447 43.1758Z" fill="#156D38"/>
<path d="M102.022 43.1758C101.065 43.1758 100.309 42.8926 99.752 42.3262C99.127 41.7012 98.8145 40.7881 98.8145 39.5869C98.8145 39.0205 98.8926 38.3662 99.0488 37.624L101.085 28H105.406L103.253 38.1953C103.194 38.498 103.165 38.7812 103.165 39.0449C103.165 39.8652 103.463 40.2754 104.059 40.2754C104.605 40.2754 105.099 40.0264 105.538 39.5283C105.89 39.1084 106.197 38.4736 106.461 37.624L108.497 28H112.818L110.665 38.1953C110.577 38.4883 110.533 38.8105 110.533 39.1621C110.533 39.5723 110.631 39.8604 110.826 40.0264C111.021 40.1924 111.334 40.2754 111.764 40.2754C112.32 40.2754 112.818 40.0264 113.258 39.5283C113.648 39.0889 113.961 38.4541 114.195 37.624H115.455C114.918 39.1475 114.269 40.3535 113.507 41.2422C112.862 41.9746 112.135 42.502 111.324 42.8242C110.729 43.0586 110.099 43.1758 109.435 43.1758C108.575 43.1758 107.892 42.9365 107.384 42.458C106.876 41.9795 106.568 41.2715 106.461 40.334C105.777 41.4277 105.006 42.209 104.146 42.6777C103.531 43.0098 102.823 43.1758 102.022 43.1758Z" fill="#0C3976"/>
<path d="M119.234 50.5C118.287 50.5 117.501 50.2559 116.876 49.7676C116.563 49.5234 116.319 49.2158 116.144 48.8447C115.968 48.4834 115.88 48.0635 115.88 47.585C115.88 46.4912 116.383 45.5391 117.389 44.7285C118.16 44.123 119.225 43.6055 120.582 43.1758C120.523 41.0566 119.806 39.9971 118.429 39.9971H117.491L117.887 38.1953H118.751C119.278 38.1953 119.771 38.0635 120.23 37.7998C120.689 37.5361 121.085 37.165 121.417 36.6865C121.739 36.208 121.988 35.6562 122.164 35.0312C122.35 34.4062 122.442 33.7422 122.442 33.0391C122.442 32.3066 122.33 31.7305 122.105 31.3105C121.803 30.7441 121.305 30.4609 120.611 30.4609C119.508 30.4609 118.551 31.0078 117.74 32.1016C116.852 33.293 116.09 35.1338 115.455 37.624H114.195C114.479 36.5205 114.732 35.5879 114.957 34.8262C115.182 34.0547 115.431 33.3369 115.704 32.6729C116.339 31.0908 117.13 29.8994 118.077 29.0986C119.171 28.1904 120.558 27.7363 122.237 27.7363C122.95 27.7363 123.6 27.8438 124.186 28.0586C124.771 28.2637 125.27 28.5664 125.68 28.9668C126.539 29.8262 126.969 31.0029 126.969 32.4971C126.969 33.6787 126.656 34.8164 126.031 35.9102C125.533 36.7891 124.879 37.5459 124.068 38.1807C123.727 38.4443 123.399 38.6592 123.087 38.8252C122.784 38.9912 122.53 39.0938 122.325 39.1328C122.813 39.2988 123.292 39.6406 123.761 40.1582C124.269 40.7344 124.61 41.3936 124.786 42.1357C125.343 41.9795 125.831 41.7891 126.251 41.5645C126.681 41.3398 127.066 41.0615 127.408 40.7295C127.76 40.3877 128.072 39.9678 128.346 39.4697C128.629 38.9619 128.893 38.3467 129.137 37.624H130.396C129.869 39.4307 129.039 40.832 127.906 41.8281C127.086 42.541 126.085 43.0439 124.903 43.3369C124.884 44.46 124.732 45.4658 124.449 46.3545C124.176 47.2432 123.79 47.9951 123.292 48.6104C122.794 49.2256 122.198 49.6943 121.505 50.0166C120.821 50.3389 120.064 50.5 119.234 50.5ZM118.546 48.1562C118.751 48.1562 118.961 48.0635 119.176 47.8779C119.391 47.6924 119.586 47.4336 119.762 47.1016C120.123 46.4277 120.367 45.6025 120.494 44.626C119.566 44.958 118.878 45.2949 118.429 45.6367C117.823 46.1152 117.521 46.6279 117.521 47.1748C117.521 47.4678 117.608 47.7021 117.784 47.8779C117.96 48.0635 118.214 48.1562 118.546 48.1562Z" fill="#5F789A"/>
<path d="M132.74 43.1758C131.598 43.1758 130.675 42.8193 129.972 42.1064C129.151 41.2666 128.741 40.0166 128.741 38.3564C128.741 37.6533 128.814 36.9111 128.961 36.1299C129.098 35.3486 129.303 34.5771 129.576 33.8154C130.201 32.0967 131.056 30.71 132.14 29.6553C133.39 28.4541 134.83 27.8535 136.461 27.8535C137.271 27.8535 137.877 27.9951 138.277 28.2783C138.688 28.5518 138.893 28.918 138.893 29.377V29.5967L139.215 28H143.536L141.383 38.1953C141.295 38.4883 141.251 38.8105 141.251 39.1621C141.251 40.0215 141.661 40.4512 142.481 40.4512C143.028 40.4512 143.526 40.1729 143.976 39.6162C144.356 39.1475 144.669 38.4834 144.913 37.624H146.173C145.636 39.1475 144.986 40.3535 144.225 41.2422C143.58 41.9746 142.853 42.502 142.042 42.8242C141.446 43.0586 140.816 43.1758 140.152 43.1758C139.303 43.1758 138.624 42.9463 138.116 42.4873C137.618 42.0186 137.315 41.3301 137.208 40.4219C136.642 41.2227 136.046 41.8477 135.421 42.2969C134.62 42.8828 133.727 43.1758 132.74 43.1758ZM134.688 40.2754C134.913 40.2754 135.147 40.2168 135.392 40.0996C135.646 39.9824 135.89 39.8164 136.124 39.6016C136.651 39.0938 137.003 38.4346 137.179 37.624L138.614 30.8564C138.614 30.7588 138.59 30.6465 138.541 30.5195C138.502 30.3828 138.443 30.2559 138.365 30.1387C138.131 29.8555 137.804 29.7139 137.384 29.7139C136.983 29.7139 136.593 29.8457 136.212 30.1094C135.841 30.373 135.489 30.7393 135.157 31.208C134.571 32.0576 134.088 33.166 133.707 34.5332C133.531 35.1387 133.399 35.7393 133.312 36.335C133.224 36.9209 133.18 37.4531 133.18 37.9316C133.18 38.9277 133.365 39.6016 133.736 39.9531C133.863 40.0898 134.005 40.1777 134.161 40.2168C134.317 40.2559 134.493 40.2754 134.688 40.2754Z" fill="#5F91D6"/>
<path d="M149.483 43.1172C147.843 43.1172 146.583 42.6094 145.704 41.5938C144.903 40.666 144.503 39.377 144.503 37.7266C144.503 37.1895 144.566 36.5303 144.693 35.749C144.811 34.958 144.981 34.1084 145.206 33.2002C145.694 31.2471 146.344 29.3379 147.154 27.4727C148.053 25.4219 149.039 23.7812 150.113 22.5508C151.324 21.1641 152.555 20.4707 153.805 20.4707C154.85 20.4707 155.65 20.7832 156.207 21.4082C156.803 22.0918 157.101 23.1514 157.101 24.5869C157.101 25.7197 156.822 27.0039 156.266 28.4395C155.846 29.5234 155.309 30.6367 154.654 31.7793C155.074 31.9844 155.45 32.2822 155.782 32.6729C156.651 32.6729 157.638 32.4678 158.741 32.0576C159.728 31.7061 160.572 31.2812 161.275 30.7832L161.554 31.6035C160.997 32.1895 160.279 32.6973 159.4 33.127C158.521 33.5469 157.545 33.8496 156.471 34.0352C156.578 34.4062 156.632 34.9043 156.632 35.5293C156.632 36.5254 156.471 37.4775 156.148 38.3857C155.826 39.2939 155.357 40.0996 154.742 40.8027C154.107 41.5352 153.341 42.1064 152.442 42.5166C151.554 42.917 150.567 43.1172 149.483 43.1172ZM150.802 40.4219C151.271 40.4219 151.7 40.2998 152.091 40.0557C152.481 39.8115 152.813 39.4746 153.087 39.0449C153.351 38.6445 153.551 38.2002 153.688 37.7119C153.824 37.2139 153.893 36.7158 153.893 36.2178C153.893 35.4756 153.805 34.9287 153.629 34.5771C153.434 34.6455 153.268 34.6943 153.131 34.7236C153.004 34.7432 152.809 34.7529 152.545 34.7529C152.066 34.7529 151.686 34.6211 151.402 34.3574C151.129 34.0938 150.992 33.7324 150.992 33.2734C150.992 32.6777 151.192 32.2285 151.593 31.9258C151.915 31.6816 152.413 31.5352 153.087 31.4863C153.624 30.5195 154.107 29.3818 154.537 28.0732C154.967 26.7354 155.182 25.5293 155.182 24.4551C155.182 23.8496 155.104 23.4248 154.947 23.1807C154.801 22.9365 154.552 22.8145 154.2 22.8145C153.888 22.8145 153.57 22.9805 153.248 23.3125C152.926 23.6445 152.608 24.1084 152.296 24.7041C151.729 25.8076 151.173 27.2773 150.626 29.1133C150.157 30.666 149.757 32.3359 149.425 34.123C149.122 35.7246 148.971 36.9551 148.971 37.8145C148.971 38.625 149.112 39.25 149.396 39.6895C149.698 40.1777 150.167 40.4219 150.802 40.4219Z" fill="#4F73A5"/>
<path d="M160.689 26.8867H165.011L164.527 29.1426C165.543 28.2832 166.71 27.8535 168.028 27.8535C169.151 27.8535 170.021 28.1953 170.636 28.8789C171.339 29.6797 171.69 30.915 171.69 32.585C171.69 34.1963 171.485 35.71 171.075 37.126C170.558 38.9326 169.806 40.334 168.819 41.3301C167.608 42.5605 166.104 43.1758 164.308 43.1758C163.614 43.1758 163.043 43.0684 162.594 42.8535C162.252 42.6973 161.974 42.4482 161.759 42.1064L160.206 49.416L155.68 50.5L160.689 26.8867ZM163.385 40.5684C164.352 40.5684 165.182 40.0752 165.875 39.0889C166.422 38.3174 166.861 37.2334 167.193 35.8369C167.457 34.7139 167.589 33.6006 167.589 32.4971C167.589 31.5107 167.408 30.8076 167.047 30.3877C166.812 30.1338 166.49 30.0068 166.08 30.0068C165.719 30.0068 165.353 30.1338 164.981 30.3877C164.61 30.6416 164.288 31.0078 164.015 31.4863L162.242 39.8799C162.311 40.0752 162.438 40.2412 162.623 40.3779C162.818 40.5049 163.072 40.5684 163.385 40.5684Z" fill="#607EA6"/>
<path d="M9.1983 34.0476C11.8701 30.8414 15.6551 30.9305 17.2136 31.3758L16.1449 35.1163C12.7161 36.0959 6.52653 37.2537 9.1983 34.0476Z" fill="#0F5A33"/>
<path d="M8.53042 34.7155H7.32812L9.46554 32.8452L9.06478 33.5132L9.46554 35.6506L11.7365 36.3185H9.73272L9.06478 37.2536V36.0513L7.72889 36.3185L8.53042 34.7155Z" fill="black" stroke="black" stroke-width="0.5"/>
<path d="M16.813 31.242C14.972 30.4763 10.3762 31.901 9.33273 33.9137C7.46295 37.5205 13.6063 35.784 15.4768 35.3831" stroke="black"/>
<path d="M13.339 57.7231C10.9829 55.4848 12.1173 49.6228 13.6735 47.8455L19.1572 49.5344C19.8856 54.6507 16.0109 60.2614 13.339 57.7231Z" fill="#0F5A33"/>
<path d="M13.4943 48.3181C11.3096 50.387 12.0816 59.0682 15.7449 57.7232C18.0712 56.8692 18.9027 52.583 19.2738 50.3484" stroke="black"/>
<path d="M1.00318 24.4598C1.00318 24.4598 0.33514 13.9063 18.3696 9.23072C32.7971 5.49024 34.9367 22.2333 32.0423 28.8682C30.2166 34.1227 27.6662 49.7439 32.8439 49.0401C38.0216 48.3363 37.7867 51.1904 35.7828 51.979C-2.61164 67.0903 11.8203 29.3377 15.6568 28.8723C8.82571 29.1663 6.60441 24.4598 1.00318 24.4598Z" fill="#2E8B5A"/>
<path d="M23.2255 27.6659C22.0121 27.8256 17.2518 28.7943 15.7446 28.8682M15.7446 28.8682C8.84462 29.2066 6.62833 24.4598 1.00318 24.4598C1.00318 24.4598 0.33514 13.9063 18.3696 9.23072C32.7971 5.49024 34.9367 22.2333 32.0423 28.8682C30.2166 34.1227 27.6662 49.7439 32.8439 49.0401C38.0216 48.3363 37.7867 51.1904 35.7828 51.979C-2.91106 67.2081 12.0486 28.7457 15.7446 28.8682Z" stroke="black"/>
<path d="M17.2143 10.4329C2.11853 14.5913 1.45508 23.7035 1.45508 23.7035C7.7293 22.1889 7.46212 32.3417 28.8363 25.2615C29.3706 13.7732 28.7027 7.26826 17.2143 10.4329Z" fill="#329B64"/>
<path d="M10.1349 41.559C15.4784 41.1137 27.1005 54.7957 23.6276 55.1851C9.33363 56.7878 8.93207 46.7689 10.1349 41.559Z" fill="#F4F839" stroke="black"/>
<path d="M10.8283 42.502C14.456 42.1919 22.3463 51.7222 19.9885 51.9935C10.2843 53.1099 10.0117 46.1311 10.8283 42.502Z" fill="#FFC737"/>
<path d="M21.1914 25.0016C21.0488 24.2473 20.8698 27.6671 19.0147 28.4371C17.9755 28.5272 17.3778 28.516 18.0059 28.5769C18.3881 28.614 18.7223 28.5585 19.0147 28.4371C20.0461 28.3477 21.5123 28.1586 22.6467 27.7001L21.1914 25.0016Z" fill="#FF0000"/>
<path d="M21.1914 25.0016C21.0263 24.1283 20.8124 28.8493 18.0059 28.5769C16.7545 28.4555 20.3693 28.6205 22.6467 27.7001L21.1914 25.0016Z" stroke="black" stroke-width="0.5"/>
<circle cx="20.8206" cy="16.1775" r="3.07254" fill="black"/>
<ellipse cx="7.75231" cy="17.8856" rx="3.07254" ry="0.801531" transform="rotate(-41.7296 7.75231 17.8856)" fill="black"/>
<circle cx="21.4886" cy="14.4408" r="1.06871" fill="white"/>
<circle cx="22.8254" cy="15.7765" r="0.534354" fill="white"/>
<path d="M34.5112 12.0706C35.1712 12.1903 35.5286 12.913 35.223 13.5102L33.5589 16.7618C33.1845 17.4934 32.1365 17.4861 31.7723 16.7495L29.8423 12.8463C29.478 12.1096 30.1085 11.2725 30.917 11.4191L34.5112 12.0706Z" fill="black"/>
<path d="M28.3306 3.10788C28.9763 2.53796 29.9924 2.99639 29.9924 3.8576L29.9923 10.6759C29.9923 11.4521 29.1465 11.9324 28.4799 11.5346L23.871 8.78464C23.2893 8.43751 23.2138 7.62452 23.7217 7.17618L28.3306 3.10788Z" fill="black"/>
<path d="M12.0081 45.7667C11.8768 45.1216 12.5509 44.6117 13.1359 44.9135V44.9135C13.6488 45.1781 13.7097 45.8875 13.2494 46.2356V46.2356C12.7892 46.5838 12.1232 46.3322 12.0081 45.7667V45.7667Z" fill="black"/>
<path d="M12.8089 48.7056C12.6776 48.0606 13.3517 47.5507 13.9367 47.8525V47.8525C14.4496 48.1171 14.5105 48.8264 14.0502 49.1746V49.1746C13.5899 49.5228 12.924 49.2712 12.8089 48.7056V48.7056Z" fill="black"/>
<path d="M14.9475 47.6368C14.8163 46.9917 15.4903 46.4818 16.0754 46.7837V46.7837C16.5882 47.0483 16.6492 47.7576 16.1889 48.1058V48.1058C15.7286 48.4539 15.0626 48.2023 14.9475 47.6368V47.6368Z" fill="black"/>
<path d="M33.4787 35.3004C33.9502 35.7776 33.8274 36.5744 33.2342 36.8876L31.0385 38.0467C30.3117 38.4304 29.4582 37.8223 29.5833 37.0101L30.0339 34.0848C30.159 33.2726 31.156 32.9496 31.7336 33.5342L33.4787 35.3004Z" fill="black"/>
<path d="M36.7429 28.7125C37.1389 29.2539 36.9 30.024 36.2671 30.2463L32.8208 31.4568C32.0455 31.7291 31.2908 31.0019 31.5343 30.217L32.8243 26.0582C33.0678 25.2733 34.1015 25.1008 34.5866 25.7641L36.7429 28.7125Z" fill="black"/>
<path d="M37.2918 19.6278C37.8656 19.9752 37.9414 20.7779 37.4427 21.2266L34.7274 23.6698C34.1165 24.2194 33.1402 23.8385 33.0629 23.0204L32.6537 18.6853C32.5764 17.8672 33.4642 17.3103 34.1672 17.7359L37.2918 19.6278Z" fill="black"/>
<path d="M25.5007 40.7399C23.8801 40.7694 22.817 38.7368 21.1986 42.5837C19.5802 46.4306 25.8842 47.0356 25.5007 40.7399Z" fill="#0F5A33" fill-opacity="0.2"/>
<path d="M27.3487 33.1252C26.7405 33.4631 25.9277 32.9071 26.0899 34.6913C26.2521 36.4756 28.7633 35.4339 27.3487 33.1252Z" fill="#0F5A33" fill-opacity="0.2"/>
<path d="M26.1785 29.3881C25.5814 29.0309 25.6555 28.049 24.1925 29.0831C22.7296 30.1172 24.8889 31.7688 26.1785 29.3881Z" fill="#0F5A33" fill-opacity="0.2"/>
<path d="M12.4778 40.7212C13.0886 40.3879 13.8971 40.95 13.7483 39.1646C13.5995 37.3792 11.0806 38.402 12.4778 40.7212Z" fill="#0F5A33" fill-opacity="0.2"/>
<path d="M27.5965 21.4017C26.9994 21.0445 27.0735 20.0626 25.6105 21.0967C24.1475 22.1309 26.3069 23.7825 27.5965 21.4017Z" fill="#0F5A33" fill-opacity="0.2"/>
<path d="M25.8986 58.3914C28.4366 54.651 27.9022 50.83 29.6388 48.6395L21.0209 49.7887C20.1719 53.8352 23.1009 62.5147 25.8986 58.3914Z" fill="#0F5A33"/>
<path d="M29.6371 49.8415C26.9622 52.0304 29.0249 57.9405 24.5 58.9996C22.8801 59.3788 20.4791 52.8042 20.7367 50.5536" stroke="black"/>
<path d="M15.987 31.9084L17.5826 32.4483L11.1725 32.4595L9.1543 30.3379L10.0009 30.3378L11.6039 31.6737L15.987 31.9084Z" fill="white" stroke="black" stroke-width="0.5"/>
<path d="M8.47855 37.5772L8.932 31.0062L11.7373 33.1437L17.1025 32.8588L16.4465 39.981L10.5354 40.1731L8.47855 37.5772Z" fill="#C4C4C4" stroke="black"/>
<path d="M10.9347 39.2883L11.4691 33.9448L16.1446 33.8112L15.4768 39.1547L10.9347 39.2883Z" fill="#2E8B5A"/>
<path d="M9.3332 37.2846L9.60041 32.6089L11.3372 33.9448L10.8027 39.1548L9.3332 37.2846Z" fill="#1B633D"/>
<path d="M13.0479 38.3856C12.7963 38.3945 12.6027 38.3402 12.4672 38.2226C12.3316 38.1033 12.2598 37.9312 12.2518 37.7066C12.2476 37.5862 12.2564 37.4806 12.2784 37.3898L12.7707 34.6029L13.5837 34.4634L13.3635 35.7156C13.4673 35.6471 13.5556 35.6008 13.6285 35.5766C13.6819 35.5586 13.7427 35.5483 13.811 35.5459C14.0177 35.5385 14.1774 35.6022 14.2901 35.7367C14.4161 35.8888 14.485 36.132 14.4968 36.4663C14.5009 36.5813 14.4946 36.7066 14.4778 36.8422C14.4609 36.976 14.4324 37.1092 14.3921 37.242C14.2954 37.5604 14.148 37.8175 13.9498 38.0135C13.7098 38.2487 13.4091 38.3728 13.0479 38.3856ZM13.339 37.8408C13.4504 37.8369 13.5574 37.7584 13.66 37.6054C13.7487 37.4691 13.8198 37.292 13.8733 37.0742C13.9233 36.86 13.9449 36.6568 13.938 36.4645C13.9327 36.3154 13.905 36.194 13.8549 36.1004C13.8279 36.0491 13.795 36.0098 13.7563 35.9824C13.7175 35.955 13.6739 35.9421 13.6254 35.9439C13.5625 35.9461 13.5061 35.9544 13.4562 35.9687C13.3814 35.9912 13.3302 36.02 13.3027 36.0552L13.0504 37.4677C13.0413 37.513 13.0374 37.5555 13.0388 37.595C13.0448 37.7658 13.1449 37.8477 13.339 37.8408Z" fill="white"/>
<path d="M11.4707 32.876L10.8027 39.8226" stroke="black"/>
<path d="M15.7432 36.0817C18.415 32.8756 22.2 32.9647 23.7585 33.41L22.6898 37.1504C19.2611 38.1301 13.0715 39.2879 15.7432 36.0817Z" fill="#0F5A33"/>
<path d="M15.2023 36.8702H14L16.1374 35L15.7367 35.6679L16.1374 37.8054L18.4084 38.4733H16.4046L15.7367 39.4084V38.2061L14.4008 38.4733L15.2023 36.8702Z" fill="black" stroke="black" stroke-width="0.2"/>
<path d="M23.358 33.2767C21.5169 32.511 16.9211 33.9356 15.8777 35.9484C14.0079 39.5552 20.1512 37.8187 22.0217 37.4178" stroke="black"/>
</svg>
