<svg width="1200" height="513" viewBox="0 0 1200 513" fill="none" xmlns="http://www.w3.org/2000/svg">
<rect width="1200" height="513" fill="#FBFBFB"/>
<rect x="990.549" y="216.275" width="83.8273" height="83.8273" rx="10" transform="rotate(135 990.549 216.275)" fill="#A69883" fill-opacity="0.8"/>
<rect x="985" y="256" width="186.676" height="186.676" rx="10" transform="rotate(135 985 256)" fill="#E3E3E3"/>
<rect x="893" y="265" width="144.25" height="144.25" rx="10" transform="rotate(135 893 265)" fill="#E3E3E3"/>
<rect x="851.551" y="188.275" width="85.2416" height="85.2416" rx="10" transform="rotate(135 851.551 188.275)" fill="#53214E"/>
<rect x="838.451" y="187.725" width="75.9788" height="75.9788" rx="10" transform="rotate(135 838.451 187.725)" fill="#FF0099"/>
<rect x="988" y="201.5" width="79.9032" height="79.9032" rx="10" transform="rotate(135 988 201.5)" fill="#232323" fill-opacity="0.8"/>
<path fill-rule="evenodd" clip-rule="evenodd" d="M922.233 208.544C920.986 209.589 919.08 208.786 918.955 207.164L917.287 185.509C917.182 184.141 918.454 183.075 919.782 183.419L940.81 188.858C942.385 189.265 942.84 191.283 941.593 192.327L938.491 194.926C937.744 195.551 937.557 196.623 938.046 197.464L946.016 211.169C946.505 212.011 946.317 213.083 945.571 213.708L935.95 221.767C934.959 222.597 933.451 222.282 932.875 221.124L926.46 208.222C925.884 207.064 924.376 206.749 923.385 207.579L922.233 208.544Z" fill="white"/>
<rect x="917" y="280.625" width="81.4938" height="81.4938" rx="10" transform="rotate(135 917 280.625)" fill="#FFB13C" fill-opacity="0.8"/>
<rect x="908.002" y="279.375" width="78.4898" height="78.4898" rx="10" transform="rotate(135 908.002 279.375)" fill="#642562"/>
<path fill-rule="evenodd" clip-rule="evenodd" d="M860.196 286.616C861.43 287.675 863.346 286.895 863.49 285.275L865.227 265.715C865.349 264.348 864.089 263.268 862.757 263.596L843.689 268.29C842.11 268.678 841.63 270.69 842.865 271.75L845.402 273.925C846.141 274.559 846.316 275.633 845.817 276.469L838.409 288.87C837.91 289.705 838.085 290.779 838.824 291.413L847.416 298.784C848.398 299.626 849.909 299.328 850.499 298.177L856.414 286.623C857.004 285.471 858.515 285.174 859.497 286.016L860.196 286.616Z" fill="white"/>
<path fill-rule="evenodd" clip-rule="evenodd" d="M794.596 190.05C796.167 190.471 797.557 188.94 796.986 187.416L789.719 168.028C789.237 166.743 787.634 166.314 786.575 167.186L770.587 180.343C769.331 181.377 769.769 183.398 771.341 183.819L774.918 184.778C775.858 185.03 776.481 185.922 776.392 186.892L775.01 201.996C774.921 202.966 775.544 203.858 776.484 204.11L788.028 207.203C789.278 207.538 790.512 206.617 790.545 205.323L790.901 191.615C790.935 190.321 792.169 189.4 793.418 189.735L794.596 190.05Z" fill="white"/>
<rect x="789" y="282.275" width="82.4131" height="82.4131" rx="10" transform="rotate(135 789 282.275)" fill="#4C9B67"/>
<rect x="776" y="283.275" width="79.196" height="79.196" rx="10" transform="rotate(135 776 283.275)" fill="#2E7345"/>
<path fill-rule="evenodd" clip-rule="evenodd" d="M720.892 290.972C720.233 292.46 718.168 292.58 717.341 291.179L706.928 273.538C706.231 272.356 706.903 270.839 708.247 270.562L728.31 266.427C729.903 266.099 731.201 267.709 730.542 269.196L729.072 272.514C728.677 273.404 728.981 274.449 729.791 274.989L742.289 283.316C743.099 283.855 743.403 284.9 743.009 285.79L738.22 296.597C737.695 297.78 736.203 298.162 735.176 297.376L724.404 289.136C723.377 288.35 721.885 288.732 721.361 289.914L720.892 290.972Z" fill="white"/>
<path d="M157.07 16C112.127 46.2961 67.7443 95.3867 124.127 127.387" stroke="#716B6B" stroke-width="2" stroke-dasharray="2 2"/>
<path d="M1046.37 11C1020.37 58.563 1069.97 116.448 963.545 150.131" stroke="#716B6B" stroke-width="2" stroke-dasharray="2 2"/>
<circle cx="629.187" cy="58.0936" r="29.0936" fill="#672FE0"/>
<circle cx="600.094" cy="81.3685" r="29.0936" fill="#672FE0"/>
<path d="M628.342 105.96L605.661 138.974L644.971 108.01L632.013 93.9669L647.807 57.9998L614.637 98.7153L628.342 105.96Z" fill="#FAFF0D" stroke="#FFD707" stroke-width="2"/>
<ellipse cx="647.614" cy="77.4894" rx="24.2447" ry="25.2145" fill="#672FE0"/>
<circle cx="563.61" cy="67.8052" r="13.8052" fill="#4214A4"/>
<circle cx="549.805" cy="78.8491" r="13.8052" fill="#4214A4"/>
<path d="M563.209 90.5181L552.447 106.183L571.099 91.4908L564.951 84.8272L572.445 67.7605L556.706 87.0804L563.209 90.5181Z" fill="#FAFF0D" stroke="#FFD707" stroke-width="2"/>
<ellipse cx="572.354" cy="77.0084" rx="11.5043" ry="11.9645" fill="#4214A4"/>
<circle cx="674.61" cy="67.8052" r="13.8052" fill="#4214A4"/>
<circle cx="660.805" cy="78.8491" r="13.8052" fill="#4214A4"/>
<path d="M674.209 90.5181L663.447 106.183L682.099 91.4908L675.951 84.8272L683.445 67.7605L667.706 87.0804L674.209 90.5181Z" fill="#FAFF0D" stroke="#FFD707" stroke-width="2"/>
<ellipse cx="683.354" cy="77.0084" rx="11.5043" ry="11.9645" fill="#4214A4"/>
</svg>
