<svg width="400" height="288" viewBox="0 0 400 288" fill="none" xmlns="http://www.w3.org/2000/svg">
<path d="M205.048 164.027C192.804 149.334 175.459 149.743 168.317 151.783L173.214 168.924C188.927 173.414 217.292 178.719 205.048 164.027Z" fill="#0F5A33"/>
<path d="M208.109 167.088H213.619L203.824 158.518L205.661 161.579L203.824 171.373L193.417 174.434H202.6L205.661 178.72V173.21L211.783 174.434L208.109 167.088Z" fill="black" stroke="black"/>
<path d="M170.159 151.171C178.596 147.662 199.657 154.191 204.438 163.414C213.007 179.943 184.854 171.985 176.282 170.148" stroke="black" stroke-width="5"/>
<path d="M186.077 272.524C196.874 262.267 191.676 235.403 184.544 227.259L159.415 234.998C156.077 258.444 173.833 284.156 186.077 272.524Z" fill="#0F5A33"/>
<path d="M185.366 229.424C195.377 238.905 191.84 278.688 175.052 272.524C164.392 268.61 160.581 248.969 158.88 238.728" stroke="black" stroke-width="5"/>
<path d="M242.607 120.091C242.607 120.091 245.668 71.7284 163.023 50.302C96.907 33.1608 87.1021 109.888 100.366 140.293C108.733 164.372 120.42 235.958 96.6927 232.733C72.9652 229.508 74.0419 242.587 83.2247 246.201C259.172 315.45 193.036 142.445 175.455 140.312C206.759 141.659 216.938 120.091 242.607 120.091Z" fill="#2E8B5A"/>
<path d="M140.77 134.783C146.331 135.515 168.145 139.954 175.052 140.293M175.052 140.293C206.672 141.844 216.829 120.091 242.607 120.091C242.607 120.091 245.668 71.7284 163.023 50.302C96.907 33.1608 87.1021 109.888 100.366 140.293C108.733 164.372 120.42 235.958 96.6927 232.733C72.9652 229.508 74.0419 242.587 83.2247 246.201C260.544 315.99 191.99 139.731 175.052 140.293Z" stroke="black" stroke-width="5"/>
<path d="M168.317 55.8104C237.495 74.8666 240.535 116.624 240.535 116.624C211.783 109.684 213.007 156.21 115.058 123.764C112.609 71.1177 115.67 41.3078 168.317 55.8104Z" fill="#329B64"/>
<path d="M200.764 198.45C176.276 196.409 123.017 259.109 138.932 260.893C204.435 268.238 206.276 222.325 200.764 198.45Z" fill="#F4F839" stroke="black" stroke-width="5"/>
<path d="M197.583 202.77C180.958 201.349 144.8 245.023 155.605 246.266C200.075 251.382 201.325 219.401 197.583 202.77Z" fill="#FFC737"/>
<path d="M150.093 122.572C150.746 119.115 151.567 134.787 160.068 138.316C164.83 138.728 167.569 138.677 164.691 138.956C162.939 139.126 161.408 138.872 160.068 138.316C155.342 137.906 148.622 137.039 143.424 134.938L150.093 122.572Z" fill="#FF0000"/>
<path d="M150.093 122.572C150.85 118.57 151.83 140.205 164.691 138.956C170.426 138.4 153.86 139.156 143.424 134.938L150.093 122.572Z" stroke="black" stroke-width="2"/>
<circle r="14.0802" transform="matrix(-1 0 0 1 151.789 82.1349)" fill="black"/>
<ellipse rx="14.0802" ry="3.67311" transform="matrix(-0.746294 -0.665616 -0.665616 0.746294 211.686 89.9629)" fill="black"/>
<circle r="4.89748" transform="matrix(-1 0 0 1 148.728 74.1768)" fill="white"/>
<circle r="2.44874" transform="matrix(-1 0 0 1 142.606 80.2983)" fill="white"/>
<path d="M85.7218 64.8409C81.7617 65.5589 79.6174 69.8954 81.451 73.4782L86.9235 84.1714C89.1698 88.5607 95.4576 88.5173 97.6431 84.0975L103.99 71.2614C106.176 66.8416 102.393 61.8186 97.5414 62.6981L85.7218 64.8409Z" fill="black"/>
<path d="M119.727 24.3213C115.853 20.9018 109.756 23.6524 109.756 28.8197L109.757 59.7108C109.757 62.0393 112.294 63.4801 114.294 62.287L136.141 49.2515C139.631 47.1687 140.084 42.2908 137.037 39.6008L119.727 24.3213Z" fill="black"/>
<path d="M192.839 214.474C193.174 212.829 191.454 211.528 189.962 212.298L184.759 214.982C183.451 215.657 183.296 217.466 184.47 218.355L188.505 221.407C189.679 222.295 191.378 221.654 191.671 220.211L192.839 214.474Z" fill="black"/>
<path d="M189.167 227.942C189.502 226.296 187.782 224.996 186.29 225.766L181.087 228.45C179.779 229.125 179.624 230.934 180.798 231.822L184.833 234.875C186.007 235.763 187.706 235.121 188 233.679L189.167 227.942Z" fill="black"/>
<path d="M179.372 223.044C179.707 221.399 177.987 220.098 176.495 220.868L171.292 223.552C169.984 224.227 169.829 226.037 171.003 226.925L175.038 229.977C176.212 230.866 177.911 230.224 178.205 228.781L179.372 223.044Z" fill="black"/>
<path d="M94.0159 170.017C91.8275 172.558 92.7127 176.491 95.779 177.85L104.909 181.897C108.665 183.561 112.715 180.236 111.813 176.227L109.199 164.613C108.297 160.605 103.213 159.335 100.532 162.449L94.0159 170.017Z" fill="black"/>
<path d="M79.9472 138.038C77.5713 141.286 79.0044 145.907 82.8017 147.241L94.1352 151.222C98.7872 152.856 103.315 148.492 101.854 143.783L97.612 130.106C96.1512 125.397 89.949 124.362 87.0383 128.342L79.9472 138.038Z" fill="black"/>
<path d="M77.9367 96.9568C74.4938 99.0414 74.0392 103.858 77.0311 106.55L85.9608 114.584C89.6261 117.882 95.484 115.597 95.9474 110.688L97.2933 96.4317C97.7567 91.5229 92.43 88.1815 88.2122 90.7353L77.9367 96.9568Z" fill="black"/>
<path d="M130.344 194.695C137.77 194.83 142.642 185.515 150.059 203.144C157.475 220.773 128.586 223.546 130.344 194.695Z" fill="#0F5A33" fill-opacity="0.2"/>
<path d="M121.875 159.801C124.662 161.349 128.386 158.801 127.643 166.978C126.9 175.154 115.392 170.381 121.875 159.801Z" fill="#0F5A33" fill-opacity="0.2"/>
<path d="M127.243 142.675C129.98 141.038 129.64 136.539 136.344 141.278C143.048 146.017 133.153 153.586 127.243 142.675Z" fill="#0F5A33" fill-opacity="0.2"/>
<path d="M190.02 194.61C187.221 193.083 183.516 195.659 184.198 187.477C184.88 179.295 196.423 183.982 190.02 194.61Z" fill="#0F5A33" fill-opacity="0.2"/>
<path d="M120.733 106.076C123.47 104.439 123.13 99.9391 129.834 104.678C136.539 109.417 126.643 116.986 120.733 106.076Z" fill="#0F5A33" fill-opacity="0.2"/>
<path d="M128.525 275.585C116.894 258.444 119.343 240.934 111.385 230.896L150.877 236.162C154.768 254.705 141.346 294.48 128.525 275.585Z" fill="#0F5A33"/>
<path d="M111.387 236.405C123.645 246.436 115.672 272.817 136.408 277.67C143.831 279.408 153.355 249.982 152.174 239.669" stroke="black" stroke-width="5"/>
<path d="M173.943 154.224L166.632 156.698L196.006 156.749L205.66 146.414L201.375 147.026L194.029 153.148L173.943 154.224Z" fill="white" stroke="black" stroke-width="2"/>
<path d="M208.35 180.2L206.272 150.087L193.417 159.883L168.83 158.577L171.836 191.215L198.925 192.096L208.35 180.2Z" fill="#C4C4C4" stroke="black" stroke-width="5"/>
<path d="M197.092 188.043L194.643 163.556L173.217 162.944L176.277 187.431L197.092 188.043Z" fill="#2E8B5A"/>
<path d="M204.438 178.859L203.214 157.433L195.255 163.555L197.704 187.43L204.438 178.859Z" fill="#1B633D"/>
<path d="M187.413 183.907C188.567 183.948 189.454 183.699 190.075 183.16C190.696 182.613 191.025 181.825 191.062 180.795C191.081 180.244 191.041 179.76 190.94 179.344L188.684 166.572L184.958 165.933L185.967 171.671C185.492 171.358 185.087 171.145 184.753 171.035C184.508 170.952 184.229 170.905 183.916 170.894C182.969 170.86 182.237 171.152 181.721 171.768C181.144 172.465 180.828 173.58 180.773 175.112C180.755 175.639 180.784 176.213 180.861 176.834C180.938 177.447 181.069 178.058 181.254 178.666C181.697 180.125 182.372 181.304 183.281 182.202C184.38 183.28 185.758 183.848 187.413 183.907ZM186.079 181.41C185.569 181.392 185.079 181.033 184.609 180.332C184.202 179.707 183.876 178.896 183.631 177.897C183.402 176.916 183.303 175.985 183.334 175.104C183.359 174.42 183.485 173.864 183.715 173.435C183.839 173.2 183.99 173.02 184.167 172.894C184.345 172.768 184.545 172.71 184.767 172.717C185.055 172.728 185.314 172.766 185.542 172.832C185.885 172.934 186.12 173.066 186.246 173.228L187.402 179.701C187.444 179.908 187.462 180.103 187.455 180.284C187.428 181.067 186.969 181.442 186.079 181.41Z" fill="white"/>
<path d="M194.64 158.658L197.701 190.492" stroke="black" stroke-width="2"/>
<path d="M175.05 173.351C162.806 158.659 145.461 159.067 138.319 161.107L143.216 178.249C158.929 182.738 187.294 188.044 175.05 173.351Z" fill="#0F5A33"/>
<path d="M178.111 176.412H183.621L173.826 167.842L175.663 170.903L173.826 180.698L163.419 183.759H172.602L175.663 188.044V182.534L181.785 183.759L178.111 176.412Z" fill="black" stroke="black"/>
<path d="M140.161 160.495C148.598 156.986 169.658 163.515 174.44 172.739C183.009 189.267 154.856 181.309 146.284 179.472" stroke="black" stroke-width="5"/>
<path d="M273.227 162.113L227.12 270.295C223.746 278.211 229.554 287 238.159 287H239.128H400L379.465 220.785C376.532 211.329 365.404 207.258 357.061 212.589L345.79 219.791C339.861 223.579 331.961 221.478 328.697 215.245L300.314 161.037C294.445 149.827 278.188 150.473 273.227 162.113Z" fill="#F3F3F3"/>
<circle cx="353" cy="47" r="28" fill="#E33A3A"/>
<path d="M368.797 66.7136C355.419 74.4714 339.521 72.046 333.287 61.2964C327.053 50.5469 332.844 35.5437 346.222 27.7859C359.599 20.0281 369.874 25.7143 376.108 36.4638C382.342 47.2134 382.174 58.9558 368.797 66.7136Z" fill="#FF5656"/>
<path fill-rule="evenodd" clip-rule="evenodd" d="M328.091 25.7444C326.43 11.2539 314.123 0 299.188 0C285.111 0 273.368 9.99797 270.675 23.2805C270.482 23.2767 270.288 23.2748 270.094 23.2748C254.026 23.2748 241 36.3005 241 52.3684C241 68.4364 254.026 81.4621 270.094 81.4621C282.628 81.4621 293.31 73.5359 297.403 62.4225C301.746 69.2219 309.176 73.7038 317.613 73.7038C331.003 73.7038 341.858 62.4148 341.858 48.4893C341.858 38.4665 336.235 29.8095 328.091 25.7444Z" fill="#BFCBEA"/>
<path d="M183.043 246.215L194.633 285.215H306.5L277.777 277.215L280.801 247.715L266.188 277.215L261.652 263.715L254.094 278.715V261.715L247.543 273.215L237.969 253.715L235.449 271.215L226.379 247.715V267.715L222.852 253.715L216.805 273.215V257.715L205.719 277.215L201.688 251.215L199.168 273.215L183.043 246.215Z" fill="#235C3E"/>
<path d="M24 272.715L16.5 257.215L15.5 278.715L0 284.715H2.5H130.5L117.5 239.715L111.5 263.215V249.215L92.5 272.715L105.5 239.715L92.5 263.215V239.715L78.5 257.215L60.5 225.215L71 257.215L60.5 263.215L51 239.715V272.715L41.5 257.215V272.715L31 257.215L24 272.715Z" fill="#235C3E"/>
<path d="M107.043 246.215L118.633 285.215H230.5L201.777 277.215L204.801 247.715L190.188 277.215L185.652 263.715L178.094 278.715V261.715L171.543 273.215L161.969 253.715L159.449 271.215L150.379 247.715V267.715L146.852 253.715L140.805 273.215V257.715L129.719 277.215L125.688 251.215L123.168 273.215L107.043 246.215Z" fill="#235C3E"/>
<path d="M355.228 93.3295L362 131" stroke="#CE2B2B" stroke-width="2"/>
<path d="M355.228 93.3295L362 131" stroke="#CE2B2B" stroke-width="2"/>
<path d="M329.383 84.5524L306 107" stroke="#CE2B2B" stroke-width="2"/>
<path d="M329.383 84.5524L306 107" stroke="#CE2B2B" stroke-width="2"/>
<path d="M341.991 91.9994L336.51 102.293" stroke="#CE2B2B" stroke-width="2"/>
<path d="M341.991 91.9994L336.51 102.293" stroke="#CE2B2B" stroke-width="2"/>
</svg>
