<svg width="1180" height="824" viewBox="0 0 1180 824" fill="none" xmlns="http://www.w3.org/2000/svg">
<path d="M0 0H1200V695H0V0Z" fill="#FBFBFB"/>
<path d="M868.051 460.324L828.355 461.373L836.567 467.034L834.901 477.172L844.815 473.332L855.848 478.09L868.051 460.324Z" fill="#2E8B5A"/>
<path d="M868.051 460.324L828.355 461.373L836.567 467.034M868.051 460.324L855.848 478.09L844.815 473.332M868.051 460.324L841.026 470.711M868.051 460.324L836.567 467.034M836.567 467.034L834.901 477.172M834.901 477.172L844.815 473.332M834.901 477.172L841.026 470.711M844.815 473.332L841.026 470.711" stroke="black" stroke-width="0.5"/>
<path d="M810.499 501.499C691 577.5 752.829 782.887 573.936 821.618" stroke="#716B6B" stroke-width="2" stroke-dasharray="2 2"/>
<path d="M519.181 32.0001C571.943 118.478 853.073 20.4656 852 203.5" stroke="#716B6B" stroke-width="2" stroke-dasharray="2 2"/>
<path d="M721.051 344.662L723.834 332.357L824.908 281.234L822.857 305.258L756.207 340.121L810.846 368.539L804.254 391.684L721.051 344.662ZM960.846 367.66L1027.35 332.943L972.857 304.379L979.449 281.234L1062.51 328.402L1059.87 340.707L958.648 391.684L960.846 367.66Z" fill="#D7576E"/>
<path d="M849.479 354.586C847.868 354.586 846.33 354.293 844.865 353.707C843.4 353.072 842.131 352.218 841.057 351.144C839.982 350.069 839.128 348.8 838.493 347.335C837.907 345.87 837.614 344.332 837.614 342.721C837.614 341.109 837.907 339.571 838.493 338.106C839.128 336.642 839.982 335.372 841.057 334.298C842.131 333.224 843.4 332.369 844.865 331.734C846.33 331.1 847.868 330.782 849.479 330.782C851.091 330.782 852.629 331.1 854.094 331.734C855.559 332.369 856.853 333.224 857.976 334.298C859.099 335.372 859.953 336.642 860.539 338.106C861.174 339.571 861.491 341.109 861.491 342.721C861.491 344.332 861.174 345.87 860.539 347.335C859.953 348.8 859.099 350.069 857.976 351.144C856.853 352.218 855.559 353.072 854.094 353.707C852.629 354.293 851.091 354.586 849.479 354.586ZM889.03 354.586C887.419 354.586 885.881 354.293 884.416 353.707C882.951 353.072 881.682 352.218 880.607 351.144C879.533 350.069 878.679 348.8 878.044 347.335C877.458 345.87 877.165 344.332 877.165 342.721C877.165 341.109 877.458 339.571 878.044 338.106C878.679 336.642 879.533 335.372 880.607 334.298C881.682 333.224 882.951 332.369 884.416 331.734C885.881 331.1 887.419 330.782 889.03 330.782C890.642 330.782 892.18 331.1 893.645 331.734C895.109 332.369 896.403 333.224 897.526 334.298C898.649 335.372 899.504 336.642 900.09 338.106C900.725 339.571 901.042 341.109 901.042 342.721C901.042 344.332 900.725 345.87 900.09 347.335C899.504 348.8 898.649 350.069 897.526 351.144C896.403 352.218 895.109 353.072 893.645 353.707C892.18 354.293 890.642 354.586 889.03 354.586ZM928.581 354.586C926.97 354.586 925.432 354.293 923.967 353.707C922.502 353.072 921.232 352.218 920.158 351.144C919.084 350.069 918.229 348.8 917.595 347.335C917.009 345.87 916.716 344.332 916.716 342.721C916.716 341.109 917.009 339.571 917.595 338.106C918.229 336.642 919.084 335.372 920.158 334.298C921.232 333.224 922.502 332.369 923.967 331.734C925.432 331.1 926.97 330.782 928.581 330.782C930.192 330.782 931.73 331.1 933.195 331.734C934.66 332.369 935.954 333.224 937.077 334.298C938.2 335.372 939.055 336.642 939.641 338.106C940.275 339.571 940.593 341.109 940.593 342.721C940.593 344.332 940.275 345.87 939.641 347.335C939.055 348.8 938.2 350.069 937.077 351.144C935.954 352.218 934.66 353.072 933.195 353.707C931.73 354.293 930.192 354.586 928.581 354.586Z" fill="#D7576E"/>
</svg>
