<svg width="123" height="120" viewBox="0 0 123 120" fill="none" xmlns="http://www.w3.org/2000/svg">
<rect x="3" width="120" height="120" rx="21" fill="#92FF53"/>
<path d="M68.6484 107.051C65.9922 107.051 63.7461 106.621 61.9102 105.762C60.1133 104.902 58.7461 103.711 57.8086 102.188C56.9102 100.703 56.4609 99.0234 56.4609 97.1484C56.4609 95.1562 56.8906 93.1641 57.75 91.1719C58.9609 92.7344 60.2109 93.8477 61.5 94.5117C62.8281 95.1758 64.2539 95.5078 65.7773 95.5078C67.8867 95.5078 69.7031 94.8828 71.2266 93.6328C72.75 92.3438 74.0195 90.6055 75.0352 88.418C75.9336 86.4648 76.5977 84.2773 77.0273 81.8555C77.457 79.3945 77.6719 76.9531 77.6719 74.5312C77.6719 69.9219 76.8711 66.4258 75.2695 64.043C73.3555 61.1914 70.3477 59.7656 66.2461 59.7656C64.0195 59.7656 62.1055 60.1562 60.5039 60.9375L51.0117 105H33.7266L51.0117 24.8438C48.5508 24.9219 46.3828 25.3906 44.5078 26.25C42.6719 27.0703 41.0898 28.3789 39.7617 30.1758C36.8711 34.1211 35.4258 40.625 35.4258 49.6875C35.4258 52.2656 35.7188 54.2578 36.3047 55.6641C36.4609 56.1719 36.6562 56.6211 36.8906 57.0117C37.0469 57.2852 37.125 57.5586 37.125 57.832C32.8281 57.832 29.6445 56.9727 27.5742 55.2539C25.3867 53.418 24.293 50.3906 24.293 46.1719C24.293 42.0312 25.0547 38.1055 26.5781 34.3945C28.1406 30.6836 30.5039 27.4219 33.668 24.6094C37.0664 21.5625 41.3828 19.1992 46.6172 17.5195C51.8516 15.8398 58.043 15 65.1914 15C66.5977 15 68.1016 15.0781 69.7031 15.2344L72.5742 15.4688C78.1211 15.9375 81.2852 16.1914 82.0664 16.2305C84.0977 16.3867 86.3047 16.4648 88.6875 16.4648C92.8672 16.4648 96.4805 15.9766 99.5273 15C99.4492 15.3516 99.293 16.1523 99.0586 17.4023C98.8633 18.6523 98.5898 19.8633 98.2383 21.0352C97.9258 22.168 97.5352 23.1836 97.0664 24.082C95.2695 27.6367 92.2812 29.4141 88.1016 29.4141C82.1641 29.4141 75.4062 28.6133 67.8281 27.0117L61.8516 54.8438C64.2734 54.1016 66.4219 53.5547 68.2969 53.2031C70.1719 52.8516 72.0859 52.6758 74.0391 52.6758C80.7578 52.6758 85.8945 54.7656 89.4492 58.9453C91.0898 60.9375 92.3203 63.2812 93.1406 65.9766C93.9609 68.6719 94.3711 71.6406 94.3711 74.8828C94.3711 76.9531 94.1562 79.1797 93.7266 81.5625C93.2969 83.9062 92.6523 86.2305 91.793 88.5352C90.8945 90.9961 89.7422 93.3398 88.3359 95.5664C86.9297 97.7539 85.3086 99.6875 83.4727 101.367C79.293 105.156 74.3516 107.051 68.6484 107.051Z" fill="#0E4F2D"/>
</svg>
