<svg width="1157" height="111" viewBox="0 0 1157 111" fill="none" xmlns="http://www.w3.org/2000/svg">
<path d="M530.127 40.436L473.781 87.3596C467.423 92.654 471.167 103 479.441 103H729.161C740.963 103 745.675 87.7491 735.93 81.0914L624.739 5.13299C620.297 2.09797 614.377 2.39111 610.256 5.85021L566.916 42.2271C563.372 45.202 558.433 45.874 554.223 43.9543L542.784 38.7386C538.589 36.8258 533.669 37.4856 530.127 40.436Z" fill="#F2F2F2"/>
<path d="M56.5244 64.1096L14.4837 98.9849C9.59042 103.044 12.4608 111 18.8186 111H202.036C213.85 111 218.554 95.7256 208.787 89.0792L132.403 37.0997C127.968 34.082 122.069 34.3738 117.954 37.8144L87.4941 63.2823C83.9554 66.241 79.034 66.9096 74.8343 65.002L69.1485 62.4195C64.964 60.5189 60.0616 61.1752 56.5244 64.1096Z" fill="#F2F2F2"/>
<path d="M1107.48 64.1096L1149.52 98.9849C1154.41 103.044 1151.54 111 1145.18 111H961.964C950.15 111 945.446 95.7256 955.213 89.0792L1031.6 37.0997C1036.03 34.082 1041.93 34.3738 1046.05 37.8144L1076.51 63.2823C1080.04 66.241 1084.97 66.9096 1089.17 65.002L1094.85 62.4195C1099.04 60.5189 1103.94 61.1752 1107.48 64.1096Z" fill="#F2F2F2"/>
<path fill-rule="evenodd" clip-rule="evenodd" d="M226.632 35.2472L234.491 19.2377C235.791 16.5884 239.415 16.2117 241.233 18.5367L253.749 34.5462C255.802 37.1721 253.931 41.0099 250.598 41.0099H250.212L255.974 52.7471C257.278 55.4049 255.344 58.5098 252.383 58.5098H251.639L256.749 65.046C258.802 67.6719 256.931 71.5097 253.598 71.5097H226.222C223.262 71.5097 221.327 68.4048 222.632 65.747L226.184 58.5098H225.007C221.674 58.5098 219.803 54.672 221.856 52.0461L230.484 41.0099H230.222C227.262 41.0099 225.327 37.905 226.632 35.2472Z" fill="#2E8B5A"/>
<rect x="235.803" y="68.5098" width="8" height="14" rx="3" fill="#7C4B59"/>
<path fill-rule="evenodd" clip-rule="evenodd" d="M254.632 35.2472L262.491 19.2377C263.791 16.5884 267.415 16.2117 269.233 18.5367L281.749 34.5462C283.802 37.1721 281.931 41.0099 278.598 41.0099H278.212L283.974 52.7471C285.278 55.4049 283.344 58.5098 280.383 58.5098H279.639L284.749 65.046C286.802 67.6719 284.931 71.5097 281.598 71.5097H254.222C251.262 71.5097 249.327 68.4048 250.632 65.747L254.184 58.5098H253.007C249.674 58.5098 247.803 54.672 249.856 52.0461L258.484 41.0099H258.222C255.262 41.0099 253.327 37.905 254.632 35.2472Z" fill="#2E8B5A"/>
<rect x="263.803" y="68.5098" width="8" height="14" rx="3" fill="#7C4B59"/>
<path fill-rule="evenodd" clip-rule="evenodd" d="M277.632 35.2472L285.491 19.2377C286.791 16.5884 290.415 16.2117 292.233 18.5367L304.749 34.5462C306.802 37.1721 304.931 41.0099 301.598 41.0099H301.212L306.974 52.7471C308.278 55.4049 306.344 58.5098 303.383 58.5098H302.639L307.749 65.046C309.802 67.6719 307.931 71.5097 304.598 71.5097H277.222C274.262 71.5097 272.327 68.4048 273.632 65.747L277.184 58.5098H276.007C272.674 58.5098 270.803 54.672 272.856 52.0461L281.484 41.0099H281.222C278.262 41.0099 276.327 37.905 277.632 35.2472Z" fill="#2E8B5A"/>
<rect x="286.803" y="68.5098" width="8" height="14" rx="3" fill="#7C4B59"/>
<path d="M288.891 75L292.844 83H331L321.203 81.359L322.234 75.3077L317.25 81.359L315.703 78.5897L313.125 81.6667V78.1795L310.891 80.5385L307.625 76.5385L306.766 80.1282L303.672 75.3077V79.4103L302.469 76.5385L300.406 80.5385V77.359L296.625 81.359L295.25 76.0256L294.391 80.5385L288.891 75Z" fill="#235C3E"/>
<path d="M261.891 75L265.844 83H304L294.203 81.359L295.234 75.3077L290.25 81.359L288.703 78.5897L286.125 81.6667V78.1795L283.891 80.5385L280.625 76.5385L279.766 80.1282L276.672 75.3077V79.4103L275.469 76.5385L273.406 80.5385V77.359L269.625 81.359L268.25 76.0256L267.391 80.5385L261.891 75Z" fill="#235C3E"/>
<path d="M273.109 75L269.156 83H231L240.797 81.359L239.766 75.3077L244.75 81.359L246.297 78.5897L248.875 81.6667V78.1795L251.109 80.5385L254.375 76.5385L255.234 80.1282L258.328 75.3077V79.4103L259.531 76.5385L261.594 80.5385V77.359L265.375 81.359L266.75 76.0256L267.609 80.5385L273.109 75Z" fill="#235C3E"/>
<path d="M245.109 75L241.156 83H203L212.797 81.359L211.766 75.3077L216.75 81.359L218.297 78.5897L220.875 81.6667V78.1795L223.109 80.5385L226.375 76.5385L227.234 80.1282L230.328 75.3077V79.4103L231.531 76.5385L233.594 80.5385V77.359L237.375 81.359L238.75 76.0256L239.609 80.5385L245.109 75Z" fill="#235C3E"/>
<path fill-rule="evenodd" clip-rule="evenodd" d="M839.632 37.2472L847.491 21.2377C848.791 18.5884 852.415 18.2117 854.233 20.5367L866.749 36.5462C868.802 39.1721 866.931 43.0099 863.598 43.0099H863.212L868.974 54.7471C870.278 57.4049 868.344 60.5098 865.383 60.5098H864.639L869.749 67.046C871.802 69.6719 869.931 73.5097 866.598 73.5097H839.222C836.262 73.5097 834.327 70.4048 835.632 67.747L839.184 60.5098H838.007C834.674 60.5098 832.803 56.672 834.856 54.0461L843.484 43.0099H843.222C840.262 43.0099 838.327 39.905 839.632 37.2472Z" fill="#2E8B5A"/>
<rect x="848.803" y="70.5098" width="8" height="14" rx="3" fill="#7C4B59"/>
<path fill-rule="evenodd" clip-rule="evenodd" d="M867.632 37.2472L875.491 21.2377C876.791 18.5884 880.415 18.2117 882.233 20.5367L894.749 36.5462C896.802 39.1721 894.931 43.0099 891.598 43.0099H891.212L896.974 54.7471C898.278 57.4049 896.344 60.5098 893.383 60.5098H892.639L897.749 67.046C899.802 69.6719 897.931 73.5097 894.598 73.5097H867.222C864.262 73.5097 862.327 70.4048 863.632 67.747L867.184 60.5098H866.007C862.674 60.5098 860.803 56.672 862.856 54.0461L871.484 43.0099H871.222C868.262 43.0099 866.327 39.905 867.632 37.2472Z" fill="#2E8B5A"/>
<path d="M870.766 34.2628L872.894 29.8499C874.188 27.1666 877.855 26.7883 879.669 29.151L883.058 33.5639C885.078 36.1949 883.202 40 879.885 40H874.369C871.421 40 869.486 36.9187 870.766 34.2628Z" fill="#CFEEF4"/>
<path d="M870.766 34.2628L872.894 29.8499C874.188 27.1666 877.855 26.7883 879.669 29.151L883.058 33.5639C885.078 36.1949 883.202 40 879.885 40H874.369C871.421 40 869.486 36.9187 870.766 34.2628Z" fill="#CFEEF4"/>
<path d="M870.766 34.2628L872.894 29.8499C874.188 27.1666 877.855 26.7883 879.669 29.151L883.058 33.5639C885.078 36.1949 883.202 40 879.885 40H874.369C871.421 40 869.486 36.9187 870.766 34.2628Z" fill="#CFEEF4"/>
<rect x="876.803" y="70.5098" width="8" height="14" rx="3" fill="#7C4B59"/>
<path d="M876.766 50.2628L878.894 45.8499C880.188 43.1666 883.855 42.7883 885.669 45.151L889.058 49.5639C891.078 52.1949 889.202 56 885.885 56H880.369C877.421 56 875.486 52.9187 876.766 50.2628Z" fill="#CFEEF4"/>
<path d="M876.766 50.2628L878.894 45.8499C880.188 43.1666 883.855 42.7883 885.669 45.151L889.058 49.5639C891.078 52.1949 889.202 56 885.885 56H880.369C877.421 56 875.486 52.9187 876.766 50.2628Z" fill="#CFEEF4"/>
<path d="M876.766 50.2628L878.894 45.8499C880.188 43.1666 883.855 42.7883 885.669 45.151L889.058 49.5639C891.078 52.1949 889.202 56 885.885 56H880.369C877.421 56 875.486 52.9187 876.766 50.2628Z" fill="#CFEEF4"/>
<path d="M838.766 63.2628L840.894 58.8499C842.188 56.1666 845.855 55.7883 847.669 58.151L851.058 62.5639C853.078 65.1949 851.202 69 847.885 69H842.369C839.421 69 837.486 65.9187 838.766 63.2628Z" fill="#CFEEF4"/>
<path d="M838.766 63.2628L840.894 58.8499C842.188 56.1666 845.855 55.7883 847.669 58.151L851.058 62.5639C853.078 65.1949 851.202 69 847.885 69H842.369C839.421 69 837.486 65.9187 838.766 63.2628Z" fill="#CFEEF4"/>
<path d="M838.766 63.2628L840.894 58.8499C842.188 56.1666 845.855 55.7883 847.669 58.151L851.058 62.5639C853.078 65.1949 851.202 69 847.885 69H842.369C839.421 69 837.486 65.9187 838.766 63.2628Z" fill="#CFEEF4"/>
<path fill-rule="evenodd" clip-rule="evenodd" d="M890.632 37.2472L898.491 21.2377C899.791 18.5884 903.415 18.2117 905.233 20.5367L917.749 36.5462C919.802 39.1721 917.931 43.0099 914.598 43.0099H914.212L919.974 54.7471C921.278 57.4049 919.344 60.5098 916.383 60.5098H915.639L920.749 67.046C922.802 69.6719 920.931 73.5097 917.598 73.5097H890.222C887.262 73.5097 885.327 70.4048 886.632 67.747L890.184 60.5098H889.007C885.674 60.5098 883.803 56.672 885.856 54.0461L894.484 43.0099H894.222C891.262 43.0099 889.327 39.905 890.632 37.2472Z" fill="#2E8B5A"/>
<rect x="899.803" y="70.5098" width="8" height="14" rx="3" fill="#7C4B59"/>
<path d="M902.891 76L906.844 84H945L935.203 82.359L936.234 76.3077L931.25 82.359L929.703 79.5897L927.125 82.6667V79.1795L924.891 81.5385L921.625 77.5385L920.766 81.1282L917.672 76.3077V80.4103L916.469 77.5385L914.406 81.5385V78.359L910.625 82.359L909.25 77.0256L908.391 81.5385L902.891 76Z" fill="#235C3E"/>
<path d="M875.891 76L879.844 84H918L908.203 82.359L909.234 76.3077L904.25 82.359L902.703 79.5897L900.125 82.6667V79.1795L897.891 81.5385L894.625 77.5385L893.766 81.1282L890.672 76.3077V80.4103L889.469 77.5385L887.406 81.5385V78.359L883.625 82.359L882.25 77.0256L881.391 81.5385L875.891 76Z" fill="#235C3E"/>
<path d="M887.109 76L883.156 84H845L854.797 82.359L853.766 76.3077L858.75 82.359L860.297 79.5897L862.875 82.6667V79.1795L865.109 81.5385L868.375 77.5385L869.234 81.1282L872.328 76.3077V80.4103L873.531 77.5385L875.594 81.5385V78.359L879.375 82.359L880.75 77.0256L881.609 81.5385L887.109 76Z" fill="#235C3E"/>
<path d="M859.109 76L855.156 84H817L826.797 82.359L825.766 76.3077L830.75 82.359L832.297 79.5897L834.875 82.6667V79.1795L837.109 81.5385L840.375 77.5385L841.234 81.1282L844.328 76.3077V80.4103L845.531 77.5385L847.594 81.5385V78.359L851.375 82.359L852.75 77.0256L853.609 81.5385L859.109 76Z" fill="#235C3E"/>
<rect x="60" y="83" width="1053" height="34" fill="#F2F2F2"/>
</svg>
