<svg width="123" height="39" viewBox="0 0 123 39" fill="none" xmlns="http://www.w3.org/2000/svg">
<path d="M52.7852 38.0469C52.6562 38.0469 52.5332 38.0234 52.416 37.9766C52.2988 37.9258 52.1973 37.8574 52.1113 37.7715C52.0254 37.6855 51.957 37.584 51.9062 37.4668C51.8594 37.3496 51.8359 37.2266 51.8359 37.0977C51.8359 36.9688 51.8594 36.8457 51.9062 36.7285C51.957 36.6113 52.0254 36.5098 52.1113 36.4238C52.1973 36.3379 52.2988 36.2695 52.416 36.2188C52.5332 36.168 52.6562 36.1426 52.7852 36.1426C52.9141 36.1426 53.0371 36.168 53.1543 36.2188C53.2715 36.2695 53.375 36.3379 53.4648 36.4238C53.5547 36.5098 53.623 36.6113 53.6699 36.7285C53.7207 36.8457 53.7461 36.9688 53.7461 37.0977C53.7461 37.2266 53.7207 37.3496 53.6699 37.4668C53.623 37.584 53.5547 37.6855 53.4648 37.7715C53.375 37.8574 53.2715 37.9258 53.1543 37.9766C53.0371 38.0234 52.9141 38.0469 52.7852 38.0469ZM56.3477 38.0703C55.7578 38.0703 55.3027 37.9219 54.9824 37.625C54.6426 37.3086 54.4727 36.8223 54.4727 36.166C54.4727 35.9199 54.498 35.6465 54.5488 35.3457C54.5957 35.041 54.6699 34.7383 54.7715 34.4375C55.0098 33.707 55.3477 33.125 55.7852 32.6914C56.3242 32.1602 56.9629 31.8945 57.7012 31.8945C58.1816 31.8945 58.5371 32.0098 58.7676 32.2402C58.9473 32.4238 59.0371 32.6758 59.0371 32.9961C59.0371 33.2773 58.9746 33.4961 58.8496 33.6523C58.7324 33.7969 58.582 33.8691 58.3984 33.8691C58.2656 33.8691 58.125 33.8223 57.9766 33.7285C58.0742 33.4746 58.123 33.2383 58.123 33.0195C58.123 32.8672 58.0938 32.748 58.0352 32.6621C57.9805 32.5723 57.8984 32.5273 57.7891 32.5273C57.5547 32.5273 57.3105 32.7344 57.0566 33.1484C56.8262 33.5156 56.6348 33.9824 56.4824 34.5488C56.3262 35.1035 56.248 35.6055 56.248 36.0547C56.248 36.4453 56.3223 36.7148 56.4707 36.8633C56.5996 36.9961 56.8145 37.0625 57.1152 37.0625C57.5488 37.0625 57.9453 36.9453 58.3047 36.7109C58.457 36.6133 58.6035 36.498 58.7441 36.3652C58.8848 36.2285 59.0488 36.0566 59.2363 35.8496H59.6465C59.2676 36.4902 58.832 37 58.3398 37.3789C57.7344 37.8398 57.0703 38.0703 56.3477 38.0703ZM60.9883 38.0469C60.3945 38.0469 59.9355 37.9023 59.6113 37.6133C59.248 37.293 59.0664 36.8066 59.0664 36.1543C59.0664 35.9082 59.0918 35.6367 59.1426 35.3398C59.1934 35.0391 59.2715 34.7363 59.377 34.4316C59.6191 33.7051 59.9648 33.125 60.4141 32.6914C60.957 32.1602 61.6035 31.8945 62.3535 31.8945C63.3809 31.8945 63.8945 32.5332 63.8945 33.8105V33.8223C63.918 33.8301 63.9375 33.834 63.9531 33.834H64.0234C64.2891 33.834 64.6035 33.7598 64.9668 33.6113C65.2871 33.4785 65.5898 33.3125 65.875 33.1133L65.9805 33.4414C65.7461 33.6875 65.4434 33.8965 65.0723 34.0684C64.7051 34.2402 64.2988 34.3633 63.8535 34.4375C63.8066 34.9805 63.7012 35.4766 63.5371 35.9258C63.373 36.3711 63.1621 36.7539 62.9043 37.0742C62.6504 37.3867 62.3594 37.627 62.0312 37.7949C61.7031 37.9629 61.3555 38.0469 60.9883 38.0469ZM61.4688 36.9688C61.6094 36.9688 61.752 36.9062 61.8965 36.7812C62.0449 36.6523 62.1836 36.4746 62.3125 36.248C62.4414 36.0215 62.5527 35.7559 62.6465 35.4512C62.7402 35.1465 62.8105 34.8203 62.8574 34.4727C62.7402 34.4414 62.6562 34.3828 62.6055 34.2969C62.5586 34.2109 62.5352 34.1016 62.5352 33.9688C62.5352 33.8047 62.5684 33.668 62.6348 33.5586C62.7012 33.4492 62.793 33.3691 62.9102 33.3184C62.8945 33.0645 62.8535 32.8828 62.7871 32.7734C62.752 32.7188 62.707 32.6797 62.6523 32.6562C62.6016 32.6328 62.5352 32.6211 62.4531 32.6211C62.1836 32.6211 61.9199 32.8242 61.6621 33.2305C61.4238 33.5977 61.2285 34.0508 61.0762 34.5898C60.9277 35.1172 60.8535 35.5859 60.8535 35.9961C60.8535 36.1953 60.8633 36.3574 60.8828 36.4824C60.9062 36.6074 60.9434 36.7051 60.9941 36.7754C61.041 36.8457 61.1016 36.8965 61.1758 36.9277C61.25 36.9551 61.3477 36.9688 61.4688 36.9688ZM71.8047 38.0703C71.3086 38.0703 70.9414 37.9297 70.7031 37.6484C70.4961 37.4062 70.3926 37.0957 70.3926 36.7168C70.3926 36.5371 70.4141 36.3281 70.457 36.0898C70.5039 35.8516 70.5723 35.5449 70.6621 35.1699C70.752 34.7871 70.8184 34.4824 70.8613 34.2559C70.9082 34.0254 70.9316 33.8262 70.9316 33.6582C70.9316 33.248 70.7871 33.043 70.498 33.043C70.2949 33.043 70.1074 33.1504 69.9355 33.3652C69.791 33.5488 69.666 33.8105 69.5605 34.1504L68.7461 38H67.0176L67.8965 33.8574C67.9199 33.7637 67.9316 33.6641 67.9316 33.5586C67.9316 33.3984 67.9062 33.2754 67.8555 33.1895C67.7891 33.084 67.6934 33.0312 67.5684 33.0312C67.3418 33.0312 67.1445 33.1406 66.9766 33.3594C66.8281 33.5469 66.7012 33.8105 66.5957 34.1504L65.7812 38H64.0527L65.3242 32H67.0527L66.9238 32.6211C67.1582 32.3594 67.4141 32.1738 67.6914 32.0645C67.9102 31.9824 68.1426 31.9414 68.3887 31.9414C68.7246 31.9414 68.9922 32.0195 69.1914 32.1758C69.4141 32.3516 69.5566 32.6172 69.6191 32.9727C69.877 32.5742 70.1738 32.293 70.5098 32.1289C70.748 32.0117 71.0078 31.9531 71.2891 31.9531C71.6914 31.9531 72.0098 32.0586 72.2441 32.2695C72.4941 32.5 72.6191 32.8457 72.6191 33.3066C72.6191 33.5684 72.5703 33.9297 72.4727 34.3906C72.4336 34.582 72.3867 34.7754 72.332 34.9707C72.2344 35.3457 72.1543 35.6914 72.0918 36.0078C72.0605 36.1719 72.0449 36.3047 72.0449 36.4062C72.0449 36.5664 72.0801 36.6914 72.1504 36.7812C72.2246 36.8672 72.3496 36.9102 72.5254 36.9102C72.7637 36.9102 72.9648 36.8125 73.1289 36.6172C73.2539 36.4688 73.3887 36.2129 73.5332 35.8496H74.0371C73.7402 36.7285 73.3652 37.3438 72.9121 37.6953C72.5918 37.9453 72.2227 38.0703 71.8047 38.0703Z" fill="#34432C"/>
<path d="M17.9502 25.5127C17.1201 25.5127 16.4658 25.3711 15.9873 25.0879C15.3135 24.6973 14.9766 24.0967 14.9766 23.2861C14.9766 22.749 15.1035 22.168 15.3574 21.543C15.7285 21.9434 16.0703 22.2266 16.3828 22.3926C16.6953 22.5488 17.0273 22.627 17.3789 22.627C18.375 22.627 19.1416 22.0117 19.6787 20.7812C19.9033 20.2832 20.0693 19.7217 20.1768 19.0967C20.2842 18.4619 20.3379 17.8418 20.3379 17.2363C20.3379 16.084 20.1377 15.1855 19.7373 14.541C19.2588 13.7891 18.5117 13.4131 17.4961 13.4131C16.959 13.4131 16.5 13.4473 16.1191 13.5156L13.6582 25H9.33691L13.4092 5.91309L17.8477 5.32715L16.4414 11.9775H16.6172C17.1934 11.9775 17.7451 11.8359 18.2725 11.5527C18.7998 11.2695 19.2637 10.8838 19.6641 10.3955C20.0547 9.91699 20.3623 9.38965 20.5869 8.81348C20.8213 8.2373 20.9385 7.6709 20.9385 7.11426C20.9385 6.68457 20.8604 6.2793 20.7041 5.89844C20.5576 5.50781 20.333 5.16602 20.0303 4.87305C19.3369 4.20898 18.3213 3.87695 16.9834 3.87695C15.7529 3.87695 14.5859 4.14062 13.4824 4.66797C12.252 5.26367 11.3096 6.06934 10.6553 7.08496C9.87402 8.2666 9.4834 9.62891 9.4834 11.1719C9.4834 11.8164 9.55664 12.3145 9.70312 12.666C9.74219 12.793 9.79102 12.9053 9.84961 13.0029C9.88867 13.0713 9.9082 13.1396 9.9082 13.208C8.84375 13.208 8.04297 12.998 7.50586 12.5781C6.96875 12.1484 6.7002 11.4404 6.7002 10.4541C6.7002 9.08691 7.22266 7.7832 8.26758 6.54297C8.75586 5.95703 9.33691 5.41992 10.0107 4.93164C10.6943 4.43359 11.4414 4.00391 12.252 3.64258C13.9609 2.88086 15.7383 2.5 17.584 2.5C19.6445 2.5 21.2607 2.98828 22.4326 3.96484C22.9404 4.39453 23.3213 4.89746 23.5752 5.47363C23.8389 6.04004 23.9707 6.64063 23.9707 7.27539C23.9707 8.22266 23.7168 9.10156 23.209 9.91211C22.6426 10.8105 21.8955 11.5186 20.9678 12.0361C22.1689 12.251 23.082 12.832 23.707 13.7793C24.2441 14.6094 24.5127 15.6396 24.5127 16.8701C24.5127 17.3779 24.4639 17.9395 24.3662 18.5547C24.2686 19.1699 24.1221 19.7803 23.9268 20.3857C23.4482 21.8896 22.7695 23.0664 21.8906 23.916C20.7969 24.9805 19.4834 25.5127 17.9502 25.5127Z" fill="#0E4F2D"/>
<path d="M28.5557 25.1758C27.5986 25.1758 26.8418 24.8926 26.2852 24.3262C25.6602 23.7012 25.3477 22.7881 25.3477 21.5869C25.3477 21.0205 25.4258 20.3662 25.582 19.624L27.6182 10H31.9395L29.7861 20.1953C29.7275 20.498 29.6982 20.7812 29.6982 21.0449C29.6982 21.8652 29.9961 22.2754 30.5918 22.2754C31.1387 22.2754 31.6318 22.0264 32.0713 21.5283C32.4229 21.1084 32.7305 20.4736 32.9941 19.624L35.0303 10H39.3516L37.1982 20.1953C37.1104 20.4883 37.0664 20.8105 37.0664 21.1621C37.0664 21.5723 37.1641 21.8604 37.3594 22.0264C37.5547 22.1924 37.8672 22.2754 38.2969 22.2754C38.8535 22.2754 39.3516 22.0264 39.791 21.5283C40.1816 21.0889 40.4941 20.4541 40.7285 19.624H41.9883C41.4512 21.1475 40.8018 22.3535 40.04 23.2422C39.3955 23.9746 38.668 24.502 37.8574 24.8242C37.2617 25.0586 36.6318 25.1758 35.9678 25.1758C35.1084 25.1758 34.4248 24.9365 33.917 24.458C33.4092 23.9795 33.1016 23.2715 32.9941 22.334C32.3105 23.4277 31.5391 24.209 30.6797 24.6777C30.0645 25.0098 29.3564 25.1758 28.5557 25.1758Z" fill="#50AF1A"/>
<path d="M52.0078 25.1758C50.7676 25.1758 49.8252 24.8828 49.1807 24.2969C48.5459 23.7109 48.2285 22.8662 48.2285 21.7627C48.2285 21.2842 48.2871 20.7617 48.4043 20.1953L48.6533 19.0234C48.7314 18.7207 48.7705 18.3545 48.7705 17.9248C48.7705 17.4561 48.6875 17.0996 48.5215 16.8555C48.3555 16.6016 48.0771 16.4746 47.6865 16.4746C47.3643 16.4746 47.0273 16.5674 46.6758 16.7529C46.3242 16.9385 45.9238 17.2168 45.4746 17.5879L43.9072 25H39.5859L43.9365 4.59473L48.375 3.99414L46.1338 14.5557L51.9199 10H54.8936L48.8877 14.1748C49.2295 14.0869 49.5615 14.043 49.8838 14.043C50.4307 14.043 50.9092 14.1357 51.3193 14.3213C51.7393 14.4971 52.0908 14.751 52.374 15.083C52.6377 15.3955 52.8379 15.7666 52.9746 16.1963C53.1113 16.6162 53.1797 17.0703 53.1797 17.5586C53.1797 18.0176 53.1406 18.3984 53.0625 18.7012L52.7256 20.1953C52.6279 20.5176 52.5791 20.8398 52.5791 21.1621C52.5791 21.5039 52.667 21.7773 52.8428 21.9824C53.0186 22.1777 53.3213 22.2754 53.751 22.2754C54.3467 22.2754 54.8496 22.0312 55.2598 21.543C55.5723 21.1719 55.9092 20.5322 56.2705 19.624H57.5303C56.7979 21.8408 55.8359 23.3936 54.6445 24.2822C53.8633 24.8779 52.9844 25.1758 52.0078 25.1758Z" fill="#156D38"/>
<path d="M61.2949 8.37402C60.9727 8.37402 60.665 8.31543 60.3721 8.19824C60.0791 8.07129 59.8252 7.90039 59.6104 7.68555C59.3955 7.48047 59.2246 7.23145 59.0977 6.93848C58.9805 6.64551 58.9219 6.33789 58.9219 6.01562C58.9219 5.69336 58.9805 5.38574 59.0977 5.09277C59.2246 4.7998 59.3955 4.54102 59.6104 4.31641C59.8252 4.0918 60.0791 3.9209 60.3721 3.80371C60.665 3.67676 60.9727 3.61328 61.2949 3.61328C61.6172 3.61328 61.9248 3.67676 62.2178 3.80371C62.5107 3.9209 62.7695 4.0918 62.9941 4.31641C63.2188 4.54102 63.3896 4.7998 63.5068 5.09277C63.6338 5.38574 63.6973 5.69336 63.6973 6.01562C63.6973 6.33789 63.6338 6.64551 63.5068 6.93848C63.3896 7.23145 63.2188 7.48047 62.9941 7.68555C62.7695 7.90039 62.5107 8.07129 62.2178 8.19824C61.9248 8.31543 61.6172 8.37402 61.2949 8.37402ZM59.2588 25.1758C58.3018 25.1758 57.5449 24.8926 56.9883 24.3262C56.3633 23.7012 56.0508 22.7881 56.0508 21.5869C56.0508 21.0205 56.1289 20.3662 56.2852 19.624L58.3213 10H62.6426L60.4893 20.1953C60.4111 20.4492 60.3721 20.7715 60.3721 21.1621C60.3721 21.5723 60.4648 21.8604 60.6504 22.0264C60.8457 22.1924 61.1582 22.2754 61.5879 22.2754C61.8809 22.2754 62.1641 22.2119 62.4375 22.085C62.7207 21.9482 62.9795 21.7627 63.2139 21.5283C63.6924 21.0498 64.0537 20.415 64.2979 19.624H65.5576C65.0205 21.1377 64.3467 22.3438 63.5361 23.2422C62.8525 23.9746 62.0811 24.502 61.2217 24.8242C60.5967 25.0586 59.9424 25.1758 59.2588 25.1758Z" fill="#0C3976"/>
<path d="M71.959 11.626H70.2891C69.752 11.626 69.3613 11.6504 69.1172 11.6992C68.7949 11.7578 68.6338 11.8896 68.6338 12.0947C68.6338 12.1436 68.6533 12.1729 68.6924 12.1826C68.7705 12.2021 68.8438 12.2705 68.9121 12.3877C68.9414 12.4561 68.9561 12.5781 68.9561 12.7539C68.9561 13.2812 68.79 13.6865 68.458 13.9697C68.1455 14.2236 67.7744 14.3506 67.3447 14.3506C66.9932 14.3506 66.6807 14.2383 66.4072 14.0137C66.1143 13.7695 65.9678 13.4424 65.9678 13.0322C65.9678 12.7197 66.0508 12.3877 66.2168 12.0361C66.3828 11.6748 66.6123 11.3477 66.9053 11.0547C67.2178 10.7324 67.5889 10.4785 68.0186 10.293C68.458 10.0977 68.9316 10 69.4395 10H77.1592L69.8057 22.6855C69.9033 22.6953 70.2451 22.7295 70.8311 22.7881C71.2412 22.8467 71.6562 22.876 72.0762 22.876C72.4863 22.876 72.8135 22.832 73.0576 22.7441C73.3018 22.6562 73.4482 22.5 73.4971 22.2754C73.3018 22.2559 73.1553 22.1924 73.0576 22.085C72.9697 21.9678 72.9258 21.8213 72.9258 21.6455C72.9258 21.499 72.96 21.3525 73.0283 21.2061C73.1064 21.0498 73.2139 20.9082 73.3506 20.7812C73.6826 20.498 74.0977 20.3564 74.5957 20.3564C75.0449 20.3564 75.377 20.4883 75.5918 20.752C75.8164 21.0156 75.9287 21.3623 75.9287 21.792C75.9287 22.1436 75.8457 22.5098 75.6797 22.8906C75.5137 23.2617 75.2744 23.6035 74.9619 23.916C74.6299 24.248 74.2344 24.5117 73.7754 24.707C73.3262 24.9023 72.8232 25 72.2666 25H64.3125L71.959 11.626Z" fill="#5F789A"/>
<path d="M80.7773 25.1758C79.6348 25.1758 78.7119 24.8193 78.0088 24.1064C77.1885 23.2666 76.7783 22.0166 76.7783 20.3564C76.7783 19.6533 76.8516 18.9111 76.998 18.1299C77.1348 17.3486 77.3398 16.5771 77.6133 15.8154C78.2383 14.0967 79.0928 12.71 80.1768 11.6553C81.4268 10.4541 82.8672 9.85352 84.498 9.85352C85.3086 9.85352 85.9141 9.99512 86.3145 10.2783C86.7246 10.5518 86.9297 10.918 86.9297 11.377V11.5967L87.252 10H91.5732L89.4199 20.1953C89.332 20.4883 89.2881 20.8105 89.2881 21.1621C89.2881 22.0215 89.6982 22.4512 90.5186 22.4512C91.0654 22.4512 91.5635 22.1729 92.0127 21.6162C92.3936 21.1475 92.7061 20.4834 92.9502 19.624H94.21C93.6729 21.1475 93.0234 22.3535 92.2617 23.2422C91.6172 23.9746 90.8896 24.502 90.0791 24.8242C89.4834 25.0586 88.8535 25.1758 88.1895 25.1758C87.3398 25.1758 86.6611 24.9463 86.1533 24.4873C85.6553 24.0186 85.3525 23.3301 85.2451 22.4219C84.6787 23.2227 84.083 23.8477 83.458 24.2969C82.6572 24.8828 81.7637 25.1758 80.7773 25.1758ZM82.7256 22.2754C82.9502 22.2754 83.1846 22.2168 83.4287 22.0996C83.6826 21.9824 83.9268 21.8164 84.1611 21.6016C84.6885 21.0938 85.04 20.4346 85.2158 19.624L86.6514 12.8564C86.6514 12.7588 86.627 12.6465 86.5781 12.5195C86.5391 12.3828 86.4805 12.2559 86.4023 12.1387C86.168 11.8555 85.8408 11.7139 85.4209 11.7139C85.0205 11.7139 84.6299 11.8457 84.249 12.1094C83.8779 12.373 83.5264 12.7393 83.1943 13.208C82.6084 14.0576 82.125 15.166 81.7441 16.5332C81.5684 17.1387 81.4365 17.7393 81.3486 18.335C81.2607 18.9209 81.2168 19.4531 81.2168 19.9316C81.2168 20.9277 81.4023 21.6016 81.7734 21.9531C81.9004 22.0898 82.042 22.1777 82.1982 22.2168C82.3545 22.2559 82.5303 22.2754 82.7256 22.2754Z" fill="#5F91D6"/>
<path d="M96.3779 25.1758C95.2158 25.1758 94.3125 24.8828 93.668 24.2969C93.0234 23.7012 92.7012 22.8174 92.7012 21.6455C92.7012 21.1572 92.75 20.6738 92.8477 20.1953L95.001 10H99.3223L97.1689 20.1953C97.0615 20.6738 97.0078 21.0352 97.0078 21.2793C97.0078 21.5918 97.0908 21.8359 97.2568 22.0117C97.4229 22.1875 97.6816 22.2754 98.0332 22.2754C98.502 22.2754 98.9609 22.1094 99.4102 21.7773C99.8594 21.4453 100.284 20.9863 100.685 20.4004C101.056 19.8633 101.397 19.2383 101.71 18.5254C102.032 17.8125 102.306 17.0752 102.53 16.3135C102.745 15.5713 102.911 14.8486 103.028 14.1455C103.155 13.4326 103.219 12.8027 103.219 12.2559C103.18 12.3438 103.038 12.417 102.794 12.4756C102.638 12.5244 102.462 12.5488 102.267 12.5488C101.925 12.5488 101.656 12.3828 101.461 12.0508C101.275 11.7676 101.183 11.4258 101.183 11.0254C101.183 10.5371 101.339 10.1465 101.651 9.85352C101.964 9.55078 102.428 9.39941 103.043 9.39941C103.707 9.39941 104.2 9.66797 104.522 10.2051C104.796 10.6543 104.933 11.2549 104.933 12.0068C104.933 12.8369 104.859 13.7354 104.713 14.7021C104.576 15.6689 104.366 16.6211 104.083 17.5586C103.399 19.7852 102.477 21.5381 101.314 22.8174C99.9082 24.3896 98.2627 25.1758 96.3779 25.1758Z" fill="#4F73A5"/>
<path d="M107.423 10H111.744L111.363 11.8604C112.047 11.2549 112.604 10.8252 113.033 10.5713C113.697 10.1904 114.347 10 114.981 10C115.626 10 116.144 10.2295 116.534 10.6885C116.71 10.8936 116.842 11.1328 116.93 11.4062C117.018 11.6699 117.062 11.9531 117.062 12.2559C117.062 12.5293 117.018 12.793 116.93 13.0469C116.842 13.3008 116.71 13.5303 116.534 13.7354C116.339 13.9502 116.1 14.1211 115.816 14.248C115.543 14.375 115.235 14.4385 114.894 14.4385C114.63 14.4385 114.42 14.3945 114.264 14.3066C114.107 14.2188 113.985 14.0918 113.897 13.9258C113.819 13.7598 113.766 13.5986 113.736 13.4424C113.648 13.0225 113.561 12.7441 113.473 12.6074C113.404 12.5098 113.297 12.4609 113.15 12.4609C112.73 12.4609 112.374 12.5488 112.081 12.7246C111.788 12.9004 111.417 13.1934 110.968 13.6035L108.565 25H104.244L107.423 10Z" fill="#607EA6"/>
</svg>
