<svg width="1180" height="515" viewBox="0 0 1180 515" fill="none" xmlns="http://www.w3.org/2000/svg">
<path d="M0 0H1200V513H0V0Z" fill="#FBFBFB"/>
<path d="M764.363 21.1655L803.672 26.7898L794.862 31.4652L795.346 41.7273L785.942 36.7691L774.433 40.2213L764.363 21.1655Z" fill="#2E8B5A"/>
<path d="M764.363 21.1655L803.672 26.7898L794.862 31.4652M764.363 21.1655L774.433 40.2213L785.942 36.7691M764.363 21.1655L790.008 34.6032M764.363 21.1655L794.862 31.4652M794.862 31.4652L795.346 41.7273M795.346 41.7273L785.942 36.7691M795.346 41.7273L790.008 34.6032M785.942 36.7691L790.008 34.6032" stroke="black" stroke-width="0.5"/>
<path d="M733.269 287.347C660.507 357.831 757.021 473.672 578.229 512.866" stroke="#716B6B" stroke-width="2" stroke-dasharray="2 2"/>
<path d="M796 238.678L764 231.101L764 206.052L796 200.029L796 238.678Z" stroke="#515B4B" stroke-opacity="0.2" stroke-width="10"/>
<path d="M973 200.322L1005 207.899L1005 232.948L973 238.971L973 200.322Z" stroke="#515B4B" stroke-opacity="0.2" stroke-width="10"/>
<path d="M864.38 132L872.254 100L898.668 100L904.927 132L864.38 132Z" stroke="#515B4B" stroke-opacity="0.2" stroke-width="10"/>
<path d="M904.62 307L896.746 339L870.332 339L864.073 307L904.62 307Z" stroke="#515B4B" stroke-opacity="0.2" stroke-width="10"/>
<path d="M961.05 266.691L978.721 295.504L959.684 314.378L931.789 295.7L961.05 266.691Z" stroke="#515B4B" stroke-opacity="0.2" stroke-width="10"/>
<path d="M809.12 172.146L791.449 143.334L810.486 124.46L838.381 143.137L809.12 172.146Z" stroke="#515B4B" stroke-opacity="0.2" stroke-width="10"/>
<path d="M932.766 144.11L961.829 126.591L980.867 145.465L962.027 173.119L932.766 144.11Z" stroke="#515B4B" stroke-opacity="0.2" stroke-width="10"/>
<path d="M837.404 294.726L808.341 312.245L789.303 293.371L808.143 265.717L837.404 294.726Z" stroke="#515B4B" stroke-opacity="0.2" stroke-width="10"/>
<path d="M882.5 300.588C928.823 300.588 966.471 263.441 966.471 217.5C966.471 171.559 928.823 134.412 882.5 134.412C836.177 134.412 798.529 171.559 798.529 217.5C798.529 263.441 836.177 300.588 882.5 300.588ZM967 217.5C967 263.563 929.221 301 882.5 301C835.779 301 798 263.563 798 217.5C798 171.437 835.779 134 882.5 134C929.221 134 967 171.437 967 217.5Z" stroke="#515B4B" stroke-opacity="0.2" stroke-width="10"/>
<path d="M882.5 270.615C912.15 270.615 936.308 246.902 936.308 217.5C936.308 188.098 912.15 164.385 882.5 164.385C852.85 164.385 828.692 188.098 828.692 217.5C828.692 246.902 852.85 270.615 882.5 270.615ZM948 217.5C948 253.055 918.742 282 882.5 282C846.258 282 817 253.055 817 217.5C817 181.945 846.258 153 882.5 153C918.742 153 948 181.945 948 217.5Z" stroke="#515B4B" stroke-opacity="0.2" stroke-width="10"/>
<path d="M849.977 203.811L878.558 229.269C894.809 206.211 891.118 190.223 934.85 165" stroke="#46B705" stroke-width="14"/>
<path d="M849.977 203.811L878.558 229.269C894.809 206.211 891.118 190.223 934.85 165" stroke="black" stroke-opacity="0.2" stroke-width="14"/>
</svg>
