<svg width="1200" height="553" viewBox="0 0 1200 553" fill="none" xmlns="http://www.w3.org/2000/svg">
<path fill-rule="evenodd" clip-rule="evenodd" d="M977.626 288.761C978.291 251.965 951.855 219.302 914.466 213.209C878.522 207.352 844.38 227.995 831.976 260.789C831.485 260.699 830.992 260.614 830.497 260.533C789.47 253.848 750.791 281.688 744.106 322.715C737.421 363.742 765.26 402.421 806.288 409.106C838.706 414.388 869.658 398.115 884.518 370.813C892.962 389.398 909.807 403.412 930.907 406.85C965.097 412.422 997.509 388.113 1003.3 352.556C1007.47 326.97 996.722 302.531 977.626 288.761Z" fill="#718CD1" fill-opacity="0.8"/>
<path d="M719.828 509.056L728.414 550H580L595.945 483L603.305 517.989V497.145L626.609 532.133L610.664 483L626.609 517.989V483L643.781 509.056L665.859 483L652.98 509.056L665.859 517.989L677.512 483V532.133L689.164 509.056V532.133L702.043 509.056L710.629 532.133L719.828 509.056Z" fill="#2E8B5A"/>
<path fill-rule="evenodd" clip-rule="evenodd" d="M1022.09 25.7444C1020.43 11.2539 1008.12 0 993.188 0C979.111 0 967.368 9.99797 964.675 23.2805C964.482 23.2767 964.288 23.2748 964.094 23.2748C948.026 23.2748 935 36.3005 935 52.3684C935 68.4364 948.026 81.4621 964.094 81.4621C976.628 81.4621 987.31 73.5359 991.403 62.4225C995.746 69.2219 1003.18 73.7038 1011.61 73.7038C1025 73.7038 1035.86 62.4148 1035.86 48.4893C1035.86 38.4665 1030.23 29.8095 1022.09 25.7444Z" fill="#C2C5CD" fill-opacity="0.2"/>
<path fill-rule="evenodd" clip-rule="evenodd" d="M1152.09 68.7444C1150.43 54.2539 1138.12 43 1123.19 43C1109.11 43 1097.37 52.998 1094.67 66.2805C1094.48 66.2767 1094.29 66.2748 1094.09 66.2748C1078.03 66.2748 1065 79.3005 1065 95.3684C1065 111.436 1078.03 124.462 1094.09 124.462C1106.63 124.462 1117.31 116.536 1121.4 105.423C1125.75 112.222 1133.18 116.704 1141.61 116.704C1155 116.704 1165.86 105.415 1165.86 91.4893C1165.86 81.4665 1160.23 72.8095 1152.09 68.7444Z" fill="#C2C5CD" fill-opacity="0.2"/>
<path d="M63.1341 308.367L0.695585 483.677C0.235271 484.969 0 486.331 0 487.703V553H366L226.984 408.348C221.825 402.98 213.509 402.208 207.45 406.536L166.728 435.623C160.627 439.981 152.067 437.738 148.887 430.948L90.8484 307.037C85.1641 294.901 67.6305 295.742 63.1341 308.367Z" fill="#F3F3F3"/>
<path d="M1134.49 394.391L1197.71 481.477C1199.2 483.526 1200 485.994 1200 488.526V552H834L973.016 407.348C978.175 401.98 986.491 401.208 992.55 405.536L1037.82 437.868C1042.09 440.921 1047.85 440.839 1052.04 437.667L1113.3 391.247C1120 386.171 1129.56 387.589 1134.49 394.391Z" fill="#F3F3F3"/>
<path d="M240 522L233 549.5H354L341 504.5L335 528V514L316 537.5L329 504.5L316 528V504.5L302 522L284 490L294.5 522L284 528L274.5 504.5V537.5L265 522V537.5L254.5 522L247.5 537.5L240 522Z" fill="#235C3E"/>
<path d="M457 522L464 549.5H343L356 504.5L362 528V514L381 537.5L368 504.5L381 528V504.5L395 522L413 504.5L402.5 522L413 528L422.5 504.5V537.5L432 522V537.5L442.5 522L449.5 537.5L457 522Z" fill="#2E8B5A"/>
<path d="M572.5 510.5L584 549.5H695L666.5 541.5L669.5 512L655 541.5L650.5 528L643 543V526L636.5 537.5L627 518L624.5 535.5L615.5 512V532L612 518L606 537.5V522L595 541.5L591 515.5L588.5 537.5L572.5 510.5Z" fill="#235C3E"/>
<path d="M766 522L773 549.5H652L665 504.5L671 528V514L690 537.5L677 504.5L690 528V504.5L704 522L722 504.5L711.5 522L722 528L731.5 504.5V537.5L741 522V537.5L751.5 522L758.5 537.5L766 522Z" fill="#2E8B5A"/>
<path d="M406.543 511L418.133 550H530L501.277 542L504.301 512.5L489.688 542L485.152 528.5L477.594 543.5V526.5L471.043 538L461.469 518.5L458.949 536L449.879 512.5V532.5L446.352 518.5L440.305 538V522.5L429.219 542L425.188 516L422.668 538L406.543 511Z" fill="#235C3E"/>
<path d="M601.891 521.889L608.945 550H487L500.102 504L506.148 528.022V513.711L525.297 537.733L512.195 504L525.297 528.022V504L539.406 521.889L557.547 504L546.965 521.889L557.547 528.022L567.121 504V537.733L576.695 521.889V537.733L587.277 521.889L594.332 537.733L601.891 521.889Z" fill="#33423A"/>
<path d="M634 522L627 549.5H748L735 504.5L729 528V514L710 537.5L723 504.5L710 528V504.5L696 522L678 490L688.5 522L678 528L668.5 504.5V537.5L659 522V537.5L648.5 522L641.5 537.5L634 522Z" fill="#235C3E"/>
<path d="M851 522L858 549.5H737L750 504.5L756 528V514L775 537.5L762 504.5L775 528V504.5L789 522L807 504.5L796.5 522L807 528L816.5 504.5V537.5L826 522V537.5L836.5 522L843.5 537.5L851 522Z" fill="#214030"/>
<path d="M966.5 510.5L978 549.5H1089L1060.5 541.5L1063.5 512L1049 541.5L1044.5 528L1037 543V526L1030.5 537.5L1021 518L1018.5 535.5L1009.5 512V532L1006 518L1000 537.5V522L989 541.5L985 515.5L982.5 537.5L966.5 510.5Z" fill="#235C3E"/>
<path d="M209.828 509.056L218.414 550H70L85.9453 483L93.3047 517.989V497.145L116.609 532.133L100.664 483L116.609 517.989V483L133.781 509.056L155.859 483L142.98 509.056L155.859 517.989L167.512 483V532.133L179.164 509.056V532.133L192.043 509.056L200.629 532.133L209.828 509.056Z" fill="#357955"/>
<path d="M800.543 511L812.133 550H924L895.277 542L898.301 512.5L883.688 542L879.152 528.5L871.594 543.5V526.5L865.043 538L855.469 518.5L852.949 536L843.879 512.5V532.5L840.352 518.5L834.305 538V522.5L823.219 542L819.188 516L816.668 538L800.543 511Z" fill="#235C3E"/>
<path d="M995.891 521.889L1002.95 550H881L894.102 504L900.148 528.022V513.711L919.297 537.733L906.195 504L919.297 528.022V504L933.406 521.889L951.547 504L940.965 521.889L951.547 528.022L961.121 504V537.733L970.695 521.889V537.733L981.277 521.889L988.332 537.733L995.891 521.889Z" fill="#2E8B5A"/>
<path fill-rule="evenodd" clip-rule="evenodd" d="M745.091 297.744C743.43 283.254 731.123 272 716.188 272C702.111 272 690.368 281.998 687.675 295.28C687.482 295.277 687.288 295.275 687.094 295.275C671.026 295.275 658 308.3 658 324.368C658 340.436 671.026 353.462 687.094 353.462C699.628 353.462 710.31 345.536 714.403 334.423C718.746 341.222 726.176 345.704 734.613 345.704C748.003 345.704 758.858 334.415 758.858 320.489C758.858 310.466 753.235 301.81 745.091 297.744Z" fill="#BFCBEA"/>
<path d="M277 522L284 549.5H163L176 504.5L182 528V514L201 537.5L188 504.5L201 528V504.5L215 522L233 504.5L222.5 522L233 528L242.5 504.5V537.5L252 522V537.5L262.5 522L269.5 537.5L277 522Z" fill="#2E8B5A"/>
<path d="M114.891 521.889L121.945 550H0L13.1016 504L19.1484 528.022V513.711L38.2969 537.733L25.1953 504L38.2969 528.022V504L52.4062 521.889L70.5469 504L59.9648 521.889L70.5469 528.022L80.1211 504V537.733L89.6953 521.889V537.733L100.277 521.889L107.332 537.733L114.891 521.889Z" fill="#2E8B5A"/>
<path fill-rule="evenodd" clip-rule="evenodd" d="M1037.09 298.744C1035.43 284.254 1023.12 273 1008.19 273C994.111 273 982.368 282.998 979.675 296.28C979.482 296.277 979.288 296.275 979.094 296.275C963.026 296.275 950 309.3 950 325.368C950 341.436 963.026 354.462 979.094 354.462C991.628 354.462 1002.31 346.536 1006.4 335.423C1010.75 342.222 1018.18 346.704 1026.61 346.704C1040 346.704 1050.86 335.415 1050.86 321.489C1050.86 311.466 1045.23 302.81 1037.09 298.744Z" fill="#BFCBEA"/>
<path d="M83.5 510.5L95 549.5H206L177.5 541.5L180.5 512L166 541.5L161.5 528L154 543V526L147.5 537.5L138 518L135.5 535.5L126.5 512V532L123 518L117 537.5V522L106 541.5L102 515.5L99.5 537.5L83.5 510.5Z" fill="#093F22"/>
<path d="M827.573 253.026C839.817 238.334 857.162 238.742 864.304 240.783L859.407 257.924C843.694 262.413 815.329 267.719 827.573 253.026Z" fill="#0F5A33"/>
<path d="M824.512 256.088H819.002L828.797 247.517L826.96 250.578L828.797 260.373L839.204 263.434H830.021L826.96 267.719V262.21L820.839 263.434L824.512 256.088Z" fill="black" stroke="black"/>
<path d="M862.462 240.171C854.026 236.663 832.965 243.191 828.183 252.415C819.614 268.943 847.767 260.986 856.339 259.149" stroke="black" stroke-width="5"/>
<path d="M846.544 361.524C835.747 351.267 840.945 324.403 848.077 316.259L873.206 323.998C876.545 347.444 858.788 373.156 846.544 361.524Z" fill="#0F5A33"/>
<path d="M847.255 318.425C837.244 327.906 840.781 367.688 857.569 361.525C868.229 357.611 872.04 337.969 873.741 327.729" stroke="black" stroke-width="5"/>
<path d="M790.015 209.091C790.015 209.091 786.953 160.728 869.598 139.302C935.714 122.161 945.519 198.888 932.255 229.293C923.888 253.372 912.201 324.958 935.928 321.733C959.656 318.508 958.579 331.587 949.396 335.201C773.449 404.45 839.585 231.445 857.166 229.312C825.862 230.659 815.683 209.091 790.015 209.091Z" fill="#2E8B5A"/>
<path d="M891.851 223.783C886.29 224.515 864.476 228.954 857.569 229.293M857.569 229.293C825.949 230.844 815.792 209.091 790.015 209.091C790.015 209.091 786.953 160.728 869.598 139.302C935.714 122.161 945.519 198.888 932.255 229.293C923.888 253.372 912.201 324.958 935.928 321.733C959.656 318.508 958.579 331.587 949.396 335.201C772.077 404.99 840.632 228.731 857.569 229.293Z" stroke="black" stroke-width="5"/>
<path d="M864.304 144.81C795.126 163.867 792.086 205.624 792.086 205.624C820.838 198.684 819.614 245.21 917.563 212.764C920.012 160.118 916.951 130.308 864.304 144.81Z" fill="#329B64"/>
<path d="M831.857 287.45C856.345 285.409 909.604 348.109 893.69 349.893C828.186 357.238 826.345 311.325 831.857 287.45Z" fill="#F4F839" stroke="black" stroke-width="5"/>
<path d="M835.038 291.77C851.663 290.348 887.821 334.022 877.017 335.265C832.546 340.382 831.296 308.4 835.038 291.77Z" fill="#FFC737"/>
<path d="M882.528 211.572C881.875 208.115 881.054 223.787 872.553 227.316C867.791 227.728 865.052 227.677 867.93 227.956C869.682 228.126 871.213 227.872 872.553 227.316C877.28 226.906 883.999 226.039 889.197 223.938L882.528 211.572Z" fill="#FF0000"/>
<path d="M882.528 211.572C881.772 207.57 880.791 229.205 867.93 227.956C862.195 227.4 878.761 228.156 889.197 223.938L882.528 211.572Z" stroke="black" stroke-width="2"/>
<circle cx="880.832" cy="171.135" r="14.0802" fill="black"/>
<ellipse cx="820.935" cy="178.963" rx="14.0802" ry="3.67311" transform="rotate(-41.7296 820.935 178.963)" fill="black"/>
<circle cx="883.894" cy="163.177" r="4.89748" fill="white"/>
<circle cx="890.015" cy="169.299" r="2.44874" fill="white"/>
<path d="M946.899 153.84C950.859 154.558 953.004 158.895 951.17 162.478L945.698 173.171C943.451 177.56 937.164 177.517 934.978 173.097L928.631 160.261C926.445 155.841 930.228 150.818 935.08 151.698L946.899 153.84Z" fill="black"/>
<path d="M912.894 113.321C916.768 109.902 922.865 112.652 922.865 117.82L922.864 148.711C922.864 151.039 920.327 152.48 918.327 151.287L896.48 138.252C892.99 136.169 892.537 131.291 895.584 128.601L912.894 113.321Z" fill="black"/>
<path d="M839.782 303.474C839.447 301.828 841.167 300.528 842.659 301.297L847.862 303.982C849.17 304.657 849.326 306.466 848.151 307.354L844.116 310.407C842.942 311.295 841.243 310.653 840.95 309.21L839.782 303.474Z" fill="black"/>
<path d="M843.454 316.942C843.119 315.296 844.839 313.996 846.331 314.766L851.534 317.45C852.842 318.125 852.997 319.934 851.823 320.822L847.788 323.875C846.614 324.763 844.915 324.121 844.622 322.679L843.454 316.942Z" fill="black"/>
<path d="M853.249 312.044C852.914 310.399 854.634 309.098 856.126 309.868L861.329 312.552C862.637 313.227 862.792 315.037 861.618 315.925L857.583 318.977C856.409 319.866 854.71 319.224 854.416 317.781L853.249 312.044Z" fill="black"/>
<path d="M938.605 259.016C940.794 261.558 939.908 265.491 936.842 266.85L927.712 270.896C923.956 272.561 919.906 269.236 920.808 265.227L923.422 253.613C924.325 249.604 929.408 248.335 932.089 251.448L938.605 259.016Z" fill="black"/>
<path d="M952.674 227.038C955.05 230.286 953.617 234.907 949.819 236.241L938.486 240.222C933.834 241.856 929.306 237.492 930.767 232.783L935.009 219.106C936.47 214.397 942.672 213.362 945.583 217.342L952.674 227.038Z" fill="black"/>
<path d="M954.684 185.957C958.127 188.041 958.582 192.858 955.59 195.55L946.66 203.584C942.995 206.882 937.137 204.597 936.674 199.688L935.328 185.432C934.864 180.523 940.191 177.182 944.409 179.735L954.684 185.957Z" fill="black"/>
<path d="M902.277 283.695C894.851 283.83 889.979 274.515 882.562 292.144C875.146 309.773 904.035 312.546 902.277 283.695Z" fill="#0F5A33" fill-opacity="0.2"/>
<path d="M910.747 248.801C907.959 250.349 904.235 247.801 904.978 255.978C905.721 264.154 917.229 259.381 910.747 248.801Z" fill="#0F5A33" fill-opacity="0.2"/>
<path d="M905.378 231.675C902.642 230.038 902.981 225.538 896.277 230.277C889.573 235.016 899.468 242.585 905.378 231.675Z" fill="#0F5A33" fill-opacity="0.2"/>
<path d="M842.601 283.611C845.4 282.083 849.105 284.659 848.423 276.477C847.741 268.296 836.198 272.983 842.601 283.611Z" fill="#0F5A33" fill-opacity="0.2"/>
<path d="M911.888 195.076C909.151 193.439 909.491 188.939 902.787 193.678C896.082 198.417 905.978 205.986 911.888 195.076Z" fill="#0F5A33" fill-opacity="0.2"/>
<path d="M904.096 364.585C915.727 347.445 913.278 329.934 921.236 319.896L881.744 325.163C877.853 343.706 891.275 383.481 904.096 364.585Z" fill="#0F5A33"/>
<path d="M921.234 325.405C908.976 335.436 916.949 361.817 896.213 366.67C888.79 368.408 879.266 338.982 880.447 328.669" stroke="black" stroke-width="5"/>
<path d="M858.678 243.224L865.99 245.698L836.615 245.749L826.961 235.415L831.246 236.027L838.592 242.149L858.678 243.224Z" fill="white" stroke="black" stroke-width="2"/>
<path d="M824.271 269.2L826.349 239.088L839.204 248.883L863.791 247.578L860.785 280.216L833.696 281.096L824.271 269.2Z" fill="#C4C4C4" stroke="black" stroke-width="5"/>
<path d="M835.529 277.043L837.978 252.556L859.404 251.944L856.344 276.431L835.529 277.043Z" fill="#2E8B5A"/>
<path d="M828.183 267.86L829.407 246.434L837.366 252.556L834.917 276.431L828.183 267.86Z" fill="#1B633D"/>
<path d="M845.208 272.907C844.055 272.948 843.167 272.699 842.546 272.16C841.925 271.613 841.596 270.825 841.56 269.795C841.54 269.244 841.581 268.76 841.681 268.344L843.938 255.572L847.663 254.933L846.654 260.671C847.129 260.358 847.534 260.145 847.868 260.035C848.113 259.952 848.392 259.905 848.705 259.894C849.652 259.86 850.384 260.152 850.9 260.768C851.478 261.465 851.793 262.58 851.848 264.112C851.866 264.639 851.837 265.213 851.76 265.834C851.683 266.447 851.552 267.058 851.368 267.666C850.924 269.125 850.249 270.304 849.341 271.202C848.241 272.28 846.863 272.848 845.208 272.907ZM846.542 270.41C847.052 270.392 847.543 270.033 848.012 269.332C848.419 268.707 848.745 267.896 848.99 266.897C849.219 265.916 849.318 264.985 849.287 264.104C849.263 263.42 849.136 262.864 848.906 262.435C848.782 262.2 848.632 262.02 848.454 261.894C848.276 261.768 848.076 261.71 847.854 261.717C847.566 261.728 847.307 261.766 847.079 261.832C846.736 261.934 846.501 262.066 846.375 262.228L845.219 268.701C845.177 268.908 845.159 269.103 845.166 269.284C845.194 270.067 845.652 270.442 846.542 270.41Z" fill="white"/>
<path d="M837.981 247.658L834.92 279.492" stroke="black" stroke-width="2"/>
<path d="M857.571 262.35C869.815 247.658 887.16 248.066 894.302 250.106L889.405 267.248C873.692 271.737 845.327 277.043 857.571 262.35Z" fill="#0F5A33"/>
<path d="M854.51 265.411H849L858.795 256.841L856.958 259.902L858.795 269.697L869.202 272.758H860.019L856.958 277.043V271.533L850.837 272.758L854.51 265.411Z" fill="black" stroke="black"/>
<path d="M892.46 249.495C884.024 245.986 862.963 252.515 858.181 261.739C849.612 278.267 877.765 270.309 886.337 268.472" stroke="black" stroke-width="5"/>
<path fill-rule="evenodd" clip-rule="evenodd" d="M955.091 367.744C953.43 353.254 941.123 342 926.188 342C912.111 342 900.368 351.998 897.675 365.28C897.482 365.277 897.288 365.275 897.094 365.275C881.026 365.275 868 378.3 868 394.368C868 410.436 881.026 423.462 897.094 423.462C909.628 423.462 920.31 415.536 924.403 404.423C928.746 411.222 936.176 415.704 944.613 415.704C958.003 415.704 968.858 404.415 968.858 390.489C968.858 380.466 963.235 371.81 955.091 367.744Z" fill="#BFCBEA"/>
</svg>
