<svg width="444" height="349" viewBox="0 0 444 349" fill="none" xmlns="http://www.w3.org/2000/svg">
<mask id="path-1-inside-1" fill="white">
<path fill-rule="evenodd" clip-rule="evenodd" d="M414 4H30C15.6406 4 4 15.6406 4 30V319C4 333.359 15.6406 345 30 345H414C428.359 345 440 333.359 440 319V30C440 15.6406 428.359 4 414 4ZM30 0C13.4315 0 0 13.4315 0 30V319C0 335.569 13.4315 349 30 349H414C430.569 349 444 335.569 444 319V30C444 13.4315 430.569 0 414 0H30Z"/>
</mask>
<path fill-rule="evenodd" clip-rule="evenodd" d="M414 4H30C15.6406 4 4 15.6406 4 30V319C4 333.359 15.6406 345 30 345H414C428.359 345 440 333.359 440 319V30C440 15.6406 428.359 4 414 4ZM30 0C13.4315 0 0 13.4315 0 30V319C0 335.569 13.4315 349 30 349H414C430.569 349 444 335.569 444 319V30C444 13.4315 430.569 0 414 0H30Z" fill="white"/>
<path d="M30 7H414V1H30V7ZM7 30C7 17.2975 17.2975 7 30 7V1C13.9837 1 1 13.9838 1 30H7ZM7 319V30H1V319H7ZM30 342C17.2975 342 7 331.703 7 319H1C1 335.016 13.9838 348 30 348V342ZM414 342H30V348H414V342ZM437 319C437 331.703 426.703 342 414 342V348C430.016 348 443 335.016 443 319H437ZM437 30V319H443V30H437ZM414 7C426.703 7 437 17.2975 437 30H443C443 13.9837 430.016 1 414 1V7ZM3 30C3 15.0883 15.0883 3 30 3V-3C11.7746 -3 -3 11.7746 -3 30H3ZM3 319V30H-3V319H3ZM30 346C15.0883 346 3 333.912 3 319H-3C-3 337.225 11.7746 352 30 352V346ZM414 346H30V352H414V346ZM441 319C441 333.912 428.912 346 414 346V352C432.225 352 447 337.225 447 319H441ZM441 30V319H447V30H441ZM414 3C428.912 3 441 15.0883 441 30H447C447 11.7746 432.225 -3 414 -3V3ZM30 3H414V-3H30V3Z" fill="black" fill-opacity="0.1" mask="url(#path-1-inside-1)"/>
<path d="M196.549 61.5127C195.885 61.5127 195.323 61.4053 194.864 61.1904C194.415 60.9756 194.073 60.6777 193.839 60.2969C193.614 59.9258 193.502 59.5059 193.502 59.0371C193.502 58.5391 193.609 58.041 193.824 57.543C194.127 57.9336 194.439 58.2119 194.762 58.3779C195.094 58.5439 195.45 58.627 195.831 58.627C196.358 58.627 196.812 58.4707 197.193 58.1582C197.574 57.8359 197.892 57.4014 198.146 56.8545C198.37 56.3662 198.536 55.8193 198.644 55.2139C198.751 54.5986 198.805 53.9883 198.805 53.3828C198.805 52.2305 198.604 51.3564 198.204 50.7607C197.726 50.0479 196.974 49.6914 195.948 49.6914C195.392 49.6914 194.913 49.7891 194.513 49.9844L192.14 61H187.818L192.14 40.9609C191.524 40.9805 190.982 41.0977 190.514 41.3125C190.055 41.5176 189.659 41.8447 189.327 42.2939C188.604 43.2803 188.243 44.9062 188.243 47.1719C188.243 47.8164 188.316 48.3145 188.463 48.666C188.502 48.793 188.551 48.9053 188.609 49.0029C188.648 49.0713 188.668 49.1396 188.668 49.208C187.594 49.208 186.798 48.9932 186.28 48.5635C185.733 48.1045 185.46 47.3477 185.46 46.293C185.46 45.2578 185.65 44.2764 186.031 43.3486C186.422 42.4209 187.013 41.6055 187.804 40.9023C188.653 40.1406 189.732 39.5498 191.041 39.1299C192.35 38.71 193.897 38.5 195.685 38.5C196.036 38.5 196.412 38.5195 196.812 38.5586L197.53 38.6172C198.917 38.7344 199.708 38.7979 199.903 38.8076C200.411 38.8467 200.963 38.8662 201.559 38.8662C202.604 38.8662 203.507 38.7441 204.269 38.5C204.249 38.5879 204.21 38.7881 204.151 39.1006C204.103 39.4131 204.034 39.7158 203.946 40.0088C203.868 40.292 203.771 40.5459 203.653 40.7705C203.204 41.6592 202.457 42.1035 201.412 42.1035C199.928 42.1035 198.238 41.9033 196.344 41.5029L194.85 48.4609C195.455 48.2754 195.992 48.1387 196.461 48.0508C196.93 47.9629 197.408 47.9189 197.896 47.9189C199.576 47.9189 200.86 48.4414 201.749 49.4863C202.159 49.9844 202.467 50.5703 202.672 51.2441C202.877 51.918 202.979 52.6602 202.979 53.4707C202.979 53.9883 202.926 54.5449 202.818 55.1406C202.711 55.7266 202.55 56.3076 202.335 56.8838C202.11 57.499 201.822 58.085 201.471 58.6416C201.119 59.1885 200.714 59.6719 200.255 60.0918C199.21 61.0391 197.975 61.5127 196.549 61.5127Z" fill="#0E4F2D"/>
<path d="M209.103 68.5C208.634 68.5 208.194 68.4365 207.784 68.3096C207.384 68.1924 207.037 68.0117 206.744 67.7676C206.432 67.5234 206.188 67.2158 206.012 66.8447C205.836 66.4834 205.748 66.0635 205.748 65.585C205.748 64.4521 206.28 63.4805 207.345 62.6699C208.146 62.0742 209.244 61.5566 210.641 61.1172L211.007 59.5059C210.421 60.1504 209.786 60.6045 209.103 60.8682C208.575 61.0732 208.009 61.1758 207.403 61.1758C206.446 61.1758 205.689 60.8926 205.133 60.3262C204.508 59.7012 204.195 58.7881 204.195 57.5869C204.195 57.0205 204.273 56.3662 204.43 55.624L206.466 46H210.787L208.634 56.1953C208.575 56.4395 208.546 56.6934 208.546 56.957C208.546 57.3379 208.609 57.6406 208.736 57.8652C208.883 58.1387 209.117 58.2754 209.439 58.2754C209.967 58.2754 210.44 58.041 210.86 57.5723C211.222 57.1719 211.529 56.5859 211.783 55.8145L213.878 46H218.199L215.226 59.916C216.173 59.6035 216.93 59.1348 217.496 58.5098C218.111 57.8359 218.614 56.874 219.005 55.624H220.265C219.728 57.4014 218.927 58.7734 217.862 59.7402C217.081 60.4434 216.114 60.9414 214.962 61.2344L214.508 63.4023C214.127 65.3164 213.365 66.7031 212.223 67.5625C211.393 68.1875 210.353 68.5 209.103 68.5ZM208.414 66.1562C208.717 66.1562 209.039 65.9365 209.381 65.4971C209.713 65.0674 209.972 64.3984 210.157 63.4902L210.333 62.626C209.425 62.9678 208.746 63.3145 208.297 63.666C207.701 64.1152 207.403 64.6182 207.403 65.1748C207.403 65.4385 207.486 65.6582 207.652 65.834C207.838 66.0488 208.092 66.1562 208.414 66.1562Z" fill="#50AF1A"/>
<path d="M229.845 61.1758C228.653 61.1758 227.75 60.8828 227.135 60.2969C226.529 59.7109 226.227 58.8955 226.227 57.8506C226.227 57.5088 226.285 56.9961 226.402 56.3125C226.422 56.1562 226.441 56.0488 226.461 55.9902C226.48 55.7949 226.5 55.6631 226.52 55.5947C226.559 55.3994 226.578 55.1992 226.578 54.9941C226.578 54.0371 226.197 53.5586 225.436 53.5586C225.182 53.5586 224.908 53.6465 224.615 53.8223L224.132 54.1738L223.517 54.6719L222.198 61H217.877L221.085 46H225.406L224.117 51.9473C224.762 51.3027 225.387 50.6533 225.992 49.999L226.212 49.75C227.374 48.5 228.165 47.665 228.585 47.2451C229.278 46.5518 229.933 46.1025 230.548 45.8975C230.89 45.79 231.246 45.7363 231.617 45.7363C232.291 45.7363 232.804 45.9219 233.155 46.293C233.507 46.6543 233.683 47.1279 233.683 47.7139C233.683 48.3291 233.517 48.8076 233.185 49.1494C232.862 49.4912 232.398 49.6621 231.793 49.6621C231.236 49.6621 230.812 49.4912 230.519 49.1494C230.255 48.8564 230.133 48.5146 230.152 48.124C229.84 48.3096 229.542 48.5293 229.259 48.7832C228.985 49.0273 228.683 49.3203 228.351 49.6621L228.058 49.9844C227.921 50.1211 227.735 50.3262 227.501 50.5996C227.257 50.8828 226.959 51.2002 226.607 51.5518C226.949 51.4736 227.369 51.4346 227.867 51.4346C228.902 51.4346 229.649 51.6738 230.108 52.1523C230.519 52.5723 230.724 53.2607 230.724 54.2178C230.724 54.54 230.665 55.0137 230.548 55.6387C230.499 55.8828 230.455 56.1416 230.416 56.415C230.377 56.6787 230.357 56.9277 230.357 57.1621C230.357 57.9043 230.758 58.2754 231.559 58.2754C231.861 58.2754 232.12 58.2266 232.335 58.1289C232.56 58.0215 232.765 57.8555 232.95 57.6309C233.126 57.4258 233.297 57.167 233.463 56.8545C233.629 56.542 233.824 56.1318 234.049 55.624H235.309C234.049 59.3252 232.228 61.1758 229.845 61.1758Z" fill="#156D38"/>
<path d="M237.022 61.1758C236.065 61.1758 235.309 60.8926 234.752 60.3262C234.127 59.7012 233.814 58.7881 233.814 57.5869C233.814 57.0205 233.893 56.3662 234.049 55.624L236.085 46H240.406L238.253 56.1953C238.194 56.498 238.165 56.7812 238.165 57.0449C238.165 57.8652 238.463 58.2754 239.059 58.2754C239.605 58.2754 240.099 58.0264 240.538 57.5283C240.89 57.1084 241.197 56.4736 241.461 55.624L243.497 46H247.818L245.665 56.1953C245.577 56.4883 245.533 56.8105 245.533 57.1621C245.533 57.5723 245.631 57.8604 245.826 58.0264C246.021 58.1924 246.334 58.2754 246.764 58.2754C247.32 58.2754 247.818 58.0264 248.258 57.5283C248.648 57.0889 248.961 56.4541 249.195 55.624H250.455C249.918 57.1475 249.269 58.3535 248.507 59.2422C247.862 59.9746 247.135 60.502 246.324 60.8242C245.729 61.0586 245.099 61.1758 244.435 61.1758C243.575 61.1758 242.892 60.9365 242.384 60.458C241.876 59.9795 241.568 59.2715 241.461 58.334C240.777 59.4277 240.006 60.209 239.146 60.6777C238.531 61.0098 237.823 61.1758 237.022 61.1758Z" fill="#0C3976"/>
<path d="M254.234 68.5C253.287 68.5 252.501 68.2559 251.876 67.7676C251.563 67.5234 251.319 67.2158 251.144 66.8447C250.968 66.4834 250.88 66.0635 250.88 65.585C250.88 64.4912 251.383 63.5391 252.389 62.7285C253.16 62.123 254.225 61.6055 255.582 61.1758C255.523 59.0566 254.806 57.9971 253.429 57.9971H252.491L252.887 56.1953H253.751C254.278 56.1953 254.771 56.0635 255.23 55.7998C255.689 55.5361 256.085 55.165 256.417 54.6865C256.739 54.208 256.988 53.6562 257.164 53.0312C257.35 52.4062 257.442 51.7422 257.442 51.0391C257.442 50.3066 257.33 49.7305 257.105 49.3105C256.803 48.7441 256.305 48.4609 255.611 48.4609C254.508 48.4609 253.551 49.0078 252.74 50.1016C251.852 51.293 251.09 53.1338 250.455 55.624H249.195C249.479 54.5205 249.732 53.5879 249.957 52.8262C250.182 52.0547 250.431 51.3369 250.704 50.6729C251.339 49.0908 252.13 47.8994 253.077 47.0986C254.171 46.1904 255.558 45.7363 257.237 45.7363C257.95 45.7363 258.6 45.8438 259.186 46.0586C259.771 46.2637 260.27 46.5664 260.68 46.9668C261.539 47.8262 261.969 49.0029 261.969 50.4971C261.969 51.6787 261.656 52.8164 261.031 53.9102C260.533 54.7891 259.879 55.5459 259.068 56.1807C258.727 56.4443 258.399 56.6592 258.087 56.8252C257.784 56.9912 257.53 57.0938 257.325 57.1328C257.813 57.2988 258.292 57.6406 258.761 58.1582C259.269 58.7344 259.61 59.3936 259.786 60.1357C260.343 59.9795 260.831 59.7891 261.251 59.5645C261.681 59.3398 262.066 59.0615 262.408 58.7295C262.76 58.3877 263.072 57.9678 263.346 57.4697C263.629 56.9619 263.893 56.3467 264.137 55.624H265.396C264.869 57.4307 264.039 58.832 262.906 59.8281C262.086 60.541 261.085 61.0439 259.903 61.3369C259.884 62.46 259.732 63.4658 259.449 64.3545C259.176 65.2432 258.79 65.9951 258.292 66.6104C257.794 67.2256 257.198 67.6943 256.505 68.0166C255.821 68.3389 255.064 68.5 254.234 68.5ZM253.546 66.1562C253.751 66.1562 253.961 66.0635 254.176 65.8779C254.391 65.6924 254.586 65.4336 254.762 65.1016C255.123 64.4277 255.367 63.6025 255.494 62.626C254.566 62.958 253.878 63.2949 253.429 63.6367C252.823 64.1152 252.521 64.6279 252.521 65.1748C252.521 65.4678 252.608 65.7021 252.784 65.8779C252.96 66.0635 253.214 66.1562 253.546 66.1562Z" fill="#5F789A"/>
<path d="M267.74 61.1758C266.598 61.1758 265.675 60.8193 264.972 60.1064C264.151 59.2666 263.741 58.0166 263.741 56.3564C263.741 55.6533 263.814 54.9111 263.961 54.1299C264.098 53.3486 264.303 52.5771 264.576 51.8154C265.201 50.0967 266.056 48.71 267.14 47.6553C268.39 46.4541 269.83 45.8535 271.461 45.8535C272.271 45.8535 272.877 45.9951 273.277 46.2783C273.688 46.5518 273.893 46.918 273.893 47.377V47.5967L274.215 46H278.536L276.383 56.1953C276.295 56.4883 276.251 56.8105 276.251 57.1621C276.251 58.0215 276.661 58.4512 277.481 58.4512C278.028 58.4512 278.526 58.1729 278.976 57.6162C279.356 57.1475 279.669 56.4834 279.913 55.624H281.173C280.636 57.1475 279.986 58.3535 279.225 59.2422C278.58 59.9746 277.853 60.502 277.042 60.8242C276.446 61.0586 275.816 61.1758 275.152 61.1758C274.303 61.1758 273.624 60.9463 273.116 60.4873C272.618 60.0186 272.315 59.3301 272.208 58.4219C271.642 59.2227 271.046 59.8477 270.421 60.2969C269.62 60.8828 268.727 61.1758 267.74 61.1758ZM269.688 58.2754C269.913 58.2754 270.147 58.2168 270.392 58.0996C270.646 57.9824 270.89 57.8164 271.124 57.6016C271.651 57.0938 272.003 56.4346 272.179 55.624L273.614 48.8564C273.614 48.7588 273.59 48.6465 273.541 48.5195C273.502 48.3828 273.443 48.2559 273.365 48.1387C273.131 47.8555 272.804 47.7139 272.384 47.7139C271.983 47.7139 271.593 47.8457 271.212 48.1094C270.841 48.373 270.489 48.7393 270.157 49.208C269.571 50.0576 269.088 51.166 268.707 52.5332C268.531 53.1387 268.399 53.7393 268.312 54.335C268.224 54.9209 268.18 55.4531 268.18 55.9316C268.18 56.9277 268.365 57.6016 268.736 57.9531C268.863 58.0898 269.005 58.1777 269.161 58.2168C269.317 58.2559 269.493 58.2754 269.688 58.2754Z" fill="#5F91D6"/>
<path d="M284.483 61.1172C282.843 61.1172 281.583 60.6094 280.704 59.5938C279.903 58.666 279.503 57.377 279.503 55.7266C279.503 55.1895 279.566 54.5303 279.693 53.749C279.811 52.958 279.981 52.1084 280.206 51.2002C280.694 49.2471 281.344 47.3379 282.154 45.4727C283.053 43.4219 284.039 41.7812 285.113 40.5508C286.324 39.1641 287.555 38.4707 288.805 38.4707C289.85 38.4707 290.65 38.7832 291.207 39.4082C291.803 40.0918 292.101 41.1514 292.101 42.5869C292.101 43.7197 291.822 45.0039 291.266 46.4395C290.846 47.5234 290.309 48.6367 289.654 49.7793C290.074 49.9844 290.45 50.2822 290.782 50.6729C291.651 50.6729 292.638 50.4678 293.741 50.0576C294.728 49.7061 295.572 49.2812 296.275 48.7832L296.554 49.6035C295.997 50.1895 295.279 50.6973 294.4 51.127C293.521 51.5469 292.545 51.8496 291.471 52.0352C291.578 52.4062 291.632 52.9043 291.632 53.5293C291.632 54.5254 291.471 55.4775 291.148 56.3857C290.826 57.2939 290.357 58.0996 289.742 58.8027C289.107 59.5352 288.341 60.1064 287.442 60.5166C286.554 60.917 285.567 61.1172 284.483 61.1172ZM285.802 58.4219C286.271 58.4219 286.7 58.2998 287.091 58.0557C287.481 57.8115 287.813 57.4746 288.087 57.0449C288.351 56.6445 288.551 56.2002 288.688 55.7119C288.824 55.2139 288.893 54.7158 288.893 54.2178C288.893 53.4756 288.805 52.9287 288.629 52.5771C288.434 52.6455 288.268 52.6943 288.131 52.7236C288.004 52.7432 287.809 52.7529 287.545 52.7529C287.066 52.7529 286.686 52.6211 286.402 52.3574C286.129 52.0938 285.992 51.7324 285.992 51.2734C285.992 50.6777 286.192 50.2285 286.593 49.9258C286.915 49.6816 287.413 49.5352 288.087 49.4863C288.624 48.5195 289.107 47.3818 289.537 46.0732C289.967 44.7354 290.182 43.5293 290.182 42.4551C290.182 41.8496 290.104 41.4248 289.947 41.1807C289.801 40.9365 289.552 40.8145 289.2 40.8145C288.888 40.8145 288.57 40.9805 288.248 41.3125C287.926 41.6445 287.608 42.1084 287.296 42.7041C286.729 43.8076 286.173 45.2773 285.626 47.1133C285.157 48.666 284.757 50.3359 284.425 52.123C284.122 53.7246 283.971 54.9551 283.971 55.8145C283.971 56.625 284.112 57.25 284.396 57.6895C284.698 58.1777 285.167 58.4219 285.802 58.4219Z" fill="#4F73A5"/>
<path d="M295.689 44.8867H300.011L299.527 47.1426C300.543 46.2832 301.71 45.8535 303.028 45.8535C304.151 45.8535 305.021 46.1953 305.636 46.8789C306.339 47.6797 306.69 48.915 306.69 50.585C306.69 52.1963 306.485 53.71 306.075 55.126C305.558 56.9326 304.806 58.334 303.819 59.3301C302.608 60.5605 301.104 61.1758 299.308 61.1758C298.614 61.1758 298.043 61.0684 297.594 60.8535C297.252 60.6973 296.974 60.4482 296.759 60.1064L295.206 67.416L290.68 68.5L295.689 44.8867ZM298.385 58.5684C299.352 58.5684 300.182 58.0752 300.875 57.0889C301.422 56.3174 301.861 55.2334 302.193 53.8369C302.457 52.7139 302.589 51.6006 302.589 50.4971C302.589 49.5107 302.408 48.8076 302.047 48.3877C301.812 48.1338 301.49 48.0068 301.08 48.0068C300.719 48.0068 300.353 48.1338 299.981 48.3877C299.61 48.6416 299.288 49.0078 299.015 49.4863L297.242 57.8799C297.311 58.0752 297.438 58.2412 297.623 58.3779C297.818 58.5049 298.072 58.5684 298.385 58.5684Z" fill="#607EA6"/>
<path d="M144.198 52.0476C146.87 48.8414 150.655 48.9305 152.214 49.3758L151.145 53.1163C147.716 54.0959 141.527 55.2537 144.198 52.0476Z" fill="#0F5A33"/>
<path d="M143.53 52.7155H142.328L144.466 50.8452L144.065 51.5132L144.466 53.6506L146.737 54.3185H144.733L144.065 55.2536V54.0513L142.729 54.3185L143.53 52.7155Z" fill="black" stroke="black" stroke-width="0.5"/>
<path d="M151.813 49.242C149.972 48.4763 145.376 49.901 144.333 51.9137C142.463 55.5205 148.606 53.784 150.477 53.3831" stroke="black"/>
<path d="M148.339 75.7231C145.983 73.4848 147.117 67.6228 148.673 65.8455L154.157 67.5344C154.886 72.6507 151.011 78.2614 148.339 75.7231Z" fill="#0F5A33"/>
<path d="M148.494 66.3181C146.31 68.387 147.082 77.0682 150.745 75.7232C153.071 74.8692 153.903 70.583 154.274 68.3484" stroke="black"/>
<path d="M136.003 42.4598C136.003 42.4598 135.335 31.9063 153.37 27.2307C167.797 23.4902 169.937 40.2333 167.042 46.8682C165.217 52.1227 162.666 67.7439 167.844 67.0401C173.022 66.3363 172.787 69.1904 170.783 69.979C132.388 85.0903 146.82 47.3377 150.657 46.8723C143.826 47.1663 141.604 42.4598 136.003 42.4598Z" fill="#2E8B5A"/>
<path d="M158.226 45.6659C157.012 45.8256 152.252 46.7943 150.745 46.8682M150.745 46.8682C143.845 47.2066 141.628 42.4598 136.003 42.4598C136.003 42.4598 135.335 31.9063 153.37 27.2307C167.797 23.4902 169.937 40.2333 167.042 46.8682C165.217 52.1227 162.666 67.7439 167.844 67.0401C173.022 66.3363 172.787 69.1904 170.783 69.979C132.089 85.2081 147.049 46.7457 150.745 46.8682Z" stroke="black"/>
<path d="M152.214 28.4329C137.119 32.5913 136.455 41.7035 136.455 41.7035C142.729 40.1889 142.462 50.3417 163.836 43.2615C164.371 31.7732 163.703 25.2683 152.214 28.4329Z" fill="#329B64"/>
<path d="M145.135 59.559C150.478 59.1137 162.1 72.7957 158.628 73.1851C144.334 74.7878 143.932 64.7689 145.135 59.559Z" fill="#F4F839" stroke="black"/>
<path d="M145.828 60.502C149.456 60.1919 157.346 69.7222 154.989 69.9935C145.284 71.1099 145.012 64.1311 145.828 60.502Z" fill="#FFC737"/>
<path d="M156.191 43.0016C156.049 42.2473 155.87 45.6671 154.015 46.4371C152.976 46.5272 152.378 46.516 153.006 46.5769C153.388 46.614 153.722 46.5585 154.015 46.4371C155.046 46.3477 156.512 46.1586 157.647 45.7001L156.191 43.0016Z" fill="#FF0000"/>
<path d="M156.191 43.0016C156.026 42.1283 155.812 46.8493 153.006 46.5769C151.754 46.4555 155.369 46.6205 157.647 45.7001L156.191 43.0016Z" stroke="black" stroke-width="0.5"/>
<circle cx="155.821" cy="34.1775" r="3.07254" fill="black"/>
<ellipse cx="142.752" cy="35.8856" rx="3.07254" ry="0.801531" transform="rotate(-41.7296 142.752 35.8856)" fill="black"/>
<circle cx="156.489" cy="32.4408" r="1.06871" fill="white"/>
<circle cx="157.825" cy="33.7765" r="0.534354" fill="white"/>
<path d="M169.511 30.0706C170.171 30.1903 170.529 30.913 170.223 31.5102L168.559 34.7618C168.185 35.4934 167.137 35.4861 166.772 34.7495L164.842 30.8463C164.478 30.1096 165.108 29.2725 165.917 29.4191L169.511 30.0706Z" fill="black"/>
<path d="M163.331 21.1079C163.976 20.538 164.992 20.9964 164.992 21.8576L164.992 28.6759C164.992 29.4521 164.146 29.9324 163.48 29.5346L158.871 26.7846C158.289 26.4375 158.214 25.6245 158.722 25.1762L163.331 21.1079Z" fill="black"/>
<path d="M147.008 63.7667C146.877 63.1216 147.551 62.6117 148.136 62.9135V62.9135C148.649 63.1781 148.71 63.8875 148.249 64.2356V64.2356C147.789 64.5838 147.123 64.3322 147.008 63.7667V63.7667Z" fill="black"/>
<path d="M147.809 66.7056C147.678 66.0606 148.352 65.5507 148.937 65.8525V65.8525C149.45 66.1171 149.51 66.8264 149.05 67.1746V67.1746C148.59 67.5228 147.924 67.2712 147.809 66.7056V66.7056Z" fill="black"/>
<path d="M149.948 65.6368C149.816 64.9917 150.49 64.4818 151.075 64.7837V64.7837C151.588 65.0483 151.649 65.7576 151.189 66.1058V66.1058C150.729 66.4539 150.063 66.2023 149.948 65.6368V65.6368Z" fill="black"/>
<path d="M168.479 53.3004C168.95 53.7776 168.827 54.5744 168.234 54.8876L166.038 56.0467C165.312 56.4304 164.458 55.8223 164.583 55.0101L165.034 52.0848C165.159 51.2726 166.156 50.9496 166.734 51.5342L168.479 53.3004Z" fill="black"/>
<path d="M171.743 46.7125C172.139 47.2539 171.9 48.024 171.267 48.2463L167.821 49.4568C167.045 49.7291 166.291 49.0019 166.534 48.217L167.824 44.0582C168.068 43.2733 169.101 43.1008 169.587 43.7641L171.743 46.7125Z" fill="black"/>
<path d="M172.292 37.6278C172.866 37.9752 172.941 38.7779 172.443 39.2266L169.727 41.6698C169.116 42.2194 168.14 41.8385 168.063 41.0204L167.654 36.6853C167.576 35.8672 168.464 35.3103 169.167 35.7359L172.292 37.6278Z" fill="black"/>
<path d="M160.501 58.7399C158.88 58.7694 157.817 56.7368 156.199 60.5837C154.58 64.4306 160.884 65.0356 160.501 58.7399Z" fill="#0F5A33" fill-opacity="0.2"/>
<path d="M162.349 51.1252C161.74 51.4631 160.928 50.9071 161.09 52.6913C161.252 54.4756 163.763 53.4339 162.349 51.1252Z" fill="#0F5A33" fill-opacity="0.2"/>
<path d="M161.179 47.3881C160.581 47.0309 160.656 46.049 159.193 47.0831C157.73 48.1172 159.889 49.7688 161.179 47.3881Z" fill="#0F5A33" fill-opacity="0.2"/>
<path d="M147.478 58.7212C148.089 58.3879 148.897 58.95 148.748 57.1646C148.599 55.3792 146.081 56.402 147.478 58.7212Z" fill="#0F5A33" fill-opacity="0.2"/>
<path d="M162.597 39.4017C161.999 39.0445 162.074 38.0626 160.611 39.0967C159.148 40.1309 161.307 41.7825 162.597 39.4017Z" fill="#0F5A33" fill-opacity="0.2"/>
<path d="M160.899 76.3914C163.437 72.651 162.902 68.83 164.639 66.6395L156.021 67.7887C155.172 71.8352 158.101 80.5147 160.899 76.3914Z" fill="#0F5A33"/>
<path d="M164.637 67.8415C161.962 70.0304 164.025 75.9405 159.5 76.9996C157.88 77.3788 155.479 70.8042 155.737 68.5536" stroke="black"/>
<path d="M150.987 49.9084L152.583 50.4483L146.172 50.4595L144.154 48.3379L145.001 48.3378L146.604 49.6737L150.987 49.9084Z" fill="white" stroke="black" stroke-width="0.5"/>
<path d="M143.479 55.5772L143.932 49.0062L146.737 51.1437L152.103 50.8588L151.446 57.981L145.535 58.1731L143.479 55.5772Z" fill="#C4C4C4" stroke="black"/>
<path d="M145.935 57.2883L146.469 51.9448L151.145 51.8112L150.477 57.1547L145.935 57.2883Z" fill="#2E8B5A"/>
<path d="M144.333 55.2846L144.6 50.6089L146.337 51.9448L145.803 57.1548L144.333 55.2846Z" fill="#1B633D"/>
<path d="M148.048 56.3856C147.796 56.3945 147.603 56.3402 147.467 56.2226C147.332 56.1033 147.26 55.9312 147.252 55.7066C147.248 55.5862 147.256 55.4806 147.278 55.3898L147.771 52.6029L148.584 52.4634L148.364 53.7156C148.467 53.6471 148.556 53.6008 148.629 53.5766C148.682 53.5586 148.743 53.5483 148.811 53.5459C149.018 53.5385 149.177 53.6022 149.29 53.7367C149.416 53.8888 149.485 54.132 149.497 54.4663C149.501 54.5813 149.495 54.7066 149.478 54.8422C149.461 54.976 149.432 55.1092 149.392 55.242C149.295 55.5604 149.148 55.8175 148.95 56.0135C148.71 56.2487 148.409 56.3728 148.048 56.3856ZM148.339 55.8408C148.45 55.8369 148.557 55.7584 148.66 55.6054C148.749 55.4691 148.82 55.292 148.873 55.0742C148.923 54.86 148.945 54.6568 148.938 54.4645C148.933 54.3154 148.905 54.194 148.855 54.1004C148.828 54.0491 148.795 54.0098 148.756 53.9824C148.718 53.955 148.674 53.9421 148.625 53.9439C148.562 53.9461 148.506 53.9544 148.456 53.9687C148.381 53.9912 148.33 54.02 148.303 54.0552L148.05 55.4677C148.041 55.513 148.037 55.5555 148.039 55.595C148.045 55.7658 148.145 55.8477 148.339 55.8408Z" fill="white"/>
<path d="M146.471 50.876L145.803 57.8226" stroke="black"/>
<path d="M150.743 54.0817C153.415 50.8756 157.2 50.9647 158.759 51.41L157.69 55.1504C154.261 56.1301 148.071 57.2879 150.743 54.0817Z" fill="#0F5A33"/>
<path d="M150.202 54.8702H149L151.137 53L150.737 53.6679L151.137 55.8054L153.408 56.4733H151.405L150.737 57.4084V56.2061L149.401 56.4733L150.202 54.8702Z" fill="black" stroke="black" stroke-width="0.2"/>
<path d="M158.358 51.2767C156.517 50.511 151.921 51.9356 150.878 53.9484C149.008 57.5552 155.151 55.8187 157.022 55.4178" stroke="black"/>
</svg>
