<svg width="1202" height="531" viewBox="0 0 1202 531" fill="none" xmlns="http://www.w3.org/2000/svg">
<path d="M698.617 118.418L917.001 516.277H446.348L698.617 118.418Z" fill="#F5CC3A"/>
<path d="M822.869 340.566L769.737 346.005V376.127H844.205L822.869 340.566Z" fill="#E4A647" fill-opacity="0.8"/>
<path d="M840.021 370.688L786.89 376.127V406.249H861.357L840.021 370.688Z" fill="#E4A647" fill-opacity="0.8"/>
<path d="M788.146 397.463L770.994 390.77L726.648 397.463V434.279H788.146V397.463Z" fill="#E4A647" fill-opacity="0.8"/>
<path d="M769.738 429.259L752.586 422.565L708.24 429.259V466.074H769.738V429.259Z" fill="#E4A647" fill-opacity="0.8"/>
<path d="M752.586 465.238L735.433 458.544L691.087 465.238V502.053H752.586V465.238Z" fill="#E4A647" fill-opacity="0.8"/>
<path d="M829.145 428.422L811.992 421.728L767.646 428.422V465.237H829.145V428.422Z" fill="#E4A647" fill-opacity="0.8"/>
<path d="M483.998 456.87L537.13 462.309V492.431H462.662L483.998 456.87Z" fill="#E4A647" fill-opacity="0.8"/>
<path d="M591.518 456.034L574.365 449.34L530.019 456.034V492.849H591.518V456.034Z" fill="#E4A647" fill-opacity="0.8"/>
<path d="M499.061 430.095L552.192 435.534V465.656H477.725L499.061 430.095Z" fill="#E4A647" fill-opacity="0.8"/>
<path d="M606.578 429.259L589.425 422.565L541.733 436.789L545.079 466.074H606.578V429.259Z" fill="#956318" fill-opacity="0.8"/>
<path d="M518.723 399.137L571.855 404.575V434.697H497.387L518.723 399.137Z" fill="#E4A647" fill-opacity="0.8"/>
<path d="M626.24 398.3L609.088 391.606L564.742 398.3V435.116H626.24V398.3Z" fill="#E4A647" fill-opacity="0.8"/>
<path d="M538.385 372.362L591.517 377.8V407.922H517.049L538.385 372.362Z" fill="#E4A647" fill-opacity="0.8"/>
<path d="M645.904 371.525L628.752 364.832L584.406 371.525V408.341H645.904V371.525Z" fill="#E4A647" fill-opacity="0.8"/>
<path d="M558.049 341.403L611.181 346.842V376.964H536.713L558.049 341.403Z" fill="#E4A647" fill-opacity="0.8"/>
<path d="M665.566 340.567L648.414 333.873L604.068 340.567V377.382H665.566V340.567Z" fill="#E4A647" fill-opacity="0.8"/>
<path d="M572.692 317.975L625.823 323.414V353.536H551.355L572.692 317.975Z" fill="#E4A647" fill-opacity="0.8"/>
<path d="M680.209 317.139L663.056 310.445L618.71 317.139V353.954H680.209V317.139Z" fill="#E4A647" fill-opacity="0.8"/>
<path d="M592.354 287.017L645.485 292.455V322.577H571.018L592.354 287.017Z" fill="#E4A647" fill-opacity="0.8"/>
<path d="M699.871 286.18L682.718 279.486L638.372 286.18V322.996H699.871V286.18Z" fill="#E4A647" fill-opacity="0.8"/>
<path d="M609.506 260.242L662.638 265.68V295.802H588.17L609.506 260.242Z" fill="#E5A647"/>
<path d="M729.576 262.334L706.148 252.711L661.802 259.405V296.221H723.301L729.576 262.334Z" fill="#E4A647" fill-opacity="0.8"/>
<path d="M629.17 229.283L682.302 234.722V264.844H607.834L629.17 229.283Z" fill="#E4A647" fill-opacity="0.8"/>
<path d="M736.688 228.447L719.535 221.753L675.189 228.447V265.262H736.688V228.447Z" fill="#E4A647" fill-opacity="0.8"/>
<path d="M643.813 199.162L696.944 204.6V234.722H622.477L643.813 199.162Z" fill="#E4A647" fill-opacity="0.8"/>
<path d="M790.238 287.017L737.106 292.455V322.577H811.574L790.238 287.017Z" fill="#E4A647" fill-opacity="0.8"/>
<path d="M776.013 259.405L722.882 264.844V294.966H797.35L776.013 259.405Z" fill="#E4A647" fill-opacity="0.8"/>
<path d="M729.994 179.08L676.862 184.519V214.641H751.33L729.994 179.08Z" fill="#E4A647" fill-opacity="0.8"/>
<path d="M758.443 229.283L705.312 234.722V264.844H779.779L758.443 229.283Z" fill="#E4A647" fill-opacity="0.8"/>
<path d="M806.972 312.955L753.841 318.394V348.516H828.309L806.972 312.955Z" fill="#E4A647" fill-opacity="0.8"/>
<path d="M751.331 211.712L739.198 195.396L689.832 198.325V235.141H760.953L751.331 211.712Z" fill="#E4A647" fill-opacity="0.8"/>
<path d="M663.475 168.203L694.015 173.642V203.764H642.139L663.475 168.203Z" fill="#A38962" fill-opacity="0.8"/>
<path d="M680.627 397.463L663.474 390.77L619.128 397.463V434.279H680.627V397.463Z" fill="#E4A647" fill-opacity="0.8"/>
<path d="M696.525 372.362L679.373 365.668L635.027 372.362V409.177H696.525V372.362Z" fill="#E4A647" fill-opacity="0.8"/>
<path d="M735.852 314.628L718.699 307.935L674.353 314.628V351.444H735.852V314.628Z" fill="#E4A647" fill-opacity="0.8"/>
<path d="M770.574 340.567L753.422 333.873L709.076 340.567V377.382H770.574V340.567Z" fill="#E4A647" fill-opacity="0.8"/>
<path d="M787.727 375.709L770.156 370.688H726.228V407.504H787.727V375.709Z" fill="#998464" fill-opacity="0.8"/>
<path d="M714.934 340.567L697.781 333.873L653.435 340.567V377.382H714.934V340.567Z" fill="#E4A647" fill-opacity="0.9"/>
<path d="M754.258 282.833L737.105 276.14L692.759 282.833V319.649H754.258V282.833Z" fill="#E4A647" fill-opacity="0.8"/>
<path d="M788.982 308.771L771.83 302.078L727.484 308.771V345.587H788.982V308.771Z" fill="#E4A647" fill-opacity="0.8"/>
<path d="M714.096 429.259L696.943 422.565L652.597 429.259V466.074H714.096V429.259Z" fill="#E4A647" fill-opacity="0.8"/>
<path d="M753.422 371.525L736.269 364.832L691.923 371.525V408.341H753.422V371.525Z" fill="#E4A647" fill-opacity="0.8"/>
<path d="M695.688 461.054L678.535 454.36L634.189 461.054V497.87H695.688V461.054Z" fill="#E4A647" fill-opacity="0.8"/>
<path d="M735.014 403.32L717.861 396.626L673.515 403.32V440.136H735.014V403.32Z" fill="#E4A647" fill-opacity="0.8"/>
<path d="M677.282 148.958L717.862 153.56L732.923 181.59L655.945 184.519L677.282 148.958Z" fill="#E4A647" fill-opacity="0.8"/>
<path d="M641.303 461.054L624.15 454.36L579.804 461.054V497.87H641.303V461.054Z" fill="#E4A647" fill-opacity="0.8"/>
<path d="M696.944 118L708.658 136.826L717.443 153.56H675.607L696.944 118Z" fill="#E4A647" fill-opacity="0.8"/>
<path d="M660.965 430.095L643.812 423.401L599.466 430.095V466.911H660.965V430.095Z" fill="#E4A647" fill-opacity="0.8"/>
<path d="M464.336 487.829L517.468 493.267V523.389H443L464.336 487.829Z" fill="#E4A647" fill-opacity="0.8"/>
<path d="M563.906 486.574L625.405 493.267V523.389H563.906V486.574Z" fill="#E4A647" fill-opacity="0.8"/>
<path d="M571.854 486.992L554.701 480.298L510.355 486.992V523.808H571.854V486.992Z" fill="#E4A647" fill-opacity="0.8"/>
<path d="M682.301 487.829L665.148 481.135L620.802 487.829V524.645H682.301V487.829Z" fill="#E4A647" fill-opacity="0.8"/>
<path fill-rule="evenodd" clip-rule="evenodd" d="M580.767 25.7444C582.428 11.2539 594.734 0 609.67 0C623.747 0 635.489 9.99797 638.182 23.2805C638.376 23.2767 638.57 23.2748 638.764 23.2748C654.832 23.2748 667.857 36.3005 667.857 52.3684C667.857 68.4364 654.832 81.4621 638.764 81.4621C626.23 81.4621 615.547 73.5359 611.454 62.4225C607.111 69.2219 599.681 73.7038 591.244 73.7038C577.854 73.7038 566.999 62.4148 566.999 48.4893C566.999 38.4665 572.623 29.8095 580.767 25.7444Z" fill="#C2C5CD" fill-opacity="0.2"/>
<path d="M721.057 407.832C686.402 427.701 643.242 482.089 630 517.62V528H1200V114C1140.57 133.741 1047.74 215.019 1020.12 276.087C988.872 345.154 912.545 298.044 721.057 407.832Z" fill="#46B705"/>
<path d="M65.1341 286.367L2.69558 461.677C2.23527 462.969 2 464.331 2 465.703V531H368L228.984 386.348C223.825 380.98 215.509 380.208 209.45 384.536L168.728 413.623C162.627 417.981 154.067 415.738 150.887 408.948L92.8484 285.037C87.1641 272.901 69.6305 273.742 65.1341 286.367Z" fill="#F3F3F3"/>
<path d="M618.738 141L580.863 152.927L590.315 156.111L591.502 166.316L599.977 159.898L611.893 161.437L618.738 141Z" fill="#2E8B5A"/>
<path d="M618.738 141L580.863 152.927L590.315 156.111M618.738 141L611.893 161.437L599.977 159.898M618.738 141L595.614 158.42M618.738 141L590.315 156.111M590.315 156.111L591.502 166.316M591.502 166.316L599.977 159.898M591.502 166.316L595.614 158.42M599.977 159.898L595.614 158.42" stroke="black" stroke-width="0.5"/>
<path d="M670.088 309.012C618.009 293.993 524.806 252.01 568.627 204.231" stroke="#716B6B" stroke-width="2" stroke-dasharray="2 2"/>
<path d="M697.116 317.751L704.458 331.401L755.291 325.633L709.609 324.089L697.116 317.751Z" fill="white" fill-opacity="0.5"/>
<path fill-rule="evenodd" clip-rule="evenodd" d="M1067.77 40.7444C1069.43 26.2539 1081.73 15 1096.67 15C1110.75 15 1122.49 24.998 1125.18 38.2805C1125.38 38.2767 1125.57 38.2748 1125.76 38.2748C1141.83 38.2748 1154.86 51.3005 1154.86 67.3684C1154.86 83.4364 1141.83 96.4621 1125.76 96.4621C1113.23 96.4621 1102.55 88.5359 1098.45 77.4225C1094.11 84.2219 1086.68 88.7038 1078.24 88.7038C1064.85 88.7038 1054 77.4148 1054 63.4893C1054 53.4665 1059.62 44.8095 1067.77 40.7444Z" fill="#C2C5CD" fill-opacity="0.2"/>
<path fill-rule="evenodd" clip-rule="evenodd" d="M1169.09 87.7444C1167.43 73.2539 1155.12 62 1140.19 62C1126.11 62 1114.37 71.998 1111.67 85.2805C1111.48 85.2767 1111.29 85.2748 1111.09 85.2748C1095.03 85.2748 1082 98.3005 1082 114.368C1082 130.436 1095.03 143.462 1111.09 143.462C1123.63 143.462 1134.31 135.536 1138.4 124.423C1142.75 131.222 1150.18 135.704 1158.61 135.704C1172 135.704 1182.86 124.415 1182.86 110.489C1182.86 100.466 1177.23 91.8095 1169.09 87.7444Z" fill="#536CAD"/>
<path d="M768 500L775 527.5H654L667 482.5L673 506V492L692 515.5L679 482.5L692 506V482.5L706 500L724 482.5L713.5 500L724 506L733.5 482.5V515.5L743 500V515.5L753.5 500L760.5 515.5L768 500Z" fill="#2E8B5A"/>
<path d="M636 500L629 527.5H750L737 482.5L731 506V492L712 515.5L725 482.5L712 506V482.5L698 500L680 468L690.5 500L680 506L670.5 482.5V515.5L661 500V515.5L650.5 500L643.5 515.5L636 500Z" fill="#235C3E"/>
<path d="M853 500L860 527.5H739L752 482.5L758 506V492L777 515.5L764 482.5L777 506V482.5L791 500L809 482.5L798.5 500L809 506L818.5 482.5V515.5L828 500V515.5L838.5 500L845.5 515.5L853 500Z" fill="#214030"/>
<path d="M968.5 488.5L980 527.5H1091L1062.5 519.5L1065.5 490L1051 519.5L1046.5 506L1039 521V504L1032.5 515.5L1023 496L1020.5 513.5L1011.5 490V510L1008 496L1002 515.5V500L991 519.5L987 493.5L984.5 515.5L968.5 488.5Z" fill="#235C3E"/>
<path d="M211.828 487.056L220.414 528H72L87.9453 461L95.3047 495.989V475.145L118.609 510.133L102.664 461L118.609 495.989V461L135.781 487.056L157.859 461L144.98 487.056L157.859 495.989L169.512 461V510.133L181.164 487.056V510.133L194.043 487.056L202.629 510.133L211.828 487.056Z" fill="#357955"/>
<path d="M802.543 489L814.133 528H926L897.277 520L900.301 490.5L885.688 520L881.152 506.5L873.594 521.5V504.5L867.043 516L857.469 496.5L854.949 514L845.879 490.5V510.5L842.352 496.5L836.305 516V500.5L825.219 520L821.188 494L818.668 516L802.543 489Z" fill="#235C3E"/>
<path d="M997.891 499.889L1004.95 528H883L896.102 482L902.148 506.022V491.711L921.297 515.733L908.195 482L921.297 506.022V482L935.406 499.889L953.547 482L942.965 499.889L953.547 506.022L963.121 482V515.733L972.695 499.889V515.733L983.277 499.889L990.332 515.733L997.891 499.889Z" fill="#2E8B5A"/>
<path d="M85.5 488.5L97 527.5H208L179.5 519.5L182.5 490L168 519.5L163.5 506L156 521V504L149.5 515.5L140 496L137.5 513.5L128.5 490V510L125 496L119 515.5V500L108 519.5L104 493.5L101.5 515.5L85.5 488.5Z" fill="#093F22"/>
<path d="M279 500L286 527.5H165L178 482.5L184 506V492L203 515.5L190 482.5L203 506V482.5L217 500L235 482.5L224.5 500L235 506L244.5 482.5V515.5L254 500V515.5L264.5 500L271.5 515.5L279 500Z" fill="#2E8B5A"/>
<path d="M114.891 499.889L121.945 528H0L13.1016 482L19.1484 506.022V491.711L38.2969 515.733L25.1953 482L38.2969 506.022V482L52.4062 499.889L70.5469 482L59.9648 499.889L70.5469 506.022L80.1211 482V515.733L89.6953 499.889V515.733L100.277 499.889L107.332 515.733L114.891 499.889Z" fill="#2E8B5A"/>
<path d="M1015.06 169.854L1000.98 172.407L1014.56 247.314L1028.64 244.761L1026.79 234.574L1017.73 213.625L1015.06 169.854Z" fill="#C4C4C4"/>
<path d="M849 171.713H862.908V247.743H849V237.403L854.031 215.202L849 171.713Z" fill="#C4C4C4"/>
<path d="M1004.37 331.189H867.727L859.51 185.743C857.177 164.487 853.91 117.544 859.51 99.8107C866.509 77.6445 966.939 62.4622 989.155 99.8107C1006.93 129.689 1016.24 258.415 1018.68 319.043L1004.37 331.189Z" fill="#433943"/>
<path d="M913.419 238.213L903.978 238.535L912.725 246.82L932.758 248.435L951.273 249.929L960.795 242.761L952.977 236.867L913.419 238.213Z" fill="#C4C4C4"/>
<path d="M961.19 284.201L938.908 306.155L912.049 281.762L919.374 260.723H952.949L961.19 284.201Z" fill="#C4C4C4"/>
<path d="M978.746 128.049C987.79 128.049 996.16 163.456 1000.13 177.237C990.355 189.308 931.491 183.675 902.364 183.273L866.618 188.403C866.617 160.338 866.618 159.131 866.617 138.007C866.617 122.919 967.442 128.049 978.746 128.049Z" fill="#7C7474"/>
<path d="M859.449 408.648C850.433 406.212 872.548 360.321 884.732 337.68H998.353H1022.72C1028.81 337.68 1047.09 395.551 1037.04 402.557C1026.99 409.562 870.72 411.694 859.449 408.648Z" fill="#433943"/>
<path d="M951.609 257.973L910.168 256.979L899.562 238.407L912.962 250.272L951.425 252.57L966.571 244.682L951.609 257.973Z" fill="#C4C4C4"/>
<path d="M911.497 232.907L899.996 218.915L911.497 193.669V155.951H936.617L941.46 193.669L958.409 215.874L951.75 232.907H911.497Z" fill="#C4C4C4"/>
<path d="M978.419 137.633L989.99 174.175L946.14 176.002L942.375 154.548L951.336 137.633L978.419 137.633Z" fill="#C4C4C4"/>
<path d="M987.051 120.998L987.051 134.416L940.658 139.573L933.654 134.416L945.53 120.998L987.051 120.998Z" fill="#524848"/>
<path d="M873.359 142.201L873.359 181.179L903.203 175.698L905.942 153.164L893.762 134.284L873.359 142.201Z" fill="#C4C4C4"/>
<path d="M870.497 128.609L869.563 135.34L906.143 140.418L912.455 134.435L899.011 122.588L870.497 128.609Z" fill="#524848"/>
<ellipse cx="952.844" cy="159.197" rx="6.49029" ry="6.95388" fill="#050505"/>
<ellipse cx="952.844" cy="159.197" rx="6.49029" ry="6.95388" fill="#050505"/>
<ellipse cx="886.088" cy="161.978" rx="6.49029" ry="6.95388" fill="#050505"/>
<ellipse cx="886.088" cy="161.978" rx="6.49029" ry="6.95388" fill="#050505"/>
<path d="M459 500L466 527.5H345L358 482.5L364 506V492L383 515.5L370 482.5L383 506V482.5L397 500L415 482.5L404.5 500L415 506L424.5 482.5V515.5L434 500V515.5L444.5 500L451.5 515.5L459 500Z" fill="#2E8B5A"/>
<path d="M574.5 488.5L586 527.5H697L668.5 519.5L671.5 490L657 519.5L652.5 506L645 521V504L638.5 515.5L629 496L626.5 513.5L617.5 490V510L614 496L608 515.5V500L597 519.5L593 493.5L590.5 515.5L574.5 488.5Z" fill="#235C3E"/>
<path d="M698.828 487.056L707.414 528H559L574.945 461L582.305 495.989V475.145L605.609 510.133L589.664 461L605.609 495.989V461L622.781 487.056L644.859 461L631.98 487.056L644.859 495.989L656.512 461V510.133L668.164 487.056V510.133L681.043 487.056L689.629 510.133L698.828 487.056Z" fill="#2E8B5A"/>
<path d="M408.543 489L420.133 528H532L503.277 520L506.301 490.5L491.688 520L487.152 506.5L479.594 521.5V504.5L473.043 516L463.469 496.5L460.949 514L451.879 490.5V510.5L448.352 496.5L442.305 516V500.5L431.219 520L427.188 494L424.668 516L408.543 489Z" fill="#235C3E"/>
<path d="M242 500L235 527.5H356L343 482.5L337 506V492L318 515.5L331 482.5L318 506V482.5L304 500L286 468L296.5 500L286 506L276.5 482.5V515.5L267 500V515.5L256.5 500L249.5 515.5L242 500Z" fill="#235C3E"/>
<path d="M939.001 419.243C939.001 421.464 910.493 427 880.67 427C850.846 427 831.001 421.464 831.001 419.243C831.001 417.022 836.697 375 866.52 375C896.343 375 939.001 417.022 939.001 419.243Z" fill="#9B8F8F"/>
<path d="M854.5 434.5C854.5 436.721 838.011 442.257 808.188 442.257C778.365 442.257 758.52 436.721 758.52 434.5C758.52 432.278 778.365 399.5 808.188 399.5C838.011 399.5 854.5 432.278 854.5 434.5Z" fill="#9B8F8F"/>
<path d="M579.891 499.889L586.945 528H465L478.102 482L484.148 506.022V491.711L503.297 515.733L490.195 482L503.297 506.022V482L517.406 499.889L535.547 482L524.965 499.889L535.547 506.022L545.121 482V515.733L554.695 499.889V515.733L565.277 499.889L572.332 515.733L579.891 499.889Z" fill="#33423A"/>
<path d="M1136.49 373.391L1199.71 460.477C1201.2 462.526 1202 464.994 1202 467.526V531H836L975.016 386.348C980.175 380.98 988.491 380.208 994.55 384.536L1039.82 416.868C1044.09 419.921 1049.85 419.839 1054.04 416.667L1115.3 370.247C1122 365.171 1131.56 366.589 1136.49 373.391Z" fill="#F3F3F3"/>
</svg>
