<svg width="669" height="526" viewBox="0 0 669 526" fill="none" xmlns="http://www.w3.org/2000/svg">
<path d="M349.051 50.3242L309.355 51.3726L317.567 57.034L315.901 67.1716L325.815 63.3322L336.848 68.09L349.051 50.3242Z" fill="#2E8B5A"/>
<path d="M349.051 50.3242L309.355 51.3726L317.567 57.034M349.051 50.3242L336.848 68.09L325.815 63.3322M349.051 50.3242L322.026 60.7114M349.051 50.3242L317.567 57.034M317.567 57.034L315.901 67.1716M315.901 67.1716L325.815 63.3322M315.901 67.1716L322.026 60.7114M325.815 63.3322L322.026 60.7114" stroke="black" stroke-width="0.5"/>
<path d="M627.363 460.166L666.672 465.79L657.862 470.465L658.346 480.727L648.942 475.769L637.433 479.221L627.363 460.166Z" fill="#2E8B5A"/>
<path d="M627.363 460.166L666.672 465.79L657.862 470.465M627.363 460.166L637.433 479.221L648.942 475.769M627.363 460.166L653.008 473.603M627.363 460.166L657.862 470.465M657.862 470.465L658.346 480.727M658.346 480.727L648.942 475.769M658.346 480.727L653.008 473.603M648.942 475.769L653.008 473.603" stroke="black" stroke-width="0.5"/>
<path d="M614.3 444.405C537.638 337.273 480.646 514.673 373.001 366.634" stroke="#716B6B" stroke-width="2" stroke-dasharray="2 2"/>
<path d="M347.796 156.659L193.894 165.665" stroke="black" stroke-width="10"/>
<path d="M115.01 346.138L199.028 164.431" stroke="black" stroke-width="10"/>
<path d="M58.2307 131.548L193.895 165.664" stroke="black" stroke-width="10"/>
<circle cx="61.0788" cy="132.174" r="38.5" transform="rotate(-18.5658 61.0788 132.174)" fill="#46B705"/>
<circle cx="346.059" cy="157.77" r="38.5" transform="rotate(-18.5658 346.059 157.77)" fill="#12166B"/>
<circle cx="197.454" cy="167.597" r="38.5" transform="rotate(-18.5658 197.454 167.597)" fill="#D7576E"/>
<circle cx="118.165" cy="342.968" r="38.5" transform="rotate(-18.5658 118.165 342.968)" fill="#C4C4C4"/>
<path d="M268.082 319.508C243.782 307.808 201.943 284.072 213.121 268.453C217.754 261.979 239.978 268.081 244.943 275.827C233.261 256.961 187.562 191.061 197.456 178.608C208.55 164.645 225.561 197.643 247.673 233.425C243.406 225.45 242.269 217.943 253.069 213.403C261.001 210.068 269.001 220.656 275.438 232.244C268.536 218.52 263.257 213.036 275.613 208.886C284.638 205.855 290.662 216.404 296.658 225.695C289.948 214.84 291.791 209.564 302.857 205.847C313.154 202.389 328.51 222.594 335.444 235.771C357.196 277.109 323.853 316.573 268.082 319.508Z" fill="white"/>
<path d="M268.082 319.508C243.782 307.808 201.943 284.072 213.121 268.453C217.799 261.916 240.408 268.2 245.082 276.051C233.628 257.491 187.522 191.111 197.456 178.608C210.198 162.571 230.745 208.482 257.861 249.41C250.352 236.908 234.996 221.001 253.069 213.403C261.001 210.068 269.001 220.656 275.438 232.244C268.536 218.52 263.257 213.036 275.613 208.886C286.047 205.382 292.47 220.03 299.477 229.899C289.637 216.144 290.449 210.015 302.857 205.847C313.154 202.389 328.51 222.594 335.444 235.771C357.196 277.109 323.853 316.573 268.082 319.508Z" stroke="#515151" stroke-width="10"/>
<path d="M269.708 322.536L292.249 365.765C315.628 375.329 348.032 342.318 361.311 324.617L334.901 291.472L269.708 322.536Z" fill="#2E8B5A" stroke="#515151" stroke-width="10"/>
<circle cx="302.565" cy="346.565" r="6.76363" transform="rotate(-18.5658 302.565 346.565)" fill="#0C0C0D"/>
</svg>
