<svg width="1199" height="513" viewBox="0 0 1199 513" fill="none" xmlns="http://www.w3.org/2000/svg">
<rect width="1200" height="513" fill="#FBFBFB"/>
<path fill-rule="evenodd" clip-rule="evenodd" d="M850.976 136.368C850.447 107.093 871.48 81.1074 901.225 76.2604C929.822 71.6007 956.984 88.0236 966.852 114.114C967.243 114.042 967.635 113.974 968.029 113.91C1000.67 108.592 1031.44 130.74 1036.76 163.381C1042.08 196.021 1019.93 226.793 987.29 232.112C961.498 236.314 936.874 223.367 925.051 201.646C918.333 216.432 904.931 227.582 888.144 230.317C860.944 234.75 835.157 215.41 830.547 187.122C827.23 166.766 835.783 147.323 850.976 136.368Z" fill="#718CD1" fill-opacity="0.8"/>
<path d="M874 232.815L924.092 203.215L1004 267.215" stroke="black" stroke-width="16"/>
<path d="M874 384.615L924.092 414.215L1004 350.215" stroke="#46B705" stroke-width="16"/>
<path d="M909.22 348.557L846.196 337.656L919.005 265.944" stroke="#2EC0E0" stroke-width="16"/>
<path d="M902 226.715C902 260.659 874.264 288.215 840 288.215C805.736 288.215 778 260.659 778 226.715C778 192.771 805.736 165.215 840 165.215C874.264 165.215 902 192.771 902 226.715Z" fill="#B8C9EC" stroke="black" stroke-width="6"/>
<circle cx="998" cy="249.215" r="62" fill="#B8C9EC" stroke="black" stroke-width="6"/>
<circle cx="831" cy="210.215" r="26" fill="black"/>
<circle cx="831" cy="210.215" r="26" fill="black"/>
<ellipse cx="998" cy="234.715" rx="26" ry="25.5" fill="black"/>
<ellipse cx="998" cy="234.715" rx="26" ry="25.5" fill="black"/>
<circle cx="994" cy="226.215" r="9" fill="black"/>
<circle cx="994" cy="226.215" r="9" fill="white"/>
<ellipse cx="836" cy="199.715" rx="9" ry="9.5" fill="black"/>
<ellipse cx="836" cy="199.715" rx="9" ry="9.5" fill="white"/>
<line x1="1018.4" y1="152.909" x2="972.262" y2="160.45" stroke="black" stroke-width="16"/>
<line x1="820.976" y1="145.088" x2="866.203" y2="133.261" stroke="black" stroke-width="16"/>
</svg>
