<svg width="520" height="526" viewBox="0 0 520 526" fill="none" xmlns="http://www.w3.org/2000/svg">
<path d="M500.719 523.844C441.018 442.002 312.901 521.502 298.905 339" stroke="#716B6B" stroke-width="2" stroke-dasharray="2 2"/>
<path d="M89.5703 219.987L163.717 263.802L281.999 169.067" stroke="#46B705" stroke-width="16"/>
<path d="M234.614 99.4009C237.036 95.6083 238.657 91.9564 239.475 88.445C240.294 84.9337 240.437 81.6436 239.906 78.5749C239.343 75.368 238.163 72.4785 236.365 69.9062C234.567 67.3339 232.235 65.1328 229.369 63.3027C226.504 61.4727 223.526 60.2828 220.436 59.7332C217.346 59.1836 214.27 59.355 211.209 60.2474C208.117 61.0016 205.15 62.4885 202.309 64.7081C199.467 66.9276 196.835 69.9337 194.413 73.7262C191.991 77.5187 190.371 81.1707 189.552 84.682C188.733 88.1934 188.605 91.5525 189.167 94.7593C189.699 97.8281 190.864 100.649 192.662 103.221C194.461 105.793 196.792 107.994 199.658 109.824C202.523 111.654 205.501 112.844 208.591 113.394C211.681 113.943 214.772 113.841 217.864 113.087C220.926 112.195 223.877 110.639 226.719 108.419C229.56 106.199 232.192 103.193 234.614 99.4009ZM204.274 80.0238C207.18 75.4727 210.326 72.4982 213.711 71.1002C217.149 69.6179 220.512 69.9263 223.799 72.0255C227.085 74.1247 228.779 77.0458 228.881 80.7887C229.036 84.4474 227.66 88.5523 224.753 93.1033C221.847 97.6543 218.674 100.671 215.236 102.153C211.851 103.551 208.516 103.201 205.229 101.102C201.942 99.0024 200.221 96.1234 200.066 92.4647C199.965 88.7218 201.367 84.5748 204.274 80.0238ZM150.328 108.754C152.75 104.962 154.371 101.31 155.19 97.7986C156.008 94.2872 156.152 90.9971 155.62 87.9284C155.058 84.7216 153.877 81.832 152.079 79.2597C150.281 76.6875 147.949 74.4863 145.084 72.6562C142.218 70.8262 139.241 69.6364 136.151 69.0868C133.061 68.5372 129.985 68.7085 126.923 69.6009C123.831 70.3551 120.864 71.842 118.023 74.0616C115.181 76.2812 112.55 79.2872 110.128 83.0797C107.705 86.8723 106.085 90.5242 105.266 94.0356C104.448 97.5469 104.319 100.906 104.882 104.113C105.414 107.182 106.579 110.002 108.377 112.574C110.175 115.147 112.507 117.348 115.372 119.178C118.238 121.008 121.215 122.198 124.305 122.747C127.395 123.297 130.486 123.195 133.578 122.44C136.64 121.548 139.592 119.992 142.433 117.773C145.274 115.553 147.906 112.547 150.328 108.754ZM119.988 89.3773C122.895 84.8263 126.04 81.8517 129.425 80.4537C132.863 78.9714 136.226 79.2799 139.513 81.379C142.8 83.4782 144.494 86.3993 144.595 90.1423C144.75 93.8009 143.374 97.9058 140.468 102.457C137.561 107.008 134.389 110.025 130.95 111.507C127.566 112.905 124.23 112.554 120.943 110.455C117.656 108.356 115.935 105.477 115.78 101.818C115.679 98.0753 117.082 93.9283 119.988 89.3773ZM169.88 27.9788L163.358 147.155L174.862 154.502L181.384 35.3259L169.88 27.9788Z" fill="#2C491D"/>
<circle cx="137.5" cy="103.5" r="8.5" fill="#2C491D"/>
<ellipse cx="218" cy="94.5" rx="9" ry="8.5" fill="#2C491D"/>
</svg>
