<svg width="313" height="330" viewBox="0 0 313 330" fill="none" xmlns="http://www.w3.org/2000/svg">
<path d="M272 306.839L311.309 312.464L302.498 317.139L302.983 327.401L293.578 322.443L282.07 325.895L272 306.839Z" fill="#2E8B5A"/>
<path d="M272 306.839L311.309 312.464L302.498 317.139M272 306.839L282.07 325.895L293.578 322.443M272 306.839L297.644 320.277M272 306.839L302.498 317.139M302.498 317.139L302.983 327.401M302.983 327.401L293.578 322.443M302.983 327.401L297.644 320.277M293.578 322.443L297.644 320.277" stroke="black" stroke-width="0.5"/>
<path d="M295 149.5C295 229.857 229.857 295 149.5 295C69.1426 295 4 229.857 4 149.5C4 69.1426 69.1426 4 149.5 4C229.857 4 295 69.1426 295 149.5Z" fill="#C9C9C9" fill-opacity="0.5" stroke="#D7576E" stroke-width="8"/>
<path d="M7.16892 142.5C10.7063 69.3701 69.3701 10.7063 142.5 7.16892L142.5 142.5L7.16892 142.5Z" fill="white" stroke="#DADCD9" stroke-width="14"/>
<path d="M151.5 30V145.5H38" stroke="black" stroke-width="10"/>
<rect x="236" y="145" width="42" height="8" fill="black"/>
<rect x="236" y="145" width="42" height="8" fill="black"/>
<rect x="155" y="255" width="21" height="8" transform="rotate(90 155 255)" fill="black"/>
<rect x="155" y="255" width="21" height="8" transform="rotate(90 155 255)" fill="black"/>
<path fill-rule="evenodd" clip-rule="evenodd" d="M177.24 209.296C177.42 199.367 170.287 190.554 160.198 188.91C150.5 187.33 141.288 192.9 137.941 201.748C137.809 201.724 137.676 201.701 137.542 201.679C126.472 199.876 116.036 207.387 114.232 218.457C112.429 229.527 119.94 239.963 131.01 241.767C139.757 243.192 148.108 238.801 152.118 231.435C154.396 236.449 158.942 240.231 164.635 241.158C173.86 242.661 182.605 236.103 184.168 226.509C185.293 219.605 182.393 213.011 177.24 209.296Z" fill="#718CD1" fill-opacity="0.8"/>
<path fill-rule="evenodd" clip-rule="evenodd" d="M114.314 211.847C113.87 207.934 110.575 204.895 106.577 204.895C102.809 204.895 99.6651 207.595 98.9441 211.182C98.8923 211.181 98.8405 211.18 98.7885 211.18C94.487 211.18 91 214.698 91 219.037C91 223.377 94.487 226.895 98.7885 226.895C102.144 226.895 105.004 224.754 106.099 221.753C107.262 223.589 109.251 224.799 111.51 224.799C115.094 224.799 118 221.751 118 217.99C118 215.283 116.495 212.945 114.314 211.847Z" fill="#BFCBEA"/>
<path fill-rule="evenodd" clip-rule="evenodd" d="M193.314 211.847C192.87 207.934 189.575 204.895 185.577 204.895C181.809 204.895 178.665 207.595 177.944 211.182C177.892 211.181 177.84 211.18 177.788 211.18C173.487 211.18 170 214.698 170 219.037C170 223.377 173.487 226.895 177.788 226.895C181.144 226.895 184.004 224.754 185.099 221.753C186.262 223.589 188.251 224.799 190.51 224.799C194.094 224.799 197 221.751 197 217.99C197 215.283 195.495 212.945 193.314 211.847Z" fill="#BFCBEA"/>
<path d="M136.827 199.37C140.218 195.524 145.022 195.631 147 196.165L145.644 200.652C141.292 201.827 133.436 203.216 136.827 199.37Z" fill="#0F5A33"/>
<path d="M135.636 200.439H134L136.909 197.894L136.364 198.803L136.909 201.712L140 202.621H137.273L136.364 203.894V202.258L134.545 202.621L135.636 200.439Z" fill="black"/>
<path fill-rule="evenodd" clip-rule="evenodd" d="M136.989 197.894L137.199 198.066L136.717 198.851L137.2 201.374L140 202.18L139.961 202.445H137.49L136.433 203.894V202.143L134.626 202.497L135.67 200.454H134L136.989 197.894ZM134.737 200.183H136.118L135.127 202.123L136.71 201.813V203.048L137.348 202.174H139L136.96 201.587L136.426 198.8L136.508 198.666L134.737 200.183Z" fill="black"/>
<path fill-rule="evenodd" clip-rule="evenodd" d="M143.889 195.279C144.811 195.204 145.716 195.266 146.427 195.562L145.909 196.808C145.482 196.63 144.823 196.557 143.998 196.624C143.188 196.69 142.279 196.886 141.39 197.187C140.502 197.488 139.654 197.888 138.963 198.35C138.262 198.817 137.767 199.317 137.518 199.799C136.972 200.852 137.192 201.157 137.279 201.243C137.367 201.33 137.538 201.427 137.844 201.495C138.144 201.562 138.524 201.59 138.968 201.581C140.444 201.549 142.29 201.123 143.583 200.824C143.879 200.756 144.147 200.694 144.374 200.646L144.657 201.965C144.464 202.006 144.226 202.061 143.952 202.125C142.672 202.421 140.632 202.894 138.998 202.929C138.492 202.94 137.995 202.911 137.55 202.812C137.11 202.714 136.667 202.535 136.331 202.203C135.572 201.453 135.71 200.354 136.32 199.178C136.715 198.415 137.414 197.761 138.214 197.228C139.021 196.689 139.979 196.241 140.957 195.909C141.935 195.578 142.954 195.355 143.889 195.279Z" fill="black"/>
<path d="M141.873 228.929C138.96 226.161 140.363 218.913 142.287 216.715L149.067 218.803C149.968 225.13 145.177 232.067 141.873 228.929Z" fill="#0F5A33"/>
<path fill-rule="evenodd" clip-rule="evenodd" d="M140.547 218.571C140.791 217.985 141.129 217.417 141.6 216.97L142.529 217.63C142.326 217.822 142.102 218.15 141.899 218.634C141.701 219.108 141.545 219.682 141.44 220.321C141.231 221.6 141.236 223.076 141.463 224.43C141.69 225.792 142.132 226.979 142.753 227.717C143.384 228.466 144.066 228.621 144.758 228.367C145.21 228.201 145.656 227.847 146.098 227.248C146.541 226.647 146.924 225.873 147.25 225.003C147.9 223.264 148.264 221.299 148.494 219.918L149.928 219.703C149.698 221.085 149.319 223.151 148.622 225.017C148.273 225.948 147.831 226.87 147.258 227.647C146.684 228.425 145.924 229.129 144.937 229.491C143.364 230.068 142.228 229.506 141.49 228.63C140.743 227.743 140.266 226.399 140.026 224.964C139.786 223.523 139.776 221.94 140.006 220.539C140.121 219.838 140.298 219.166 140.547 218.571Z" fill="black"/>
<path d="M127.004 187.413C127.004 187.413 126.19 174.349 148.168 168.561C165.75 163.931 168.357 184.657 164.83 192.87C162.605 199.374 159.497 218.711 165.807 217.84C172.117 216.969 171.831 220.502 169.389 221.478C122.599 240.184 140.186 193.451 144.862 192.875C136.537 193.239 133.83 187.413 127.004 187.413Z" fill="#2E8B5A"/>
<path fill-rule="evenodd" clip-rule="evenodd" d="M158.514 170.508C155.991 169.19 152.658 168.76 148.325 169.878C137.3 172.722 132.09 177.325 129.62 181.121C128.38 183.026 127.815 184.749 127.559 185.985C127.445 186.533 127.392 186.986 127.368 187.316C130.421 187.481 132.708 188.721 134.94 189.931C135.124 190.031 135.307 190.13 135.49 190.229C138.064 191.613 140.724 192.896 144.749 192.729C144.798 192.724 144.848 192.721 144.898 192.722C145.786 192.675 147.658 192.367 149.553 192.032C150.092 191.937 150.632 191.84 151.145 191.748C152.414 191.52 153.524 191.32 154.072 191.248L154.248 192.58C153.734 192.647 152.682 192.836 151.437 193.06C150.913 193.154 150.355 193.254 149.789 193.354C147.915 193.685 145.927 194.016 144.942 194.064L144.909 193.394L144.942 194.064C144.942 194.064 144.942 194.064 144.942 194.064C144.917 194.065 144.891 194.066 144.866 194.068C144.872 194.066 144.877 194.065 144.882 194.065C144.886 194.064 144.888 194.065 144.887 194.064M142.835 194.043C139.495 193.804 137.068 192.603 134.848 191.41C134.675 191.317 134.504 191.224 134.334 191.132C131.905 189.818 129.727 188.64 126.679 188.64H126.045L126.005 188.011L126.679 187.969C126.005 188.011 126.005 188.01 126.005 188.01L126.005 188.008L126.005 188.004L126.004 187.992C126.004 187.983 126.003 187.971 126.003 187.955C126.002 187.924 126 187.881 126 187.826C125.999 187.716 126.002 187.559 126.013 187.361C126.036 186.965 126.094 186.403 126.237 185.714C126.523 184.335 127.145 182.453 128.487 180.391C131.179 176.255 136.708 171.488 147.986 168.578C152.573 167.395 156.262 167.815 159.141 169.32C162.013 170.821 163.995 173.357 165.261 176.255C166.527 179.152 167.092 182.441 167.116 185.521C167.14 188.584 166.629 191.491 165.693 193.638C164.588 196.814 163.252 203.155 162.986 208.587C162.851 211.319 162.992 213.745 163.524 215.409C163.79 216.239 164.133 216.816 164.526 217.159C164.895 217.48 165.348 217.635 165.964 217.551C167.616 217.328 168.896 217.377 169.848 217.631C170.798 217.885 171.492 218.366 171.814 219.052C172.14 219.746 172.008 220.488 171.645 221.085C171.283 221.678 170.675 222.168 169.937 222.458C158.026 227.122 150.043 227.782 144.876 225.948C139.619 224.083 137.444 219.711 136.989 214.866C136.535 210.047 137.761 204.659 139.381 200.457C140.192 198.353 141.114 196.518 141.996 195.179C142.276 194.754 142.557 194.372 142.835 194.043ZM144.866 194.068C144.784 194.085 144.577 194.178 144.246 194.498C143.915 194.819 143.534 195.295 143.124 195.916C142.308 197.154 141.427 198.898 140.641 200.938C139.064 205.028 137.905 210.199 138.332 214.741C138.757 219.258 140.726 223.05 145.329 224.683C150.021 226.348 157.612 225.841 169.443 221.208C169.943 221.012 170.301 220.699 170.491 220.388C170.678 220.081 170.684 219.817 170.592 219.62C170.495 219.415 170.217 219.12 169.498 218.928C168.781 218.737 167.696 218.672 166.146 218.882C165.162 219.015 164.313 218.758 163.637 218.168C162.986 217.601 162.543 216.767 162.239 215.816C161.632 213.917 161.502 211.295 161.638 208.522C161.911 202.956 163.275 196.47 164.427 193.173L164.435 193.149L164.446 193.125C165.293 191.192 165.789 188.472 165.766 185.531C165.744 182.595 165.203 179.49 164.024 176.791C162.846 174.093 161.045 171.831 158.514 170.508" fill="black"/>
<path d="M146.478 170.862C127.82 175.899 127 186.936 127 186.936C134.755 185.101 134.425 197.399 160.843 188.823C161.503 174.908 160.677 167.029 146.478 170.862Z" fill="#329B64"/>
<path d="M137.534 208.908C144.139 208.359 158.506 225.204 154.213 225.683C136.543 227.656 136.047 215.322 137.534 208.908Z" fill="#F4F839"/>
<path fill-rule="evenodd" clip-rule="evenodd" d="M138.722 209.293C138.101 212.506 138.016 216.844 139.892 220.198C141.823 223.65 145.974 226.292 154.491 225.289C154.565 225.28 154.607 225.265 154.627 225.255C154.636 225.251 154.641 225.247 154.643 225.246C154.644 225.245 154.644 225.244 154.645 225.244L154.645 225.244C154.645 225.244 154.645 225.244 154.645 225.243C154.646 225.243 154.646 225.242 154.646 225.241C154.647 225.241 154.647 225.24 154.648 225.239C154.65 225.235 154.653 225.227 154.657 225.214C154.665 225.187 154.675 225.138 154.675 225.061C154.679 224.716 154.514 224.124 154.108 223.294C153.315 221.676 151.787 219.518 149.902 217.364C148.02 215.215 145.818 213.11 143.7 211.583C142.641 210.82 141.618 210.211 140.677 209.812C139.946 209.502 139.29 209.329 138.722 209.293ZM155.649 226.151C155.385 226.474 155.02 226.627 154.639 226.672C145.804 227.713 141.036 224.989 138.75 220.903C136.516 216.907 136.796 211.838 137.541 208.447L137.65 207.953L138.131 207.911C139.084 207.827 140.123 208.076 141.173 208.522C142.23 208.97 143.339 209.636 144.449 210.436C146.67 212.036 148.947 214.218 150.876 216.422C152.801 218.621 154.416 220.883 155.285 222.658C155.71 223.525 156.007 224.373 156 225.075C155.996 225.442 155.909 225.833 155.649 226.151Z" fill="black"/>
<path d="M138.385 209.904C143.156 209.517 153.532 221.407 150.432 221.745C137.67 223.138 137.312 214.431 138.385 209.904Z" fill="#FFC737"/>
<path d="M151.581 188.469C151.405 187.536 151.183 191.765 148.89 192.717C147.605 192.828 146.866 192.815 147.642 192.89C148.115 192.936 148.528 192.867 148.89 192.717C150.165 192.607 151.978 192.373 153.38 191.806L151.581 188.469Z" fill="#FF0000"/>
<path fill-rule="evenodd" clip-rule="evenodd" d="M147.384 193.133C147.441 193.14 147.518 193.149 147.616 193.158C148.115 193.207 148.559 193.138 148.954 192.982C150.23 192.87 152.054 192.633 153.482 192.056L153.761 191.943L151.837 188.376C151.826 188.325 151.809 188.265 151.779 188.215C151.762 188.186 151.703 188.095 151.58 188.071C151.441 188.044 151.347 188.124 151.315 188.157C151.28 188.193 151.258 188.232 151.247 188.256C151.233 188.283 151.221 188.311 151.211 188.338C151.191 188.392 151.17 188.459 151.15 188.53C151.127 188.609 151.102 188.699 151.075 188.799C151 189.071 150.906 189.416 150.774 189.798C150.596 190.317 150.357 190.881 150.029 191.37C149.709 191.846 149.315 192.237 148.824 192.452C148.421 192.486 148.089 192.507 147.833 192.523C147.688 192.532 147.567 192.54 147.471 192.548C147.41 192.553 147.353 192.558 147.311 192.565C147.311 192.565 147.31 192.566 147.309 192.566C147.297 192.568 147.248 192.576 147.202 192.601C147.187 192.609 147.156 192.626 147.127 192.658C147.096 192.692 147.054 192.757 147.055 192.847C147.057 192.936 147.1 192.997 147.128 193.028C147.155 193.057 147.183 193.074 147.198 193.082C147.242 193.107 147.289 193.117 147.303 193.119C147.304 193.119 147.304 193.12 147.305 193.12C147.329 193.124 147.355 193.129 147.384 193.133ZM149.93 192.336C150.137 192.134 150.318 191.908 150.477 191.671C150.842 191.128 151.099 190.515 151.285 189.974C151.407 189.619 151.501 189.285 151.573 189.022L152.997 191.663C152.041 192.006 150.924 192.21 149.93 192.336ZM151.728 188.499C151.728 188.499 151.728 188.5 151.728 188.5C151.729 188.498 151.729 188.497 151.728 188.499ZM147.403 193.097C147.403 193.097 147.403 193.097 147.403 193.097C147.395 193.099 147.396 193.099 147.403 193.097ZM147.407 192.59C147.407 192.59 147.408 192.59 147.412 192.591C147.409 192.59 147.407 192.589 147.407 192.59Z" fill="black"/>
<path d="M155 177.395C155 179.328 153.209 180.895 151 180.895C148.791 180.895 147 179.328 147 177.395C147 175.462 148.791 173.895 151 173.895C153.209 173.895 155 175.462 155 177.395Z" fill="black"/>
<path d="M137.799 177.142C138.163 177.551 137.189 179.014 135.623 180.41C134.057 181.807 132.493 182.608 132.128 182.2C131.764 181.791 132.738 180.328 134.304 178.931C135.87 177.535 137.435 176.734 137.799 177.142Z" fill="black"/>
<path d="M153 175.395C153 176.223 152.552 176.895 152 176.895C151.448 176.895 151 176.223 151 175.395C151 174.566 151.448 173.895 152 173.895C152.552 173.895 153 174.566 153 175.395Z" fill="white"/>
<path d="M154 177.395C154 177.671 153.776 177.895 153.5 177.895C153.224 177.895 153 177.671 153 177.395C153 177.118 153.224 176.895 153.5 176.895C153.776 176.895 154 177.118 154 177.395Z" fill="white"/>
<path d="M168.95 172.892C170.018 173.086 170.597 174.256 170.102 175.223L168.626 178.108C168.02 179.292 166.323 179.28 165.733 178.088L164.021 174.625C163.431 173.432 164.452 172.077 165.761 172.314L168.95 172.892Z" fill="black"/>
<path d="M159.776 161.959C160.821 161.037 162.466 161.779 162.466 163.173L162.466 171.508C162.466 172.136 161.781 172.525 161.242 172.203L155.347 168.686C154.405 168.124 154.283 166.808 155.105 166.082L159.776 161.959Z" fill="black"/>
<path d="M140.047 213.266C139.957 212.822 140.421 212.471 140.824 212.678L142.227 213.403C142.58 213.585 142.622 214.073 142.306 214.313L141.217 215.136C140.9 215.376 140.442 215.203 140.362 214.813L140.047 213.266Z" fill="black"/>
<path d="M141.04 216.9C140.949 216.456 141.413 216.105 141.816 216.313L143.22 217.037C143.573 217.219 143.615 217.707 143.298 217.947L142.209 218.77C141.892 219.01 141.434 218.837 141.355 218.448L141.04 216.9Z" fill="black"/>
<path d="M143.682 215.578C143.592 215.134 144.056 214.783 144.458 214.991L145.862 215.715C146.215 215.897 146.257 216.385 145.94 216.625L144.852 217.449C144.535 217.688 144.076 217.515 143.997 217.126L143.682 215.578Z" fill="black"/>
<path d="M166.713 201.27C167.303 201.956 167.065 203.017 166.237 203.384L163.774 204.476C162.76 204.925 161.668 204.028 161.911 202.946L162.616 199.813C162.86 198.731 164.232 198.388 164.955 199.228L166.713 201.27Z" fill="black"/>
<path d="M170.508 192.642C171.15 193.518 170.763 194.765 169.738 195.125L166.68 196.199C165.425 196.64 164.203 195.463 164.598 194.192L165.742 190.502C166.136 189.231 167.81 188.952 168.595 190.026L170.508 192.642Z" fill="black"/>
<path d="M171.051 181.558C171.98 182.12 172.103 183.42 171.295 184.146L168.886 186.314C167.897 187.204 166.316 186.587 166.191 185.263L165.828 181.416C165.703 180.092 167.14 179.19 168.278 179.879L171.051 181.558Z" fill="black"/>
<path d="M156.91 207.929C154.906 207.966 153.592 205.453 151.591 210.209C149.589 214.966 157.384 215.714 156.91 207.929Z" fill="#0F5A33" fill-opacity="0.2"/>
<path d="M159.196 198.514C158.444 198.932 157.439 198.244 157.64 200.45C157.84 202.656 160.945 201.368 159.196 198.514Z" fill="#0F5A33" fill-opacity="0.2"/>
<path d="M157.748 193.893C157.009 193.452 157.101 192.237 155.292 193.516C153.483 194.795 156.153 196.837 157.748 193.893Z" fill="#0F5A33" fill-opacity="0.2"/>
<path d="M140.808 207.906C141.563 207.494 142.563 208.189 142.379 205.982C142.195 203.774 139.08 205.039 140.808 207.906Z" fill="#0F5A33" fill-opacity="0.2"/>
<path d="M159.504 184.018C158.765 183.577 158.857 182.362 157.048 183.641C155.239 184.92 157.909 186.962 159.504 184.018Z" fill="#0F5A33" fill-opacity="0.2"/>
<path d="M157.401 229.755C160.539 225.13 159.879 220.405 162.026 217.697L151.37 219.118C150.32 224.121 153.942 234.853 157.401 229.755Z" fill="#0F5A33"/>
<path fill-rule="evenodd" clip-rule="evenodd" d="M161 222.282C161.338 221.255 161.791 220.385 162.536 219.774L161.515 218.592C160.607 219.335 160.089 220.37 159.724 221.479C159.485 222.209 159.302 223.011 159.124 223.79C159.037 224.171 158.951 224.546 158.861 224.905C158.297 227.142 157.49 229.046 154.932 229.645C154.858 229.662 154.803 229.649 154.716 229.59C154.6 229.511 154.426 229.343 154.206 229.036C153.767 228.423 153.304 227.482 152.889 226.376C152.479 225.284 152.138 224.088 151.919 223.001C151.697 221.903 151.612 220.966 151.681 220.364L150.361 219.763C150.271 220.553 150.387 221.652 150.62 222.81C150.856 223.98 151.222 225.262 151.665 226.444C152.103 227.612 152.639 228.741 153.235 229.572C153.532 229.988 153.885 230.385 154.292 230.661C154.727 230.957 155.191 231.089 155.618 230.989C158.654 230.279 159.569 227.969 160.156 225.643C160.258 225.236 160.349 224.836 160.438 224.445C160.609 223.694 160.774 222.972 161 222.282Z" fill="black"/>
<path d="M145.144 197.01L147.117 197.678L139.191 197.691L136.586 194.903L137.742 195.068L139.724 196.72L145.144 197.01Z" fill="white"/>
<path fill-rule="evenodd" clip-rule="evenodd" d="M135.867 194.528L137.857 194.812L139.829 196.456L145.196 196.743L147.204 197.422L147.118 197.948L139.075 197.962L135.867 194.528ZM137.307 195.279L139.309 197.422L145.487 197.411L145.094 197.278L139.621 196.985L137.629 195.325L137.307 195.279Z" fill="black"/>
<path d="M135.861 204.019L136.422 195.894L139.89 198.537L146.524 198.184L145.713 206.991L138.404 207.228L135.861 204.019Z" fill="#C4C4C4"/>
<path fill-rule="evenodd" clip-rule="evenodd" d="M135.834 194.599L140.102 197.85L147.267 197.47L146.33 207.646L138.086 207.914L135.17 204.233L135.834 194.599ZM137.008 197.189L136.551 203.804L138.721 206.543L145.096 206.336L145.781 198.899L139.678 199.223L137.008 197.189Z" fill="black"/>
<path d="M138.899 206.135L139.56 199.528L145.341 199.363L144.516 205.97L138.899 206.135Z" fill="#2E8B5A"/>
<path d="M136.918 203.657L137.248 197.876L139.396 199.528L138.735 205.969L136.918 203.657Z" fill="#1B633D"/>
<path d="M141.511 205.018C141.2 205.029 140.96 204.962 140.793 204.817C140.625 204.669 140.536 204.456 140.527 204.179C140.521 204.03 140.532 203.899 140.559 203.787L141.168 200.341L142.173 200.169L141.901 201.717C142.029 201.632 142.139 201.575 142.229 201.545C142.295 201.523 142.37 201.51 142.454 201.507C142.71 201.498 142.908 201.577 143.047 201.743C143.203 201.931 143.288 202.232 143.303 202.645C143.308 202.787 143.3 202.942 143.279 203.11C143.258 203.275 143.223 203.44 143.173 203.604C143.053 203.998 142.871 204.316 142.626 204.558C142.329 204.849 141.958 205.002 141.511 205.018ZM141.871 204.345C142.009 204.34 142.141 204.243 142.268 204.054C142.377 203.885 142.465 203.666 142.531 203.397C142.593 203.132 142.62 202.881 142.612 202.643C142.605 202.458 142.571 202.308 142.509 202.193C142.475 202.129 142.435 202.081 142.387 202.047C142.339 202.013 142.285 201.997 142.225 201.999C142.147 202.002 142.077 202.012 142.016 202.03C141.923 202.058 141.86 202.093 141.826 202.137L141.514 203.883C141.503 203.939 141.498 203.992 141.5 204.041C141.507 204.252 141.631 204.353 141.871 204.345Z" fill="white"/>
<path fill-rule="evenodd" clip-rule="evenodd" d="M138 206.841L139.212 197.895L140 197.948L138.788 206.895L138 206.841Z" fill="black"/>
<path d="M144.827 202.369C148.218 198.524 153.022 198.63 155 199.165L153.644 203.651C149.292 204.827 141.436 206.215 144.827 202.369Z" fill="#0F5A33"/>
<path d="M144.364 203.015H143L145.424 200.894L144.97 201.651L145.424 204.075L148 204.833H145.727L144.97 205.894V204.53L143.455 204.833L144.364 203.015Z" fill="black"/>
<path fill-rule="evenodd" clip-rule="evenodd" d="M144.989 200.894L145.199 201.065L144.717 201.851L145.2 204.373L148 205.179L147.961 205.445H145.49L144.433 206.894V205.143L142.626 205.497L143.67 203.454H142L144.989 200.894ZM142.737 203.183H144.118L143.127 205.122L144.71 204.812V206.048L145.348 205.174H147L144.96 204.586L144.426 201.8L144.508 201.666L142.737 203.183Z" fill="black"/>
<path fill-rule="evenodd" clip-rule="evenodd" d="M151.983 197.795C152.904 197.72 153.81 197.782 154.521 198.078L154.003 199.323C153.576 199.146 152.917 199.073 152.092 199.14C151.282 199.205 150.372 199.401 149.484 199.703C148.595 200.004 147.748 200.404 147.056 200.866C146.356 201.333 145.861 201.833 145.611 202.314C145.065 203.368 145.286 203.673 145.373 203.759C145.461 203.846 145.631 203.943 145.937 204.011C146.238 204.078 146.618 204.106 147.062 204.096C148.538 204.064 150.383 203.638 151.677 203.34C151.973 203.272 152.241 203.21 152.468 203.161L152.751 204.48C152.558 204.522 152.319 204.577 152.046 204.64C150.766 204.937 148.726 205.409 147.091 205.445C146.586 205.456 146.088 205.427 145.643 205.328C145.204 205.229 144.761 205.05 144.425 204.719C143.666 203.969 143.804 202.87 144.414 201.693C144.809 200.931 145.508 200.277 146.307 199.744C147.115 199.205 148.073 198.757 149.051 198.425C150.029 198.093 151.047 197.871 151.983 197.795Z" fill="black"/>
</svg>
