<svg width="1099" height="510" viewBox="0 0 1099 510" fill="none" xmlns="http://www.w3.org/2000/svg">
<rect x="229.602" y="396.5" width="157.685" height="157.685" rx="44" transform="rotate(135 229.602 396.5)" fill="#4C9B67"/>
<rect x="214.295" y="396.5" width="151.529" height="151.529" rx="44" transform="rotate(135 214.295 396.5)" fill="#73E399"/>
<rect x="1098.6" y="297.5" width="157.685" height="157.685" rx="44" transform="rotate(135 1098.6 297.5)" fill="#3C65B5"/>
<rect x="1083.29" y="297.5" width="151.529" height="151.529" rx="44" transform="rotate(135 1083.29 297.5)" fill="#A3F761"/>
<path d="M957.086 337.5L949.086 345.5H961.086C960.253 343.5 965.286 339.5 972.086 339.5C980.586 339.5 979.586 339.5 982.586 339.5C985.586 339.5 983.586 345.5 977.086 345.5" stroke="black" stroke-width="4"/>
<path d="M913.586 338.5L947.586 311H1029.59V323L999.586 351.5H913.586V338.5Z" fill="white"/>
<path d="M913.586 338.5L947.586 311H1029.59M913.586 338.5H999.586M913.586 338.5V351.5H999.586M1029.59 311L999.586 338.5M1029.59 311V323L999.586 351.5M999.586 338.5V351.5" stroke="black" stroke-width="4"/>
<rect x="915.086" y="340.5" width="83" height="9" fill="#C4C4C4"/>
<rect x="915.086" y="340.5" width="83" height="9" fill="#D87676"/>
<path fill-rule="evenodd" clip-rule="evenodd" d="M989.086 329L989.086 329L993.085 325L988.931 324.988L988.932 325H952.086H945.48L950.977 328.664L952.477 329.664L952.919 329H989.086Z" fill="black"/>
<path d="M957.086 314.757L949.086 322.757H961.086C960.253 320.757 965.286 316.757 972.086 316.757C980.586 316.757 979.586 316.757 982.586 316.757C985.586 316.757 983.586 322.757 977.086 322.757" stroke="black" stroke-width="4"/>
<path d="M913.586 315.757L947.586 288.257H1029.59V300.257L999.586 328.757H913.586V315.757Z" fill="white"/>
<path d="M913.586 315.757L947.586 288.257H1029.59M913.586 315.757H999.586M913.586 315.757V328.757H999.586M1029.59 288.257L999.586 315.757M1029.59 288.257V300.257L999.586 328.757M999.586 315.757V328.757" stroke="black" stroke-width="4"/>
<rect x="915.086" y="317.757" width="83" height="9" fill="#C4C4C4"/>
<rect x="915.086" y="317.757" width="83" height="9" fill="#FB9494"/>
<path fill-rule="evenodd" clip-rule="evenodd" d="M989.086 306.257L989.086 306.257L993.085 302.257L988.931 302.245L988.932 302.257H952.086H945.48L950.977 305.921L952.477 306.921L952.919 306.257H989.086Z" fill="black"/>
<path d="M66.5859 420.5L100.586 393H182.586V405L152.586 433.5H66.5859V420.5Z" fill="white"/>
<path d="M66.5859 420.5L100.586 393H182.586M66.5859 420.5H152.586M66.5859 420.5V433.5H152.586M182.586 393L152.586 420.5M182.586 393V405L152.586 433.5M152.586 420.5V433.5" stroke="black" stroke-width="4"/>
<path d="M110.086 401L102.086 409H114.086C113.253 407 118.286 403 125.086 403C133.586 403 132.586 403 135.586 403C138.586 403 136.586 409 130.086 409" stroke="black" stroke-width="4"/>
<rect x="67" y="421.743" width="83" height="9" fill="#C4C4C4"/>
<path d="M110.086 401L102.086 409H114.086C113.253 407 118.286 403 125.086 403C133.586 403 132.586 403 135.586 403C138.586 403 136.586 409 130.086 409" stroke="black" stroke-width="4"/>
<path d="M66.5859 398.5L100.586 371H182.586V383L152.586 411.5H66.5859V398.5Z" fill="white"/>
<path d="M66.5859 398.5L100.586 371H182.586M66.5859 398.5H152.586M66.5859 398.5V411.5H152.586M182.586 371L152.586 398.5M182.586 371V383L152.586 411.5M152.586 398.5V411.5" stroke="black" stroke-width="4"/>
<path d="M110.086 379L102.086 387H114.086C113.253 385 118.286 381 125.086 381C133.586 381 132.586 381 135.586 381C138.586 381 136.586 387 130.086 387" stroke="black" stroke-width="4"/>
<rect x="67" y="399.743" width="83" height="9" fill="#C4C4C4"/>
<path d="M110.086 379L102.086 387H114.086C113.253 385 118.286 381 125.086 381C133.586 381 132.586 381 135.586 381C138.586 381 136.586 387 130.086 387" stroke="black" stroke-width="4"/>
<path d="M66.5859 376.757L100.586 349.257H182.586V361.257L152.586 389.757H66.5859V376.757Z" fill="white"/>
<path d="M66.5859 376.757L100.586 349.257H182.586M66.5859 376.757H152.586M66.5859 376.757V389.757H152.586M182.586 349.257L152.586 376.757M182.586 349.257V361.257L152.586 389.757M152.586 376.757V389.757" stroke="black" stroke-width="4"/>
<path d="M914.723 248.234C912.757 248.234 911.24 247.74 910.172 246.75C909.039 245.695 908.473 244.074 908.473 241.887C908.473 241.066 908.557 240.155 908.727 239.152C908.883 238.15 909.124 237.147 909.449 236.145C909.814 235.025 910.276 233.964 910.836 232.961C911.409 231.958 912.073 231.073 912.828 230.305C914.573 228.534 916.721 227.648 919.273 227.648C920.901 227.648 922.086 228.039 922.828 228.82C923.401 229.432 923.688 230.318 923.688 231.477C923.688 232.609 923.44 233.677 922.945 234.68C922.451 235.669 921.767 236.548 920.895 237.316C920.022 238.072 919.033 238.677 917.926 239.133C916.819 239.576 915.673 239.836 914.488 239.914C914.423 240.591 914.391 241.125 914.391 241.516C914.391 242.818 914.638 243.716 915.133 244.211C915.562 244.654 916.279 244.875 917.281 244.875C918.727 244.875 920.048 244.484 921.246 243.703C921.754 243.378 922.242 242.993 922.711 242.551C923.18 242.095 923.727 241.522 924.352 240.832H925.719C924.456 242.967 923.004 244.667 921.363 245.93C919.345 247.466 917.132 248.234 914.723 248.234ZM914.801 238C915.543 237.948 916.266 237.733 916.969 237.355C917.672 236.978 918.297 236.483 918.844 235.871C919.391 235.246 919.82 234.549 920.133 233.781C920.445 233 920.602 232.206 920.602 231.398C920.602 230.865 920.523 230.461 920.367 230.188C920.224 229.901 919.97 229.758 919.605 229.758C919.124 229.758 918.635 229.992 918.141 230.461C917.659 230.93 917.19 231.574 916.734 232.395C916.318 233.163 915.94 234.035 915.602 235.012C915.263 235.988 914.996 236.984 914.801 238ZM928.355 230.871H943.062L942.145 235.363H927.398L928.355 230.871ZM926.598 239.484H941.305L940.387 243.957H925.641L926.598 239.484ZM969.293 248.234C967.639 248.234 966.415 247.766 965.621 246.828C964.931 246.021 964.586 244.986 964.586 243.723C964.586 243.124 964.658 242.427 964.801 241.633C964.957 240.839 965.185 239.816 965.484 238.566C965.784 237.29 966.005 236.275 966.148 235.52C966.305 234.751 966.383 234.087 966.383 233.527C966.383 232.16 965.901 231.477 964.938 231.477C964.26 231.477 963.635 231.835 963.062 232.551C962.581 233.163 962.164 234.035 961.812 235.168L959.098 248H953.336L956.266 234.191C956.344 233.879 956.383 233.547 956.383 233.195C956.383 232.661 956.298 232.251 956.129 231.965C955.908 231.613 955.589 231.438 955.172 231.438C954.417 231.438 953.759 231.802 953.199 232.531C952.704 233.156 952.281 234.035 951.93 235.168L949.215 248H943.453L947.691 228H953.453L953.023 230.07C953.805 229.198 954.658 228.579 955.582 228.215C956.311 227.941 957.086 227.805 957.906 227.805C959.026 227.805 959.918 228.065 960.582 228.586C961.324 229.172 961.799 230.057 962.008 231.242C962.867 229.914 963.857 228.977 964.977 228.43C965.771 228.039 966.637 227.844 967.574 227.844C968.915 227.844 969.977 228.195 970.758 228.898C971.591 229.667 972.008 230.819 972.008 232.355C972.008 233.228 971.845 234.432 971.52 235.969C971.389 236.607 971.233 237.251 971.051 237.902C970.725 239.152 970.458 240.305 970.25 241.359C970.146 241.906 970.094 242.349 970.094 242.688C970.094 243.221 970.211 243.638 970.445 243.938C970.693 244.224 971.109 244.367 971.695 244.367C972.49 244.367 973.16 244.042 973.707 243.391C974.124 242.896 974.573 242.043 975.055 240.832H976.734C975.745 243.762 974.495 245.812 972.984 246.984C971.917 247.818 970.686 248.234 969.293 248.234ZM980.777 248.234C978.811 248.234 977.294 247.74 976.227 246.75C975.094 245.695 974.527 244.074 974.527 241.887C974.527 241.066 974.612 240.155 974.781 239.152C974.938 238.137 975.185 237.128 975.523 236.125C976.318 233.69 977.444 231.75 978.902 230.305C980.699 228.534 982.828 227.648 985.289 227.648C986.891 227.648 988.076 228.033 988.844 228.801C989.443 229.413 989.742 230.253 989.742 231.32C989.742 232.258 989.534 232.987 989.117 233.508C988.727 233.99 988.225 234.23 987.613 234.23C987.171 234.23 986.702 234.074 986.207 233.762C986.533 232.915 986.695 232.128 986.695 231.398C986.695 230.891 986.598 230.493 986.402 230.207C986.22 229.908 985.947 229.758 985.582 229.758C984.801 229.758 983.987 230.448 983.141 231.828C982.372 233.052 981.734 234.608 981.227 236.496C980.706 238.345 980.445 240.018 980.445 241.516C980.445 242.818 980.693 243.716 981.188 244.211C981.617 244.654 982.333 244.875 983.336 244.875C984.781 244.875 986.103 244.484 987.301 243.703C987.809 243.378 988.297 242.993 988.766 242.551C989.234 242.095 989.781 241.522 990.406 240.832H991.773C990.51 242.967 989.059 244.667 987.418 245.93C985.4 247.466 983.186 248.234 980.777 248.234Z" fill="#6A5D5D"/>
<path d="M1000.69 232.183C1000.48 232.183 1000.28 232.159 1000.07 232.11C999.872 232.066 999.589 231.99 999.223 231.883C998.886 231.785 998.598 231.712 998.358 231.663C998.119 231.609 997.875 231.583 997.626 231.583C997.353 231.583 997.079 231.617 996.806 231.685C996.537 231.749 996.256 231.858 995.963 232.015H995.905C995.846 231.78 995.817 231.553 995.817 231.333C995.817 230.967 995.893 230.621 996.044 230.293C996.298 229.712 996.757 229.09 997.421 228.426C997.821 228.025 998.126 227.725 998.336 227.525C998.761 227.105 999.101 226.758 999.354 226.485C999.613 226.211 999.845 225.926 1000.05 225.628C1000.3 225.271 1000.49 224.915 1000.62 224.559C1000.76 224.197 1000.83 223.824 1000.83 223.438C1000.83 222.867 1000.74 222.422 1000.56 222.105C1000.37 221.758 1000.08 221.585 999.706 221.585C999.535 221.585 999.374 221.617 999.223 221.68C999.076 221.739 998.952 221.824 998.849 221.937C998.747 222.049 998.666 222.181 998.607 222.332C998.549 222.483 998.52 222.64 998.52 222.801C998.52 223.147 998.585 223.453 998.717 223.716C998.854 223.975 999.027 224.168 999.237 224.295V224.354C999.066 224.51 998.881 224.634 998.681 224.727C998.48 224.815 998.288 224.859 998.102 224.859C997.956 224.859 997.816 224.825 997.685 224.756C997.553 224.688 997.438 224.588 997.34 224.456C997.125 224.168 997.018 223.785 997.018 223.306C997.018 223.003 997.086 222.701 997.223 222.398C997.365 222.09 997.565 221.814 997.824 221.57C998.102 221.312 998.439 221.109 998.834 220.962C999.23 220.816 999.674 220.743 1000.17 220.743C1000.59 220.743 1000.98 220.806 1001.34 220.933C1001.7 221.055 1002 221.233 1002.26 221.468C1002.53 221.707 1002.73 221.998 1002.87 222.339C1003.01 222.676 1003.08 223.057 1003.08 223.482C1003.08 224.141 1002.85 224.776 1002.39 225.386C1002.2 225.645 1001.97 225.901 1001.7 226.155C1001.43 226.409 1001.13 226.675 1000.78 226.954C1000.37 227.276 1000.06 227.515 999.853 227.671C999.14 228.208 998.578 228.699 998.168 229.144C997.934 229.393 997.738 229.659 997.582 229.942C997.855 229.869 998.161 229.832 998.498 229.832C998.878 229.832 999.335 229.888 999.867 230C1000.15 230.059 1000.37 230.103 1000.53 230.132C1000.69 230.157 1000.85 230.169 1001 230.169C1001.27 230.169 1001.51 230.113 1001.74 230C1001.98 229.883 1002.22 229.686 1002.47 229.407L1002.51 229.437C1002.64 229.793 1002.7 230.103 1002.7 230.367C1002.7 230.635 1002.65 230.882 1002.54 231.106C1002.43 231.326 1002.28 231.517 1002.09 231.678C1001.91 231.839 1001.69 231.963 1001.45 232.051C1001.21 232.139 1000.96 232.183 1000.69 232.183Z" fill="#6A5D5D"/>
<path d="M72.5195 340.488C71.9596 340.488 71.4062 340.423 70.8594 340.293C70.3255 340.176 69.5703 339.974 68.5938 339.688C67.6953 339.427 66.9271 339.232 66.2891 339.102C65.651 338.958 65 338.887 64.3359 338.887C63.6068 338.887 62.8776 338.978 62.1484 339.16C61.4323 339.329 60.6836 339.622 59.9023 340.039H59.7461C59.5898 339.414 59.5117 338.809 59.5117 338.223C59.5117 337.246 59.7135 336.322 60.1172 335.449C60.7943 333.9 62.0182 332.24 63.7891 330.469C64.8568 329.401 65.6706 328.6 66.2305 328.066C67.3633 326.947 68.2682 326.022 68.9453 325.293C69.6354 324.564 70.2539 323.802 70.8008 323.008C71.4648 322.057 71.9727 321.107 72.3242 320.156C72.6888 319.193 72.8711 318.197 72.8711 317.168C72.8711 315.645 72.6367 314.46 72.168 313.613C71.6471 312.689 70.8854 312.227 69.8828 312.227C69.4271 312.227 68.9974 312.311 68.5938 312.48C68.2031 312.637 67.8711 312.865 67.5977 313.164C67.3242 313.464 67.1094 313.815 66.9531 314.219C66.7969 314.622 66.7188 315.039 66.7188 315.469C66.7188 316.393 66.8945 317.207 67.2461 317.91C67.6107 318.6 68.0729 319.115 68.6328 319.453V319.609C68.1771 320.026 67.6823 320.358 67.1484 320.605C66.6146 320.84 66.1003 320.957 65.6055 320.957C65.2148 320.957 64.8438 320.866 64.4922 320.684C64.1406 320.501 63.8346 320.234 63.5742 319.883C63.0013 319.115 62.7148 318.092 62.7148 316.816C62.7148 316.009 62.8971 315.202 63.2617 314.395C63.6393 313.574 64.1732 312.839 64.8633 312.188C65.6055 311.497 66.5039 310.957 67.5586 310.566C68.6133 310.176 69.7982 309.98 71.1133 309.98C72.2461 309.98 73.2878 310.15 74.2383 310.488C75.1888 310.814 76.0091 311.289 76.6992 311.914C77.4023 312.552 77.9427 313.327 78.3203 314.238C78.6979 315.137 78.8867 316.152 78.8867 317.285C78.8867 319.043 78.2747 320.736 77.0508 322.363C76.5299 323.053 75.9115 323.737 75.1953 324.414C74.4922 325.091 73.6784 325.801 72.7539 326.543C71.6602 327.402 70.8333 328.04 70.2734 328.457C68.3724 329.889 66.875 331.198 65.7812 332.383C65.1562 333.047 64.6354 333.757 64.2188 334.512C64.9479 334.316 65.7617 334.219 66.6602 334.219C67.6758 334.219 68.8932 334.368 70.3125 334.668C71.0547 334.824 71.6406 334.941 72.0703 335.02C72.513 335.085 72.9362 335.117 73.3398 335.117C74.043 335.117 74.7005 334.967 75.3125 334.668C75.9375 334.355 76.582 333.828 77.2461 333.086L77.3633 333.164C77.7018 334.115 77.8711 334.941 77.8711 335.645C77.8711 336.361 77.7279 337.018 77.4414 337.617C77.1549 338.203 76.7578 338.711 76.25 339.141C75.7552 339.57 75.1823 339.902 74.5312 340.137C73.8932 340.371 73.2227 340.488 72.5195 340.488ZM83.6914 322.871H98.3984L97.4805 327.363H82.7344L83.6914 322.871ZM81.9336 331.484H96.6406L95.7227 335.957H80.9766L81.9336 331.484ZM110.781 331.387L109.98 331.152C109.017 330.866 108.21 330.658 107.559 330.527C106.921 330.384 106.25 330.312 105.547 330.312C104.74 330.312 103.984 330.371 103.281 330.488C102.578 330.605 101.895 330.827 101.23 331.152H101.074L100.234 329.59V329.395C102.917 326.204 104.935 323.47 106.289 321.191C108.086 318.145 108.984 315.436 108.984 313.066C108.984 312.194 108.88 311.367 108.672 310.586C109.258 310.417 109.922 310.332 110.664 310.332C111.862 310.332 112.806 310.664 113.496 311.328C113.809 311.641 114.049 312.012 114.219 312.441C114.388 312.858 114.473 313.307 114.473 313.789C114.473 315 113.906 316.491 112.773 318.262C111.823 319.746 110.521 321.361 108.867 323.105C107.305 324.733 105.853 326.068 104.512 327.109L104.551 327.227C105.033 327.031 105.592 326.862 106.23 326.719C106.882 326.576 107.507 326.504 108.105 326.504C108.561 326.504 109.03 326.543 109.512 326.621C110.007 326.686 110.677 326.797 111.523 326.953L112.266 327.09L115.508 317.754H118.066L116.094 327.051C116.979 326.712 117.826 326.081 118.633 325.156L118.75 325.234C119.18 325.964 119.395 326.693 119.395 327.422C119.395 328.477 118.991 329.408 118.184 330.215C117.376 331.009 116.348 331.523 115.098 331.758L113.359 340H107.793L110.781 331.387Z" fill="#5A5A5A"/>
<path d="M86.6948 314.183C86.4849 314.183 86.2773 314.159 86.0723 314.11C85.8721 314.066 85.5889 313.99 85.2227 313.883C84.8857 313.785 84.5977 313.712 84.3584 313.663C84.1191 313.609 83.875 313.583 83.626 313.583C83.3525 313.583 83.0791 313.617 82.8057 313.685C82.5371 313.749 82.2563 313.858 81.9634 314.015H81.9048C81.8462 313.78 81.8169 313.553 81.8169 313.333C81.8169 312.967 81.8926 312.621 82.0439 312.293C82.2979 311.712 82.7568 311.09 83.4209 310.426C83.8213 310.025 84.1265 309.725 84.3364 309.525C84.7612 309.105 85.1006 308.758 85.3545 308.485C85.6133 308.211 85.8452 307.926 86.0503 307.628C86.2993 307.271 86.4897 306.915 86.6216 306.559C86.7583 306.197 86.8267 305.824 86.8267 305.438C86.8267 304.867 86.7388 304.422 86.563 304.105C86.3677 303.758 86.082 303.585 85.7061 303.585C85.5352 303.585 85.374 303.617 85.2227 303.68C85.0762 303.739 84.9517 303.824 84.8491 303.937C84.7466 304.049 84.666 304.181 84.6074 304.332C84.5488 304.483 84.5195 304.64 84.5195 304.801C84.5195 305.147 84.5854 305.453 84.7173 305.716C84.854 305.975 85.0273 306.168 85.2373 306.295V306.354C85.0664 306.51 84.8809 306.634 84.6807 306.727C84.4805 306.815 84.2876 306.859 84.1021 306.859C83.9556 306.859 83.8164 306.825 83.6846 306.756C83.5527 306.688 83.438 306.588 83.3403 306.456C83.1255 306.168 83.0181 305.785 83.0181 305.306C83.0181 305.003 83.0864 304.701 83.2231 304.398C83.3647 304.09 83.5649 303.814 83.8237 303.57C84.1021 303.312 84.439 303.109 84.8345 302.962C85.23 302.816 85.6743 302.743 86.1675 302.743C86.5923 302.743 86.9829 302.806 87.3394 302.933C87.6958 303.055 88.0034 303.233 88.2622 303.468C88.5259 303.707 88.7285 303.998 88.8701 304.339C89.0117 304.676 89.0825 305.057 89.0825 305.482C89.0825 306.141 88.853 306.776 88.394 307.386C88.1987 307.645 87.9668 307.901 87.6982 308.155C87.4346 308.409 87.1294 308.675 86.7827 308.954C86.3726 309.276 86.0625 309.515 85.8525 309.671C85.1396 310.208 84.5781 310.699 84.168 311.144C83.9336 311.393 83.7383 311.659 83.582 311.942C83.8555 311.869 84.1606 311.832 84.4976 311.832C84.8784 311.832 85.335 311.888 85.8672 312C86.1455 312.059 86.3652 312.103 86.5264 312.132C86.6924 312.157 86.8511 312.169 87.0024 312.169C87.2661 312.169 87.5127 312.113 87.7422 312C87.9766 311.883 88.2183 311.686 88.4673 311.407L88.5112 311.437C88.6382 311.793 88.7017 312.103 88.7017 312.367C88.7017 312.635 88.6479 312.882 88.5405 313.106C88.4331 313.326 88.2842 313.517 88.0938 313.678C87.9082 313.839 87.6934 313.963 87.4492 314.051C87.21 314.139 86.9585 314.183 86.6948 314.183Z" fill="#5A5A5A"/>
<path d="M53.623 12L120.296 44.2962L101.984 47.6075L97.0237 66.1212L83.1221 51.9737L60.7099 51.5805L53.623 12Z" fill="#2E8B5A"/>
<path d="M53.623 12L120.296 44.2962L101.984 47.6075M53.623 12L60.7099 51.5805L83.1221 51.9737M53.623 12L91.5775 50.4311M53.623 12L101.984 47.6075M101.984 47.6075L97.0237 66.1212M97.0237 66.1212L83.1221 51.9737M97.0237 66.1212L91.5775 50.4311M83.1221 51.9737L91.5775 50.4311" stroke="black" stroke-width="0.5"/>
<path d="M91.4043 106C100.431 159.444 7.26467 169.962 112.474 266.538" stroke="#716B6B" stroke-width="2" stroke-dasharray="2 2"/>
<path d="M894.5 3.9997C935 114 989.937 56.4998 989.937 179.532" stroke="#716B6B" stroke-width="2" stroke-dasharray="2 2"/>
<path d="M110.086 357.257L102.086 365.257H114.086C113.253 363.257 118.286 359.257 125.086 359.257C133.586 359.257 132.586 359.257 135.586 359.257C138.586 359.257 136.586 365.257 130.086 365.257" stroke="black" stroke-width="4"/>
<rect x="67" y="378" width="83" height="9" fill="#C4C4C4"/>
<path d="M110.086 357.257L102.086 365.257H114.086C113.253 363.257 118.286 359.257 125.086 359.257C133.586 359.257 132.586 359.257 135.586 359.257C138.586 359.257 136.586 365.257 130.086 365.257" stroke="black" stroke-width="4"/>
<path d="M957.086 291.757L949.086 299.757H961.086C960.253 297.757 965.286 293.757 972.086 293.757C980.586 293.757 979.586 293.757 982.586 293.757C985.586 293.757 983.586 299.757 977.086 299.757" stroke="black" stroke-width="4"/>
<path d="M913.586 292.757L947.586 265.257H1029.59V277.257L999.586 305.757H913.586V292.757Z" fill="white"/>
<path d="M913.586 292.757L947.586 265.257H1029.59M913.586 292.757H999.586M913.586 292.757V305.757H999.586M1029.59 265.257L999.586 292.757M1029.59 265.257V277.257L999.586 305.757M999.586 292.757V305.757" stroke="black" stroke-width="4"/>
<rect x="915.086" y="294.757" width="83" height="9" fill="#C4C4C4"/>
<rect x="915.086" y="294.757" width="83" height="9" fill="#D87676"/>
<path fill-rule="evenodd" clip-rule="evenodd" d="M989.086 283.257L989.086 283.257L993.085 279.257L988.931 279.245L988.932 279.257H952.086H945.48L950.977 282.921L952.477 283.921L952.919 283.257H989.086Z" fill="black"/>
<path fill-rule="evenodd" clip-rule="evenodd" d="M996.191 276.269L996.191 276.269L1000.19 272.269L996.037 272.257L996.037 272.269H959.191H952.586L958.082 275.933L959.582 276.933L960.025 276.269H996.191Z" fill="black"/>
<path d="M169.824 432.743L189.033 443.833C197.033 448.452 197.033 459.999 189.033 464.618L169.824 475.709C161.824 480.327 151.824 474.554 151.824 465.316L151.824 443.135C151.824 433.898 161.824 428.124 169.824 432.743Z" fill="#4C9B67" stroke="#1C7139" stroke-width="4"/>
<circle cx="1042.5" cy="351.5" r="27.5" fill="#46B705" stroke="#3C65B5" stroke-width="4"/>
</svg>
