<svg width="1200" height="629" viewBox="0 0 1200 629" fill="none" xmlns="http://www.w3.org/2000/svg">
<path d="M721.828 585.056L730.414 626H582L597.945 559L605.305 593.989V573.145L628.609 608.133L612.664 559L628.609 593.989V559L645.781 585.056L667.859 559L654.98 585.056L667.859 593.989L679.512 559V608.133L691.164 585.056V608.133L704.043 585.056L712.629 608.133L721.828 585.056Z" fill="#2E8B5A"/>
<path fill-rule="evenodd" clip-rule="evenodd" d="M1073.09 25.7444C1071.43 11.2539 1059.12 0 1044.19 0C1030.11 0 1018.37 9.99797 1015.67 23.2805C1015.48 23.2767 1015.29 23.2748 1015.09 23.2748C999.026 23.2748 986 36.3005 986 52.3684C986 68.4364 999.026 81.4621 1015.09 81.4621C1027.63 81.4621 1038.31 73.5359 1042.4 62.4225C1046.75 69.2219 1054.18 73.7038 1062.61 73.7038C1076 73.7038 1086.86 62.4148 1086.86 48.4893C1086.86 38.4665 1081.23 29.8095 1073.09 25.7444Z" fill="#C2C5CD" fill-opacity="0.2"/>
<path fill-rule="evenodd" clip-rule="evenodd" d="M1213.09 68.7444C1211.43 54.2539 1199.12 43 1184.19 43C1170.11 43 1158.37 52.998 1155.67 66.2805C1155.48 66.2767 1155.29 66.2748 1155.09 66.2748C1139.03 66.2748 1126 79.3005 1126 95.3684C1126 111.436 1139.03 124.462 1155.09 124.462C1167.63 124.462 1178.31 116.536 1182.4 105.423C1186.75 112.222 1194.18 116.704 1202.61 116.704C1216 116.704 1226.86 105.415 1226.86 91.4893C1226.86 81.4665 1221.23 72.8095 1213.09 68.7444Z" fill="#C2C5CD" fill-opacity="0.2"/>
<path d="M65.1341 384.367L2.69558 559.677C2.23527 560.969 2 562.331 2 563.703V629H368L228.984 484.348C223.825 478.98 215.509 478.208 209.45 482.536L168.728 511.623C162.627 515.981 154.067 513.738 150.887 506.948L92.8484 383.037C87.1641 370.901 69.6305 371.742 65.1341 384.367Z" fill="#F3F3F3"/>
<path d="M1195.49 471.391L1258.71 558.477C1260.2 560.526 1261 562.994 1261 565.526V629H895L1034.02 484.348C1039.18 478.98 1047.49 478.208 1053.55 482.536L1098.82 514.868C1103.09 517.921 1108.85 517.839 1113.04 514.667L1174.3 468.247C1181 463.171 1190.56 464.589 1195.49 471.391Z" fill="#F3F3F3"/>
<path d="M242 598L235 625.5H356L343 580.5L337 604V590L318 613.5L331 580.5L318 604V580.5L304 598L286 566L296.5 598L286 604L276.5 580.5V613.5L267 598V613.5L256.5 598L249.5 613.5L242 598Z" fill="#235C3E"/>
<path d="M459 598L466 625.5H345L358 580.5L364 604V590L383 613.5L370 580.5L383 604V580.5L397 598L415 580.5L404.5 598L415 604L424.5 580.5V613.5L434 598V613.5L444.5 598L451.5 613.5L459 598Z" fill="#2E8B5A"/>
<path d="M574.5 586.5L586 625.5H697L668.5 617.5L671.5 588L657 617.5L652.5 604L645 619V602L638.5 613.5L629 594L626.5 611.5L617.5 588V608L614 594L608 613.5V598L597 617.5L593 591.5L590.5 613.5L574.5 586.5Z" fill="#235C3E"/>
<path d="M768 598L775 625.5H654L667 580.5L673 604V590L692 613.5L679 580.5L692 604V580.5L706 598L724 580.5L713.5 598L724 604L733.5 580.5V613.5L743 598V613.5L753.5 598L760.5 613.5L768 598Z" fill="#2E8B5A"/>
<path d="M408.543 587L420.133 626H532L503.277 618L506.301 588.5L491.688 618L487.152 604.5L479.594 619.5V602.5L473.043 614L463.469 594.5L460.949 612L451.879 588.5V608.5L448.352 594.5L442.305 614V598.5L431.219 618L427.188 592L424.668 614L408.543 587Z" fill="#235C3E"/>
<path d="M603.891 597.889L610.945 626H489L502.102 580L508.148 604.022V589.711L527.297 613.733L514.195 580L527.297 604.022V580L541.406 597.889L559.547 580L548.965 597.889L559.547 604.022L569.121 580V613.733L578.695 597.889V613.733L589.277 597.889L596.332 613.733L603.891 597.889Z" fill="#33423A"/>
<path d="M636 598L629 625.5H750L737 580.5L731 604V590L712 613.5L725 580.5L712 604V580.5L698 598L680 566L690.5 598L680 604L670.5 580.5V613.5L661 598V613.5L650.5 598L643.5 613.5L636 598Z" fill="#235C3E"/>
<path d="M853 598L860 625.5H739L752 580.5L758 604V590L777 613.5L764 580.5L777 604V580.5L791 598L809 580.5L798.5 598L809 604L818.5 580.5V613.5L828 598V613.5L838.5 598L845.5 613.5L853 598Z" fill="#214030"/>
<path d="M968.5 586.5L980 625.5H1091L1062.5 617.5L1065.5 588L1051 617.5L1046.5 604L1039 619V602L1032.5 613.5L1023 594L1020.5 611.5L1011.5 588V608L1008 594L1002 613.5V598L991 617.5L987 591.5L984.5 613.5L968.5 586.5Z" fill="#235C3E"/>
<path d="M211.828 585.056L220.414 626H72L87.9453 559L95.3047 593.989V573.145L118.609 608.133L102.664 559L118.609 593.989V559L135.781 585.056L157.859 559L144.98 585.056L157.859 593.989L169.512 559V608.133L181.164 585.056V608.133L194.043 585.056L202.629 608.133L211.828 585.056Z" fill="#357955"/>
<path d="M802.543 587L814.133 626H926L897.277 618L900.301 588.5L885.688 618L881.152 604.5L873.594 619.5V602.5L867.043 614L857.469 594.5L854.949 612L845.879 588.5V608.5L842.352 594.5L836.305 614V598.5L825.219 618L821.188 592L818.668 614L802.543 587Z" fill="#235C3E"/>
<path d="M997.891 597.889L1004.95 626H883L896.102 580L902.148 604.022V589.711L921.297 613.733L908.195 580L921.297 604.022V580L935.406 597.889L953.547 580L942.965 597.889L953.547 604.022L963.121 580V613.733L972.695 597.889V613.733L983.277 597.889L990.332 613.733L997.891 597.889Z" fill="#2E8B5A"/>
<path d="M85.5 586.5L97 625.5H208L179.5 617.5L182.5 588L168 617.5L163.5 604L156 619V602L149.5 613.5L140 594L137.5 611.5L128.5 588V608L125 594L119 613.5V598L108 617.5L104 591.5L101.5 613.5L85.5 586.5Z" fill="#093F22"/>
<path d="M279 598L286 625.5H165L178 580.5L184 604V590L203 613.5L190 580.5L203 604V580.5L217 598L235 580.5L224.5 598L235 604L244.5 580.5V613.5L254 598V613.5L264.5 598L271.5 613.5L279 598Z" fill="#2E8B5A"/>
<path d="M114.891 597.889L121.945 626H0L13.1016 580L19.1484 604.022V589.711L38.2969 613.733L25.1953 580L38.2969 604.022V580L52.4062 597.889L70.5469 580L59.9648 597.889L70.5469 604.022L80.1211 580V613.733L89.6953 597.889V613.733L100.277 597.889L107.332 613.733L114.891 597.889Z" fill="#2E8B5A"/>
<path fill-rule="evenodd" clip-rule="evenodd" d="M747.091 373.744C745.43 359.254 733.123 348 718.188 348C704.111 348 692.368 357.998 689.675 371.28C689.482 371.277 689.288 371.275 689.094 371.275C673.026 371.275 660 384.3 660 400.368C660 416.436 673.026 429.462 689.094 429.462C701.628 429.462 712.31 421.536 716.403 410.423C720.746 417.222 728.176 421.704 736.613 421.704C750.003 421.704 760.858 410.415 760.858 396.489C760.858 386.466 755.235 377.81 747.091 373.744Z" fill="#BFCBEA"/>
<path fill-rule="evenodd" clip-rule="evenodd" d="M1039.09 374.744C1037.43 360.254 1025.12 349 1010.19 349C996.111 349 984.368 358.998 981.675 372.28C981.482 372.277 981.288 372.275 981.094 372.275C965.026 372.275 952 385.3 952 401.368C952 417.436 965.026 430.462 981.094 430.462C993.628 430.462 1004.31 422.536 1008.4 411.423C1012.75 418.222 1020.18 422.704 1028.61 422.704C1042 422.704 1052.86 411.415 1052.86 397.489C1052.86 387.466 1047.23 378.81 1039.09 374.744Z" fill="#BFCBEA"/>
<path d="M969.205 290L932.499 305.149L942.191 307.506L944.253 317.57L952.144 310.445L964.148 310.951L969.205 290Z" fill="#2E8B5A"/>
<path d="M969.205 290L932.499 305.149L942.191 307.506M969.205 290L964.148 310.951L952.144 310.445M969.205 290L947.669 309.349M969.205 290L942.191 307.506M942.191 307.506L944.253 317.57M944.253 317.57L952.144 310.445M944.253 317.57L947.669 309.349M952.144 310.445L947.669 309.349" stroke="black" stroke-width="0.5"/>
<path d="M925.385 339.837C880.441 370.133 859 509.5 749 490.5" stroke="#716B6B" stroke-width="2" stroke-dasharray="2 2"/>
<path d="M956.99 236.16L917.304 237.52L925.56 243.116L923.974 253.267L933.858 249.35L944.927 254.021L956.99 236.16Z" fill="#2E8B5A"/>
<path d="M956.99 236.16L917.304 237.52L925.56 243.116M956.99 236.16L944.927 254.021L933.858 249.35M956.99 236.16L930.048 246.759M956.99 236.16L925.56 243.116M925.56 243.116L923.974 253.267M923.974 253.267L933.858 249.35M923.974 253.267L930.048 246.759M933.858 249.35L930.048 246.759" stroke="black" stroke-width="0.5"/>
<path d="M900.916 270C863.269 308.994 855.897 391.711 802.919 421.398" stroke="#716B6B" stroke-width="2" stroke-dasharray="2 2"/>
<path d="M1010.68 324.37L971.07 327.235L979.533 332.514L978.333 342.718L988.06 338.428L999.299 342.676L1010.68 324.37Z" fill="#2E8B5A"/>
<path d="M1010.68 324.37L971.07 327.235L979.533 332.514M1010.68 324.37L999.299 342.676L988.06 338.428M1010.68 324.37L984.155 335.984M1010.68 324.37L979.533 332.514M979.533 332.514L978.333 342.718M978.333 342.718L988.06 338.428M978.333 342.718L984.155 335.984M988.06 338.428L984.155 335.984" stroke="black" stroke-width="0.5"/>
<path d="M931.896 516.095C939.586 462.442 872.86 425.59 960.752 356.772" stroke="#716B6B" stroke-width="2" stroke-dasharray="2 2"/>
<path d="M862.051 274.324L822.355 275.373L830.567 281.034L828.901 291.172L838.815 287.332L849.848 292.09L862.051 274.324Z" fill="#2E8B5A"/>
<path d="M862.051 274.324L822.355 275.373L830.567 281.034M862.051 274.324L849.848 292.09L838.815 287.332M862.051 274.324L835.026 284.711M862.051 274.324L830.567 281.034M830.567 281.034L828.901 291.172M828.901 291.172L838.815 287.332M828.901 291.172L835.026 284.711M838.815 287.332L835.026 284.711" stroke="black" stroke-width="0.5"/>
<path d="M817.385 308.837C772.441 339.133 789.885 413.337 679.885 394.337" stroke="#716B6B" stroke-width="2" stroke-dasharray="2 2"/>
<path fill-rule="evenodd" clip-rule="evenodd" d="M917.091 338.744C915.43 324.254 903.123 313 888.188 313C874.111 313 862.368 322.998 859.675 336.28C859.482 336.277 859.288 336.275 859.094 336.275C843.026 336.275 830 349.3 830 365.368C830 381.436 843.026 394.462 859.094 394.462C871.628 394.462 882.31 386.536 886.403 375.423C890.746 382.222 898.176 386.704 906.613 386.704C920.003 386.704 930.858 375.415 930.858 361.489C930.858 351.466 925.235 342.81 917.091 338.744Z" fill="#BFCBEA"/>
<path d="M1164 155.732L974 192.412L1017.95 213.298V263.732L1062.58 237.242L1119.37 251.506L1164 155.732Z" fill="#2E8B5A"/>
<path d="M1164 155.732L974 192.412L1017.95 213.298M1164 155.732L1119.37 251.506L1062.58 237.242M1164 155.732L1042.29 227.563M1164 155.732L1017.95 213.298M1017.95 213.298V263.732M1017.95 263.732L1062.58 237.242M1017.95 263.732L1042.29 227.563M1062.58 237.242L1042.29 227.563" stroke="black"/>
<path d="M1158 156.933L977.5 192.733L1018.5 211.232L1158 156.933Z" fill="#73DE38" fill-opacity="0.5"/>
</svg>
