<svg width="1200" height="573" viewBox="0 0 1200 573" fill="none" xmlns="http://www.w3.org/2000/svg">
<path d="M4.13412 328.367L-58.3044 503.677C-58.7647 504.969 -59 506.331 -59 507.703V573H307L167.984 428.348C162.825 422.98 154.509 422.208 148.45 426.536L107.728 455.623C101.627 459.981 93.067 457.738 89.8865 450.948L31.8484 327.037C26.1641 314.901 8.63046 315.742 4.13412 328.367Z" fill="#F3F3F3"/>
<path d="M1134.49 415.391L1197.71 502.477C1199.2 504.526 1200 506.994 1200 509.526V573H834L973.016 428.348C978.175 422.98 986.491 422.208 992.55 426.536L1037.82 458.868C1042.09 461.921 1047.85 461.839 1052.04 458.667L1113.3 412.247C1120 407.171 1129.56 408.589 1134.49 415.391Z" fill="#F3F3F3"/>
<path d="M707 542L714 569.5H593L606 524.5L612 548V534L631 557.5L618 524.5L631 548V524.5L645 542L663 524.5L652.5 542L663 548L672.5 524.5V557.5L682 542V557.5L692.5 542L699.5 557.5L707 542Z" fill="#2E8B5A"/>
<path d="M575 542L568 569.5H689L676 524.5L670 548V534L651 557.5L664 524.5L651 548V524.5L637 542L619 510L629.5 542L619 548L609.5 524.5V557.5L600 542V557.5L589.5 542L582.5 557.5L575 542Z" fill="#235C3E"/>
<path d="M792 542L799 569.5H678L691 524.5L697 548V534L716 557.5L703 524.5L716 548V524.5L730 542L748 524.5L737.5 542L748 548L757.5 524.5V557.5L767 542V557.5L777.5 542L784.5 557.5L792 542Z" fill="#214030"/>
<path d="M907.5 530.5L919 569.5H1030L1001.5 561.5L1004.5 532L990 561.5L985.5 548L978 563V546L971.5 557.5L962 538L959.5 555.5L950.5 532V552L947 538L941 557.5V542L930 561.5L926 535.5L923.5 557.5L907.5 530.5Z" fill="#235C3E"/>
<path d="M150.828 529.056L159.414 570H11L26.9453 503L34.3047 537.989V517.145L57.6094 552.133L41.6641 503L57.6094 537.989V503L74.7812 529.056L96.8594 503L83.9805 529.056L96.8594 537.989L108.512 503V552.133L120.164 529.056V552.133L133.043 529.056L141.629 552.133L150.828 529.056Z" fill="#357955"/>
<path d="M741.543 531L753.133 570H865L836.277 562L839.301 532.5L824.688 562L820.152 548.5L812.594 563.5V546.5L806.043 558L796.469 538.5L793.949 556L784.879 532.5V552.5L781.352 538.5L775.305 558V542.5L764.219 562L760.188 536L757.668 558L741.543 531Z" fill="#235C3E"/>
<path d="M936.891 541.889L943.945 570H822L835.102 524L841.148 548.022V533.711L860.297 557.733L847.195 524L860.297 548.022V524L874.406 541.889L892.547 524L881.965 541.889L892.547 548.022L902.121 524V557.733L911.695 541.889V557.733L922.277 541.889L929.332 557.733L936.891 541.889Z" fill="#2E8B5A"/>
<path d="M24.5 530.5L36 569.5H147L118.5 561.5L121.5 532L107 561.5L102.5 548L95 563V546L88.5 557.5L79 538L76.5 555.5L67.5 532V552L64 538L58 557.5V542L47 561.5L43 535.5L40.5 557.5L24.5 530.5Z" fill="#093F22"/>
<path d="M218 542L225 569.5H104L117 524.5L123 548V534L142 557.5L129 524.5L142 548V524.5L156 542L174 524.5L163.5 542L174 548L183.5 524.5V557.5L193 542V557.5L203.5 542L210.5 557.5L218 542Z" fill="#2E8B5A"/>
<path d="M53.8906 541.889L60.9453 570H-61L-47.8984 524L-41.8516 548.022V533.711L-22.7031 557.733L-35.8047 524L-22.7031 548.022V524L-8.59375 541.889L9.54688 524L-1.03516 541.889L9.54688 548.022L19.1211 524V557.733L28.6953 541.889V557.733L39.2773 541.889L46.332 557.733L53.8906 541.889Z" fill="#2E8B5A"/>
<path d="M398 542L405 569.5H284L297 524.5L303 548V534L322 557.5L309 524.5L322 548V524.5L336 542L354 524.5L343.5 542L354 548L363.5 524.5V557.5L373 542V557.5L383.5 542L390.5 557.5L398 542Z" fill="#2E8B5A"/>
<path d="M513.5 530.5L525 569.5H636L607.5 561.5L610.5 532L596 561.5L591.5 548L584 563V546L577.5 557.5L568 538L565.5 555.5L556.5 532V552L553 538L547 557.5V542L536 561.5L532 535.5L529.5 557.5L513.5 530.5Z" fill="#235C3E"/>
<path d="M637.828 529.056L646.414 570H498L513.945 503L521.305 537.989V517.145L544.609 552.133L528.664 503L544.609 537.989V503L561.781 529.056L583.859 503L570.98 529.056L583.859 537.989L595.512 503V552.133L607.164 529.056V552.133L620.043 529.056L628.629 552.133L637.828 529.056Z" fill="#2E8B5A"/>
<path d="M347.543 531L359.133 570H471L442.277 562L445.301 532.5L430.688 562L426.152 548.5L418.594 563.5V546.5L412.043 558L402.469 538.5L399.949 556L390.879 532.5V552.5L387.352 538.5L381.305 558V542.5L370.219 562L366.188 536L363.668 558L347.543 531Z" fill="#235C3E"/>
<path d="M181 542L174 569.5H295L282 524.5L276 548V534L257 557.5L270 524.5L257 548V524.5L243 542L225 510L235.5 542L225 548L215.5 524.5V557.5L206 542V557.5L195.5 542L188.5 557.5L181 542Z" fill="#235C3E"/>
<path d="M518.891 542.889L525.945 571H404L417.102 525L423.148 549.022V534.711L442.297 558.733L429.195 525L442.297 549.022V525L456.406 542.889L474.547 525L463.965 542.889L474.547 549.022L484.121 525V558.733L493.695 542.889V558.733L504.277 542.889L511.332 558.733L518.891 542.889Z" fill="#33423A"/>
<path d="M686 94L765 109.283L746.726 117.986V139L728.171 127.962L704.555 133.906L686 94Z" fill="#2E8B5A"/>
<path d="M686 94L765 109.283L746.726 117.986M686 94L704.555 133.906L728.171 127.962M686 94L736.605 123.929M686 94L746.726 117.986M746.726 117.986V139M746.726 139L728.171 127.962M746.726 139L736.605 123.929M728.171 127.962L736.605 123.929" stroke="black"/>
<path d="M669.193 355.271L631.318 367.199L640.77 370.383L641.957 380.588L650.433 374.169L662.349 375.709L669.193 355.271Z" fill="#2E8B5A"/>
<path d="M669.193 355.271L631.318 367.199L640.77 370.383M669.193 355.271L662.349 375.709L650.433 374.169M669.193 355.271L646.069 372.692M669.193 355.271L640.77 370.383M640.77 370.383L641.957 380.588M641.957 380.588L650.433 374.169M641.957 380.588L646.069 372.692M650.433 374.169L646.069 372.692" stroke="black" stroke-width="0.5"/>
<path d="M629.594 391.45C588.946 427.305 491.094 438.95 431.094 416.45" stroke="#716B6B" stroke-width="2" stroke-dasharray="2 2"/>
<path d="M696 97L746.649 117L761 109.5L696 97Z" fill="#73DE38" fill-opacity="0.5"/>
<path d="M764.664 155C803.414 192.897 865.608 274.022 804.383 295.341" stroke="#716B6B" stroke-width="2" stroke-dasharray="2 2"/>
<path d="M745 134.5V119L697.5 100L737 123L745 134.5Z" fill="white" fill-opacity="0.5"/>
<circle cx="511" cy="7" r="7" fill="white"/>
</svg>
